SplineFontDB: 3.0
FontName: CMUTypewriter-LightOblique
FullName: CMU Typewriter Text Light Oblique
FamilyName: CMU Typewriter Text
Weight: Light
Copyright: Converted by Andrey V. Panov from TeX fonts
UComments: "2009-6-18: Created." 
Version: 0.7.0
ItalicAngle: -9.46
UnderlinePosition: -100
UnderlineWidth: 50
Ascent: 775
Descent: 225
LayerCount: 2
Layer: 0 0 "+BBcEMAQ0BD0EOAQ5 +BD8EOwQwBD0A"  1
Layer: 1 0 "+BB8ENQRABDUENAQ9BDgEOQAA +BD8EOwQwBD0A"  0
NeedsXUIDChange: 1
XUID: [1067 4020752]
FSType: 0
OS2Version: 0
OS2_WeightWidthSlopeOnly: 0
OS2_UseTypoMetrics: 1
CreationTime: 1245319180
ModificationTime: 1245319687
PfmFamily: 17
TTFWeight: 200
TTFWidth: 5
LineGap: 200
VLineGap: 90
Panose: 2 0 3 9 0 0 0 0 0 0
OS2TypoAscent: 0
OS2TypoAOffset: 1
OS2TypoDescent: 0
OS2TypoDOffset: 1
OS2TypoLinegap: 200
OS2WinAscent: 828
OS2WinAOffset: 0
OS2WinDescent: 231
OS2WinDOffset: 0
HheadAscent: 828
HheadAOffset: 0
HheadDescent: -231
HheadDOffset: 0
Lookup: 1 0 0 "Case substitutions"  {"Case substitutions subtable"  } ['case' ('cyrl' <'dflt' > 'grek' <'dflt' > 'latn' <'dflt' > ) ]
Lookup: 3 0 0 "Greek alternatives"  {"Greek alternatives subtable"  } ['salt' ('grek' <'dflt' > ) ]
Lookup: 1 0 0 "Greek substitutions"  {"Greek substitutions subtable"  } ['locl' ('grek' <'dflt' > ) ]
Lookup: 4 0 0 "Latin Dutch ligatures"  {"Latin Dutch ligatures subtable"  } ['dlig' ('latn' <'NLD ' > ) ]
Lookup: 4 0 0 "Latin ligatures excepting Turkic"  {"Latin ligatures excepting Turkic subtable"  } ['dlig' ('latn' <'dflt' 'NLD ' 'VIT ' > ) ]
Lookup: 4 0 0 "Latin ligatures"  {"Latin ligatures subtable"  } ['dlig' ('latn' <'dflt' 'NLD ' 'VIT ' 'TRK ' 'AZE ' > ) ]
Lookup: 4 0 0 "Cyrillic ligatures"  {"Cyrillic ligatures subtable"  } ['dlig' ('cyrl' <'dflt' 'MKD ' 'SRB ' > ) ]
Lookup: 3 0 0 "Latin alternatives"  {"Latin alternatives subtable"  } ['salt' ('latn' <'dflt' > ) ]
Lookup: 3 0 0 "Stilistic set 01"  {"Stilistic set 01 subtable"  } ['ss01' ('latn' <'dflt' > 'grek' <'dflt' > 'cyrl' <'dflt' > ) ]

StartChar: .notdef
Encoding: 0 0 0
Width: 525
Flags: HW
HStem: 10 60<105 420> 705 60<105 420>
VStem: 10 60<112 663> 455 60<112 663>
DStem2: 105 705 70 663 0.508289 -0.861187<18.3797 309.738 396.718 688.585> 70 112 105 70 0.508289 0.861187<0 291.358 378.338 670.205>
LayerCount: 2
Fore
SplineSet
10 10 m 1
 10 765 l 1
 515 765 l 1
 515 10 l 1
 10 10 l 1
70 112 m 1
 232 388 l 1
 70 663 l 1
 70 112 l 1
105 70 m 1
 420 70 l 1
 262 337 l 1
 105 70 l 1
105 705 m 1
 262 438 l 1
 420 705 l 1
 105 705 l 1
292 388 m 1
 455 112 l 1
 455 663 l 1
 292 388 l 1
EndSplineSet
EndChar

StartChar: SF100000
Encoding: 9472 9472 1
Width: 525
Flags: HW
HStem: 240 70<0 525>
LayerCount: 2
Fore
SplineSet
-0 240 m 1
 -0 310 l 1
 525 310 l 1
 525 240 l 1
 -0 240 l 1
EndSplineSet
EndChar

StartChar: SF110000
Encoding: 9474 9474 2
Width: 525
Flags: HW
VStem: 227 70<-355 837>
LayerCount: 2
Fore
SplineSet
227 -355 m 1
 227 837 l 1
 297 837 l 1
 297 -355 l 1
 227 -355 l 1
EndSplineSet
EndChar

StartChar: SF010000
Encoding: 9484 9484 3
Width: 525
Flags: HW
HStem: 240 70<297 525>
VStem: 227 70<-355 240>
LayerCount: 2
Fore
SplineSet
227 310 m 1
 525 310 l 1
 525 240 l 1
 297 240 l 1
 297 -355 l 1
 227 -355 l 1
 227 310 l 1
EndSplineSet
EndChar

StartChar: SF030000
Encoding: 9488 9488 4
Width: 525
Flags: HW
HStem: 240 70<0 227>
VStem: 227 70<-355 240>
LayerCount: 2
Fore
SplineSet
0 240 m 1
 0 310 l 1
 297 310 l 1
 297 -355 l 1
 227 -355 l 1
 227 240 l 1
 0 240 l 1
EndSplineSet
EndChar

StartChar: SF020000
Encoding: 9492 9492 5
Width: 525
Flags: HW
HStem: 240 70<297 525>
VStem: 227 70<310 837>
LayerCount: 2
Fore
SplineSet
227 240 m 1
 227 837 l 1
 297 837 l 1
 297 310 l 1
 525 310 l 1
 525 240 l 1
 227 240 l 1
EndSplineSet
EndChar

StartChar: SF040000
Encoding: 9496 9496 6
Width: 525
Flags: HW
HStem: 240 70<0 227>
VStem: 227 70<310 837>
LayerCount: 2
Fore
SplineSet
0 240 m 1
 0 310 l 1
 227 310 l 1
 227 837 l 1
 297 837 l 1
 297 240 l 1
 0 240 l 1
EndSplineSet
EndChar

StartChar: SF080000
Encoding: 9500 9500 7
Width: 525
Flags: HW
HStem: 240 70<297 525>
VStem: 227 70<-355 240 310 837>
LayerCount: 2
Fore
SplineSet
227 -355 m 1
 227 837 l 1
 297 837 l 1
 297 310 l 1
 525 310 l 1
 525 240 l 1
 297 240 l 1
 297 -355 l 1
 227 -355 l 1
EndSplineSet
EndChar

StartChar: SF090000
Encoding: 9508 9508 8
Width: 525
Flags: HW
HStem: 240 70<0 227>
VStem: 227 70<-355 240 310 837>
LayerCount: 2
Fore
SplineSet
0 240 m 1
 0 310 l 1
 227 310 l 1
 227 837 l 1
 297 837 l 1
 297 -355 l 1
 227 -355 l 1
 227 240 l 1
 0 240 l 1
EndSplineSet
EndChar

StartChar: SF060000
Encoding: 9516 9516 9
Width: 525
Flags: HW
HStem: 240 70<0 227 297 525>
VStem: 227 70<-355 240>
LayerCount: 2
Fore
SplineSet
0 240 m 1
 0 310 l 1
 525 310 l 1
 525 240 l 1
 297 240 l 1
 297 -355 l 1
 227 -355 l 1
 227 240 l 1
 0 240 l 1
EndSplineSet
EndChar

StartChar: SF070000
Encoding: 9524 9524 10
Width: 525
Flags: HW
HStem: 240 70<0 227 297 525>
VStem: 227 70<310 837>
LayerCount: 2
Fore
SplineSet
0 240 m 1
 0 310 l 1
 227 310 l 1
 227 837 l 1
 297 837 l 1
 297 310 l 1
 525 310 l 1
 525 240 l 1
 0 240 l 1
EndSplineSet
EndChar

StartChar: SF050000
Encoding: 9532 9532 11
Width: 525
Flags: HW
HStem: 240 70<0 227 297 525>
VStem: 227 70<-355 240 310 837>
LayerCount: 2
Fore
SplineSet
-0 240 m 1
 -0 310 l 1
 227 310 l 1
 227 837 l 1
 297 837 l 1
 297 310 l 1
 525 310 l 1
 525 240 l 1
 297 240 l 1
 297 -355 l 1
 227 -355 l 1
 227 240 l 1
 -0 240 l 1
EndSplineSet
EndChar

StartChar: SF510000
Encoding: 9554 9554 14
Width: 525
Flags: HW
HStem: 160 70<297 525> 320 70<297 525>
VStem: 227 70<-355 160 230 320>
LayerCount: 2
Fore
SplineSet
227 -355 m 1
 227 390 l 1
 525 390 l 1
 525 320 l 1
 297 320 l 1
 297 230 l 1
 525 230 l 1
 525 160 l 1
 297 160 l 1
 297 -355 l 1
 227 -355 l 1
EndSplineSet
EndChar

StartChar: SF520000
Encoding: 9555 9555 15
Width: 525
Flags: HW
HStem: 240 70<217 307 377 525>
VStem: 147 70<-355 240> 307 70<-355 240>
LayerCount: 2
Fore
SplineSet
147 310 m 1
 525 310 l 1
 525 240 l 1
 377 240 l 1
 377 -355 l 1
 307 -355 l 1
 307 240 l 1
 217 240 l 1
 217 -355 l 1
 147 -355 l 1
 147 310 l 1
EndSplineSet
EndChar

StartChar: SF390000
Encoding: 9556 9556 16
Width: 525
Flags: HW
HStem: 160 70<377 525> 320 70<217 525>
VStem: 147 70<-355 320> 307 70<-355 160>
LayerCount: 2
Fore
SplineSet
147 -355 m 1
 147 390 l 1
 525 390 l 1
 525 320 l 1
 217 320 l 1
 217 -355 l 1
 147 -355 l 1
307 230 m 1
 525 230 l 1
 525 160 l 1
 377 160 l 1
 377 -355 l 1
 307 -355 l 1
 307 230 l 1
EndSplineSet
EndChar

StartChar: SF220000
Encoding: 9557 9557 17
Width: 525
Flags: HW
HStem: 160 70<0 227> 320 70<0 227>
VStem: 227 70<-355 160 230 320>
LayerCount: 2
Fore
SplineSet
0 160 m 1
 0 230 l 1
 227 230 l 1
 227 320 l 1
 0 320 l 1
 0 390 l 1
 297 390 l 1
 297 -355 l 1
 227 -355 l 1
 227 160 l 1
 0 160 l 1
EndSplineSet
EndChar

StartChar: SF210000
Encoding: 9558 9558 18
Width: 525
Flags: HW
HStem: 240 70<0 147 217 307>
VStem: 147 70<-355 240> 307 70<-355 240>
LayerCount: 2
Fore
SplineSet
0 240 m 1
 0 310 l 1
 377 310 l 1
 377 -355 l 1
 307 -355 l 1
 307 240 l 1
 217 240 l 1
 217 -355 l 1
 147 -355 l 1
 147 240 l 1
 0 240 l 1
EndSplineSet
EndChar

StartChar: SF250000
Encoding: 9559 9559 19
Width: 525
Flags: HW
HStem: 160 70<0 147> 320 70<0 307>
VStem: 147 70<-355 160> 307 70<-355 320>
LayerCount: 2
Fore
SplineSet
0 160 m 1
 0 230 l 1
 217 230 l 1
 217 -355 l 1
 147 -355 l 1
 147 160 l 1
 0 160 l 1
0 320 m 1
 0 390 l 1
 377 390 l 1
 377 -355 l 1
 307 -355 l 1
 307 320 l 1
 0 320 l 1
EndSplineSet
EndChar

StartChar: SF500000
Encoding: 9560 9560 20
Width: 525
Flags: HW
HStem: 160 70<297 525> 320 70<297 525>
VStem: 227 70<230 320 390 837>
LayerCount: 2
Fore
SplineSet
227 160 m 1
 227 837 l 1
 297 837 l 1
 297 390 l 1
 525 390 l 1
 525 320 l 1
 297 320 l 1
 297 230 l 1
 525 230 l 1
 525 160 l 1
 227 160 l 1
EndSplineSet
EndChar

StartChar: SF490000
Encoding: 9561 9561 21
Width: 525
Flags: HW
HStem: 240 70<217 307 377 525>
VStem: 147 70<310 837> 307 70<310 837>
LayerCount: 2
Fore
SplineSet
147 240 m 1
 147 837 l 1
 217 837 l 1
 217 310 l 1
 307 310 l 1
 307 837 l 1
 377 837 l 1
 377 310 l 1
 525 310 l 1
 525 240 l 1
 147 240 l 1
EndSplineSet
EndChar

StartChar: SF380000
Encoding: 9562 9562 22
Width: 525
Flags: HW
HStem: 160 70<217 525> 320 70<377 525>
VStem: 147 70<230 837> 307 70<390 837>
LayerCount: 2
Fore
SplineSet
147 160 m 1
 147 837 l 1
 217 837 l 1
 217 230 l 1
 525 230 l 1
 525 160 l 1
 147 160 l 1
307 320 m 1
 307 837 l 1
 377 837 l 1
 377 390 l 1
 525 390 l 1
 525 320 l 1
 307 320 l 1
EndSplineSet
EndChar

StartChar: SF280000
Encoding: 9563 9563 23
Width: 525
Flags: HW
HStem: 160 70<0 227> 320 70<0 227>
VStem: 227 70<230 320 390 837>
LayerCount: 2
Fore
SplineSet
0 160 m 1
 0 230 l 1
 227 230 l 1
 227 320 l 1
 0 320 l 1
 0 390 l 1
 227 390 l 1
 227 837 l 1
 297 837 l 1
 297 160 l 1
 0 160 l 1
EndSplineSet
EndChar

StartChar: SF270000
Encoding: 9564 9564 24
Width: 525
Flags: HW
HStem: 240 70<0 147 217 307>
VStem: 147 70<310 837> 307 70<310 837>
LayerCount: 2
Fore
SplineSet
0 240 m 1
 0 310 l 1
 147 310 l 1
 147 837 l 1
 217 837 l 1
 217 310 l 1
 307 310 l 1
 307 837 l 1
 377 837 l 1
 377 240 l 1
 0 240 l 1
EndSplineSet
EndChar

StartChar: SF260000
Encoding: 9565 9565 25
Width: 525
Flags: HW
HStem: 160 70<0 307> 320 70<0 147>
VStem: 147 70<390 837> 307 70<230 837>
LayerCount: 2
Fore
SplineSet
0 160 m 1
 0 230 l 1
 307 230 l 1
 307 837 l 1
 377 837 l 1
 377 160 l 1
 0 160 l 1
0 320 m 1
 0 390 l 1
 147 390 l 1
 147 837 l 1
 217 837 l 1
 217 320 l 1
 0 320 l 1
EndSplineSet
EndChar

StartChar: SF360000
Encoding: 9566 9566 26
Width: 525
Flags: HW
HStem: 160 70<297 525> 320 70<297 525>
VStem: 227 70<-355 160 230 320 390 837>
LayerCount: 2
Fore
SplineSet
227 -355 m 1
 227 837 l 1
 297 837 l 1
 297 390 l 1
 525 390 l 1
 525 320 l 1
 297 320 l 1
 297 230 l 1
 525 230 l 1
 525 160 l 1
 297 160 l 1
 297 -355 l 1
 227 -355 l 1
EndSplineSet
EndChar

StartChar: SF370000
Encoding: 9567 9567 27
Width: 525
Flags: HW
HStem: 240 70<377 525>
VStem: 147 70<-355 837> 307 70<-355 240 310 837>
LayerCount: 2
Fore
SplineSet
307 -355 m 1
 307 837 l 1
 377 837 l 1
 377 310 l 1
 525 310 l 1
 525 240 l 1
 377 240 l 1
 377 -355 l 1
 307 -355 l 1
EndSplineSet
Refer: 2 9474 S 1 0 0 1 -80 0 2
EndChar

StartChar: SF420000
Encoding: 9568 9568 28
Width: 525
Flags: HW
HStem: 160 70<377 525> 320 70<377 525>
VStem: 147 70<-355 837> 307 218<160 230 320 390> 307 70<-355 160 390 837>
LayerCount: 2
Fore
SplineSet
307 230 m 1xf0
 525 230 l 1
 525 160 l 1xf0
 377 160 l 1
 377 -355 l 1
 307 -355 l 1xe8
 307 230 l 1xf0
307 320 m 1xf0
 307 837 l 1
 377 837 l 1
 377 390 l 1xe8
 525 390 l 1
 525 320 l 1
 307 320 l 1xf0
EndSplineSet
Refer: 2 9474 S 1 0 0 1 -80 0 2
EndChar

StartChar: SF190000
Encoding: 9569 9569 29
Width: 525
Flags: HW
HStem: 160 70<0 227> 320 70<0 227>
VStem: 227 70<-355 160 230 320 390 837>
LayerCount: 2
Fore
SplineSet
0 160 m 1
 0 230 l 1
 227 230 l 1
 227 320 l 1
 0 320 l 1
 0 390 l 1
 227 390 l 1
 227 837 l 1
 297 837 l 1
 297 -355 l 1
 227 -355 l 1
 227 160 l 1
 0 160 l 1
EndSplineSet
EndChar

StartChar: SF200000
Encoding: 9570 9570 30
Width: 525
Flags: HW
HStem: 240 70<0 147>
VStem: 147 70<-355 240 310 837> 307 70<-355 837>
LayerCount: 2
Fore
SplineSet
0 240 m 1
 0 310 l 1
 147 310 l 1
 147 837 l 1
 217 837 l 1
 217 -355 l 1
 147 -355 l 1
 147 240 l 1
 0 240 l 1
EndSplineSet
Refer: 2 9474 S 1 0 0 1 80 0 2
EndChar

StartChar: SF230000
Encoding: 9571 9571 31
Width: 525
Flags: HW
HStem: 160 70<0 147> 320 70<0 147>
VStem: 0 217<160 230 320 390> 147 70<-355 160 390 837> 307 70<-355 837>
LayerCount: 2
Fore
SplineSet
0 160 m 1
 0 230 l 1
 217 230 l 1xe8
 217 -355 l 1
 147 -355 l 1
 147 160 l 1xd8
 0 160 l 1
0 320 m 1xe8
 0 390 l 1xe8
 147 390 l 1
 147 837 l 1
 217 837 l 1xd8
 217 320 l 1
 0 320 l 1xe8
EndSplineSet
Refer: 2 9474 S 1 0 0 1 80 0 2
EndChar

StartChar: SF470000
Encoding: 9572 9572 32
Width: 525
Flags: HW
HStem: 160 70<0 227 297 525> 320 70<0 525>
VStem: 227 70<-355 160>
LayerCount: 2
Fore
SplineSet
0 160 m 1
 0 230 l 1
 525 230 l 1
 525 160 l 1
 297 160 l 1
 297 -355 l 1
 227 -355 l 1
 227 160 l 1
 0 160 l 1
EndSplineSet
Refer: 1 9472 S 1 0 0 1 0 80 2
EndChar

StartChar: SF480000
Encoding: 9573 9573 33
Width: 525
Flags: HW
HStem: 240 70<0 147 217 307 377 525>
VStem: 147 70<-355 240> 307 70<-355 240>
LayerCount: 2
Fore
SplineSet
0 240 m 1
 0 310 l 1
 525 310 l 1
 525 240 l 1
 377 240 l 1
 377 -355 l 1
 307 -355 l 1
 307 240 l 1
 217 240 l 1
 217 -355 l 1
 147 -355 l 1
 147 240 l 1
 0 240 l 1
EndSplineSet
EndChar

StartChar: SF410000
Encoding: 9574 9574 34
Width: 525
Flags: HW
HStem: 160 70<0 147 377 525> 320 70<0 525>
VStem: 147 70<-355 160> 307 70<-355 160>
LayerCount: 2
Fore
SplineSet
0 160 m 1
 0 230 l 1
 217 230 l 1
 217 -355 l 1
 147 -355 l 1
 147 160 l 1
 0 160 l 1
307 230 m 1
 525 230 l 1
 525 160 l 1
 377 160 l 1
 377 -355 l 1
 307 -355 l 1
 307 230 l 1
EndSplineSet
Refer: 1 9472 S 1 0 0 1 0 80 2
EndChar

StartChar: SF450000
Encoding: 9575 9575 35
Width: 525
Flags: HW
HStem: 160 70<0 525> 320 70<0 227 297 525>
VStem: 227 70<390 837>
LayerCount: 2
Fore
SplineSet
0 320 m 1
 0 390 l 1
 227 390 l 1
 227 837 l 1
 297 837 l 1
 297 390 l 1
 525 390 l 1
 525 320 l 1
 0 320 l 1
EndSplineSet
Refer: 1 9472 S 1 0 0 1 0 -80 2
EndChar

StartChar: SF460000
Encoding: 9576 9576 36
Width: 525
Flags: HW
HStem: 240 70<0 147 217 307 377 525>
VStem: 147 70<310 837> 307 70<310 837>
LayerCount: 2
Fore
SplineSet
0 240 m 1
 0 310 l 1
 147 310 l 1
 147 837 l 1
 217 837 l 1
 217 310 l 1
 307 310 l 1
 307 837 l 1
 377 837 l 1
 377 310 l 1
 525 310 l 1
 525 240 l 1
 0 240 l 1
EndSplineSet
EndChar

StartChar: SF400000
Encoding: 9577 9577 37
Width: 525
Flags: HW
HStem: 160 70<0 525> 320 70<0 147 377 525>
VStem: 147 70<390 837> 307 70<390 837>
LayerCount: 2
Fore
SplineSet
0 320 m 1
 0 390 l 1
 147 390 l 1
 147 837 l 1
 217 837 l 1
 217 320 l 1
 0 320 l 1
307 320 m 1
 307 837 l 1
 377 837 l 1
 377 390 l 1
 525 390 l 1
 525 320 l 1
 307 320 l 1
EndSplineSet
Refer: 1 9472 S 1 0 0 1 0 -80 2
EndChar

StartChar: SF540000
Encoding: 9578 9578 38
Width: 525
Flags: HW
HStem: 160 70<0 227 297 525> 320 70<0 227 297 525>
VStem: 227 70<-355 160 230 320 390 837>
LayerCount: 2
Fore
SplineSet
0 160 m 1
 0 230 l 1
 227 230 l 1
 227 320 l 1
 0 320 l 1
 0 390 l 1
 227 390 l 1
 227 837 l 1
 297 837 l 1
 297 390 l 1
 525 390 l 1
 525 320 l 1
 297 320 l 1
 297 230 l 1
 525 230 l 1
 525 160 l 1
 297 160 l 1
 297 -355 l 1
 227 -355 l 1
 227 160 l 1
 0 160 l 1
EndSplineSet
EndChar

StartChar: SF530000
Encoding: 9579 9579 39
Width: 525
Flags: HW
HStem: 240 70<0 147 217 307 377 525>
VStem: 147 70<-355 240 310 837> 307 70<-355 240 310 837>
LayerCount: 2
Fore
SplineSet
-0 240 m 1
 -0 310 l 1
 147 310 l 1
 147 837 l 1
 217 837 l 1
 217 310 l 1
 307 310 l 1
 307 837 l 1
 377 837 l 1
 377 310 l 1
 525 310 l 1
 525 240 l 1
 377 240 l 1
 377 -355 l 1
 307 -355 l 1
 307 240 l 1
 217 240 l 1
 217 -355 l 1
 147 -355 l 1
 147 240 l 1
 -0 240 l 1
EndSplineSet
EndChar

StartChar: uni262D
Encoding: 9773 9773 40
Width: 525
Flags: HW
TeX: 117 0
HStem: 0 20G<30.5 60.5 462.5 467> 39 76<244.267 355.503> 102 51<98.531 128.337>
VStem: 89 43<98.6716 137.734> 431 65<186.303 382.211>
DStem2: 84 357 128 301 0.626941 0.779067<0 63.6069 102.652 165.701>
LayerCount: 2
Fore
SplineSet
18 18 m 0
 18 64 89 102 89 128 c 0
 89 148 93 153 104 153 c 0xb8
 115 153 118 159 132 180 c 1
 175 152 232 115 298 115 c 0
 336 115 356 128 356 129 c 0
 356 135 311 186 178 363 c 1
 128 301 l 1
 84 357 l 1
 188 486 l 1
 264 470 l 1
 203 393 l 1
 373 190 l 1
 396 165 l 1
 401 165 431 218 431 295 c 0
 431 473 263 587 263 593 c 1
 301 593 496 478 496 267 c 0
 496 167 458 114 450 100 c 1
 493 46 496 44 496 38 c 0
 496 17 470 -1 464 -1 c 0xd8
 461 -1 462 -3 409 62 c 1
 387 51 366 39 328 39 c 0xd8
 225 39 147 138 136 138 c 0
 132 138 132 134 132 130 c 2
 132 118 l 2
 132 108 128 102 120 102 c 0
 91 102 84 0 37 0 c 0
 24 0 18 7 18 18 c 0
EndSplineSet
EndChar

StartChar: circumflex.cap
Encoding: 65536 -1 41
Width: 525
Flags: HW
HStem: 652 171
VStem: 217 319<673 701>
AnchorPoint: "above" 365 619 mark 0
LayerCount: 2
Fore
SplineSet
217 685 m 0
 217 702 233 709 256 727 c 0
 379 820 388 823 394 823 c 2
 396 823 l 2
 408 823 417 813 425 805 c 0
 530 701 536 701 536 685 c 0
 536 671 518 652 502 652 c 0
 488 652 480 665 392 758 c 1
 257 652 260 652 248 652 c 0
 231 652 217 673 217 685 c 0
EndSplineSet
EndChar

StartChar: dieresis.cap
Encoding: 65537 -1 42
Width: 525
Flags: HW
HStem: 733 85<254.383 326.74 458.053 529.301>
VStem: 247 87<740.646 810.354> 451 86<740.699 811.615>
AnchorPoint: "above" 366 619 mark 0
LayerCount: 2
Fore
SplineSet
247 773 m 0
 247 798 270 818 293 818 c 0
 317 818 334 798 334 778 c 0
 334 753 311 733 287 733 c 0
 267 733 247 749 247 773 c 0
451 773 m 0
 451 796 471 819 496 819 c 0
 516 819 537 803 537 779 c 0
 537 753 514 733 491 733 c 0
 469 733 451 750 451 773 c 0
EndSplineSet
EndChar

StartChar: dotaccent.cap
Encoding: 65538 -1 43
Width: 525
Flags: HW
HStem: 669 86<345.453 417.156>
VStem: 338 87<676.963 747.301>
AnchorPoint: "above" 366 619 mark 0
LayerCount: 2
Fore
SplineSet
338 709 m 0
 338 735 361 755 384 755 c 0
 409 755 425 735 425 715 c 0
 425 690 402 669 379 669 c 0
 354 669 338 689 338 709 c 0
EndSplineSet
EndChar

StartChar: caron.cap
Encoding: 65539 -1 44
Width: 525
Flags: HW
HStem: 649 164
VStem: 245 298<777 788>
AnchorPoint: "above" 366 619 mark 0
LayerCount: 2
Fore
SplineSet
245 788 m 0
 246 803 258 813 270 813 c 0
 284 813 291 802 379 714 c 1
 508 811 505 813 518 813 c 0
 531 813 543 803 543 788 c 0
 543 774 532 766 526 761 c 0
 387 649 384 649 375 649 c 0
 360 649 352 662 257 765 c 0
 251 771 245 777 245 788 c 0
EndSplineSet
EndChar

StartChar: ring.cap
Encoding: 65540 -1 45
Width: 525
Flags: HW
HStem: 593 53<331.617 417.128> 774 53<345.332 431.165>
VStem: 263 59<654.96 750.623> 440 59<668.731 765.14>
AnchorPoint: "above" 366 619 mark 0
LayerCount: 2
Fore
SplineSet
263 691 m 0
 263 761 327 827 401 827 c 0
 457 827 499 787 499 729 c 0
 499 659 435 593 362 593 c 0
 306 593 263 633 263 691 c 0
322 699 m 0
 322 669 342 646 371 646 c 0
 405 646 440 680 440 721 c 0
 440 749 422 774 392 774 c 0
 358 774 322 740 322 699 c 0
EndSplineSet
EndChar

StartChar: breve.cap
Encoding: 65541 -1 46
Width: 525
Flags: HW
HStem: 646 56<304.914 456.047>
VStem: 221 54<729.206 818.368> 513 54<752.653 818.327>
AnchorPoint: "above" 366 619 mark 0
LayerCount: 2
Fore
SplineSet
221 776 m 0
 221 801 227 819 249 819 c 0
 264 819 275 809 275 794 c 2
 275 778 l 2
 275 725 329 702 376 702 c 2
 377 702 l 2
 437 702 498 736 513 793 c 0
 515 799 519 819 541 819 c 0
 555 819 567 809 567 794 c 0
 567 743 495 646 376 646 c 2
 375 646 l 2
 290 646 221 698 221 776 c 0
EndSplineSet
EndChar

StartChar: grave
Encoding: 96 96 47
Width: 525
Flags: HW
TeX: 611 0
ItalicCorrection: 115
HStem: 496 139
VStem: 208 199
LayerCount: 2
Fore
SplineSet
208 604 m 0
 208 621 224 635 240 635 c 0
 252 635 249 636 383 559 c 0
 391 554 407 547 407 530 c 0
 407 520 395 496 376 496 c 0
 366 496 360 499 233 572 c 0
 224 577 208 586 208 604 c 0
EndSplineSet
EndChar

StartChar: acute
Encoding: 180 180 48
Width: 525
Flags: HW
TeX: 611 0
ItalicCorrection: 115
HStem: 496 139
VStem: 294 224
LayerCount: 2
Fore
SplineSet
294 530 m 0
 294 547 310 554 321 559 c 0
 476 633 478 635 488 635 c 0
 505 635 518 621 518 606 c 0
 518 586 500 578 488 572 c 0
 336 499 331 496 322 496 c 0
 300 496 294 523 294 530 c 0
EndSplineSet
EndChar

StartChar: circumflex
Encoding: 710 710 49
Width: 525
Flags: HW
TeX: 638 0
HStem: 496 147
VStem: 192 317<517 546>
LayerCount: 2
Fore
SplineSet
192 530 m 0
 192 548 193 545 345 636 c 0
 351 640 358 643 365 643 c 0
 376 643 388 633 397 626 c 0
 502 547 509 546 509 529 c 0
 509 515 493 496 477 496 c 0
 467 496 460 502 451 509 c 2
 363 580 l 1
 232 498 234 496 221 496 c 0
 204 496 192 517 192 530 c 0
EndSplineSet
EndChar

StartChar: tilde
Encoding: 732 732 50
Width: 525
Flags: HW
TeX: 638 0
ItalicCorrection: 115
HStem: 499 57<373.513 453.274> 554 57<257.119 336.487>
LayerCount: 2
Fore
SplineSet
176 526 m 0
 176 537 182 544 195 554 c 0
 243 591 280 611 312 611 c 0x40
 367 611 376 556 403 556 c 0
 424 556 458 579 488 602 c 0
 496 608 503 610 509 610 c 0
 525 610 534 594 534 584 c 0
 534 573 529 567 516 557 c 0
 505 548 445 499 398 499 c 0x80
 343 499 334 554 307 554 c 0x40
 286 554 252 530 222 508 c 0
 214 502 206 499 200 499 c 0x80
 184 499 176 516 176 526 c 0
EndSplineSet
EndChar

StartChar: dieresis
Encoding: 168 168 51
Width: 525
Flags: HW
TeX: 611 0
ItalicCorrection: 115
HStem: 525 85<217.833 290.814> 525 86<422.973 493.548>
VStem: 211 87<532.942 602.617> 415 86<532.679 603.037>
LayerCount: 2
Fore
SplineSet
415 565 m 0x70
 415 588 436 611 461 611 c 0
 485 611 501 591 501 571 c 0
 501 544 477 525 455 525 c 0
 433 525 415 542 415 565 c 0x70
EndSplineSet
Refer: 403 183 S 1 0 0 1 -44 348 2
EndChar

StartChar: ring
Encoding: 730 730 53
Width: 525
Flags: HW
TeX: 638 0
ItalicCorrection: 115
HStem: 473 36<329.343 370.41> 611 36<340.073 381.517>
VStem: 268 58<509.514 602.804> 384 59<516.923 610.317>
LayerCount: 2
Fore
SplineSet
268 546 m 0
 268 603 322 647 370 647 c 0
 410 647 443 619 443 575 c 0
 443 523 395 473 341 473 c 0
 300 473 268 503 268 546 c 0
326 547 m 0
 326 527 334 509 347 509 c 0
 367 509 384 546 384 576 c 0
 384 598 376 611 364 611 c 0
 346 611 326 579 326 547 c 0
EndSplineSet
EndChar

StartChar: caron
Encoding: 711 711 54
Width: 525
Flags: HW
TeX: 638 0
HStem: 491 65<325.675 384.599>
VStem: 216 297<602 629>
LayerCount: 2
Fore
SplineSet
216 614 m 0
 216 629 227 639 240 639 c 0
 252 639 252 638 351 556 c 1
 352 556 l 1
 363 564 376 571 469 631 c 0
 474 634 481 639 489 639 c 0
 502 639 513 629 513 614 c 0
 513 600 501 593 495 588 c 0
 362 495 360 491 348 491 c 2
 346 491 l 2
 336 491 334 494 229 590 c 0
 223 596 216 602 216 614 c 0
EndSplineSet
EndChar

StartChar: breve
Encoding: 728 728 55
Width: 525
Flags: HW
TeX: 638 0
ItalicCorrection: 115
HStem: 489 55<264.58 440.996>
VStem: 191 53<565.084 638.374> 483 53<580.572 638.501>
LayerCount: 2
Fore
SplineSet
191 600 m 0
 191 621 197 639 219 639 c 0
 233 639 245 628 245 613 c 0
 245 610 244 607 244 604 c 0
 244 556 308 544 349 544 c 0
 403 544 469 564 483 613 c 0
 485 619 488 639 510 639 c 0
 524 639 536 629 536 613 c 0
 536 570 476 489 347 489 c 0
 257 489 191 533 191 600 c 0
EndSplineSet
EndChar

StartChar: macron
Encoding: 175 175 56
Width: 525
Flags: HW
TeX: 611 0
ItalicCorrection: 115
HStem: 565 54<171.685 549.275>
LayerCount: 2
Fore
SplineSet
171 590 m 0
 171 616 191 619 206 619 c 2
 517 619 l 2
 530 619 550 615 550 594 c 0
 550 581 544 565 518 565 c 2
 202 565 l 1
 176 566 171 581 171 590 c 0
EndSplineSet
EndChar

StartChar: dotaccent
Encoding: 729 729 57
Width: 525
Flags: HW
TeX: 611 0
ItalicCorrection: 115
HStem: 525 86<346.747 418.548>
VStem: 339 87<532.436 603.037>
LayerCount: 2
Fore
SplineSet
339 565 m 0
 339 591 363 611 385 611 c 0
 409 611 426 591 426 571 c 0
 426 544 402 525 380 525 c 0
 356 525 339 545 339 565 c 0
EndSplineSet
EndChar

StartChar: cedilla
Encoding: 184 184 58
Width: 525
Flags: HW
TeX: 0 194
ItalicCorrection: 115
HStem: -204 53<104.387 291.403> -62 112<236.148 290.254>
VStem: 226 70<-22.75 46.3452> 233 63<-13.9775 48.912> 312 62<-130 -71.6495>
LayerCount: 2
Fore
SplineSet
104 -178 m 0
 104 -152 126 -151 137 -151 c 2
 148 -151 l 2
 205 -151 312 -150 312 -98 c 0
 312 -64 249 -64 242 -62 c 0
 229 -58 226 -50 226 -37 c 0xe8
 226 -24 229 -8 233 14 c 0
 236 31 238 50 264 50 c 2xd8
 267 50 l 2
 291 50 296 34 296 24 c 0
 296 17 295 7 291 -15 c 1
 368 -32 374 -81 374 -98 c 0
 374 -204 220 -204 139 -204 c 2
 136 -204 l 2
 118 -204 104 -199 104 -178 c 0
EndSplineSet
EndChar

StartChar: ogonek
Encoding: 731 731 59
Width: 525
Flags: HW
TeX: 0 222
ItalicCorrection: 115
HStem: -190 57<232.68 323.408>
VStem: 169 237<-112 -80>
LayerCount: 2
Fore
SplineSet
169 -114 m 0
 169 -29 298 3 345 36 c 0
 352 41 360 49 371 49 c 0
 384 49 395 39 395 26 c 0
 395 -20 242 -52 232 -110 c 1
 231 -122 246 -133 267 -133 c 0
 301 -133 331 -109 353 -84 c 0
 358 -78 366 -65 380 -65 c 0
 396 -65 406 -80 406 -92 c 0
 406 -112 340 -190 260 -190 c 0
 211 -190 169 -160 169 -114 c 0
EndSplineSet
EndChar

StartChar: guilsinglleft
Encoding: 8249 8249 61
Width: 525
Flags: HW
TeX: 438 0
ItalicCorrection: 115
HStem: 0 21G<364.5 379>
DStem2: 173 217 118 194 0.780869 -0.624695<0 289.694> 124 247 173 217 0.84438 0.535745<25.3023 365.955>
LayerCount: 2
Fore
SplineSet
102 219 m 0
 102 235 117 242 124 247 c 2
 414 431 l 2
 422 436 427 439 436 439 c 0
 449 439 462 429 462 414 c 0
 462 404 456 396 443 388 c 2
 217 245 l 2
 202 236 188 226 173 217 c 1
 372 57 l 2
 387 44 397 39 397 26 c 0
 397 14 387 0 371 0 c 0
 358 0 350 9 338 18 c 2
 118 194 l 2
 113 199 102 206 102 219 c 0
EndSplineSet
EndChar

StartChar: guilsinglright
Encoding: 8250 8250 62
Width: 525
Flags: HW
TeX: 438 0
ItalicCorrection: 115
HStem: 0 21G<153 166>
DStem2: 259 422 225 382 0.779138 -0.626852<-35.1139 253.928> 380 194 473 192 0.84438 0.535745<-288.458 52.1536>
LayerCount: 2
Fore
SplineSet
136 24 m 0
 136 38 145 45 154 51 c 2
 380 194 l 2
 395 203 409 213 424 222 c 1
 225 382 l 2
 209 395 200 401 200 414 c 0
 200 426 211 439 227 439 c 0
 240 439 247 431 259 422 c 2
 479 245 l 2
 484 240 495 233 495 220 c 0
 495 204 480 197 473 192 c 2
 183 8 l 2
 178 5 171 0 161 0 c 0
 145 0 136 12 136 24 c 0
EndSplineSet
EndChar

StartChar: quotedblleft
Encoding: 8220 8220 63
Width: 525
Flags: HW
TeX: 611 0
ItalicCorrection: 115
HStem: 364 108<154.469 205.375 485.667 538.375> 590 20G<215 242 548 575>
VStem: 94 125<382.625 462.657> 427 125<382.625 462.657>
LayerCount: 2
Fore
SplineSet
94 441 m 0
 94 535 195 610 235 610 c 0
 249 610 262 597 262 584 c 0
 262 547 186 564 153 470 c 1
 159 471 164 472 170 472 c 0
 199 472 219 450 219 423 c 0
 219 394 196 364 160 364 c 0
 120 364 94 397 94 441 c 0
427 441 m 0
 427 535 528 610 568 610 c 0
 582 610 594 597 594 584 c 0
 594 547 518 564 485 470 c 1
 491 471 497 472 503 472 c 0
 532 472 552 450 552 423 c 0
 552 394 529 364 493 364 c 0
 453 364 427 397 427 441 c 0
EndSplineSet
EndChar

StartChar: quotedblright
Encoding: 8221 8221 64
Width: 525
Flags: HW
TeX: 611 0
ItalicCorrection: 115
HStem: 503 108<147.553 200.333 480.553 533.333>
VStem: 134 125<511.547 592.375> 467 125<511.547 592.375>
LayerCount: 2
Fore
SplineSet
92 391 m 0
 92 428 164 408 201 505 c 1
 195 504 189 503 183 503 c 0
 156 503 134 523 134 552 c 0
 134 581 157 611 193 611 c 0
 233 611 259 577 259 534 c 0
 259 436 153 365 118 365 c 0
 102 365 92 379 92 391 c 0
424 391 m 0
 424 428 497 408 534 505 c 1
 528 504 522 503 516 503 c 0
 489 503 467 523 467 552 c 0
 467 581 490 611 526 611 c 0
 566 611 592 577 592 534 c 0
 592 436 487 365 451 365 c 0
 435 365 424 379 424 391 c 0
EndSplineSet
EndChar

StartChar: quotedblbase
Encoding: 8222 8222 65
Width: 525
Flags: HW
TeX: 107 138
ItalicCorrection: 115
HStem: -138 21G<27 54 359.5 386.5> 0 108<63.625 116.168 396.625 447.404>
VStem: 50 125<9.34335 89.375> 383 125<8.94498 89.375>
LayerCount: 2
Fore
SplineSet
8 -112 m 0
 8 -76 84 -92 117 2 c 1
 111 1 105 0 99 0 c 0
 70 0 50 22 50 49 c 0
 50 78 73 108 109 108 c 0
 148 108 175 74 175 31 c 0
 175 -63 74 -138 34 -138 c 0
 20 -138 8 -125 8 -112 c 0
340 -111 m 0
 340 -75 415 -93 449 2 c 1
 443 1 438 0 432 0 c 0
 403 0 383 22 383 49 c 0
 383 78 406 108 442 108 c 0
 481 108 508 74 508 31 c 0
 508 -65 406 -138 367 -138 c 0
 352 -138 340 -125 340 -111 c 0
EndSplineSet
EndChar

StartChar: dotlessi
Encoding: 305 305 71
Width: 525
Flags: HW
TeX: 430 0
ItalicCorrection: 115
HStem: -0 53<87.3726 252 314 454.539> 378 53<157.531 306>
DStem2: 243.169 -0 305.169 -0 0.164359 0.986401<63.921 383.186>
AnchorPoint: "below" 274 0 basechar 0
AnchorPoint: "above" 346 437 basechar 0
LayerCount: 2
Fore
SplineSet
87 26 m 0
 87 53 108 53 125 53 c 2
 252 53 l 1
 306 378 l 1
 192 378 l 2
 178 378 157 380 157 404 c 0
 157 413 161 431 191 431 c 2
 340 431 l 2
 367 431 372 414 372 404 c 0
 372 397 370 390 369 383 c 2
 314 53 l 1
 423 53 l 2
 451 53 455 36 455 27 c 0
 455 19 452 0 424 -0 c 2
 118 -0 l 2
 90 0 87 17 87 26 c 0
EndSplineSet
EndChar

StartChar: dotlessj
Encoding: 567 567 72
Width: 525
Flags: HW
TeX: 430 222
ItalicCorrection: 115
HStem: -227 53<97.7991 229.608> 378 53<201.589 366>
VStem: 21 78<-168.766 -123.326>
DStem2: 265.341 -227 327.508 -227 0.164359 0.986401<103.071 613.317>
AnchorPoint: "below" 213 -222 basechar 0
AnchorPoint: "above" 406 437 basechar 0
LayerCount: 2
Fore
SplineSet
21 -163 m 0
 21 -131 45 -118 63 -118 c 0
 83 -118 99 -131 99 -154 c 0
 99 -159 99 -164 97 -169 c 1
 114 -172 134 -174 154 -174 c 2
 162 -174 l 2
 243 -174 286 -101 297 -37 c 2
 359 335 l 2
 361 349 363 364 366 378 c 1
 236 378 l 2
 218 378 201 381 201 403 c 0
 201 429 224 431 234 431 c 2
 400 431 l 2
 408 431 432 430 432 405 c 0
 432 401 431 396 430 392 c 2
 361 -26 l 2
 358 -43 356 -59 351 -75 c 0
 332 -143 267 -227 163 -227 c 2
 158 -227 l 2
 106 -227 21 -226 21 -163 c 0
EndSplineSet
EndChar

StartChar: ff
Encoding: 64256 64256 73
Width: 525
Flags: HW
TeX: 611 0
ItalicCorrection: 115
HStem: -0 53<17.5294 102 164 239.617 267.461 352 414 509.515> 378 53<92.5529 156 227 324.544 477 574.544> 562 53<282.826 422.249 516.325 580>
DStem2: 93.1689 -0 155.169 -0 0.164359 0.986401<63.921 383.186 447.135 549.469> 343.169 -0 405.169 -0 0.164359 0.986401<63.921 393.377 447.135 529.666>
LayerCount: 2
Fore
SplineSet
17 26 m 0
 17 33 20 52 47 53 c 1
 102 53 l 1
 156 378 l 1
 145 378 134 378 123 378 c 0
 114 378 92 379 92 403 c 0
 92 429 114 431 125 431 c 2
 165 431 l 1
 166 432 166 433 175 492 c 0
 187 569 278 615 386 615 c 0
 441 615 465 610 486 588 c 1
 487 588 l 1
 516 608 549 615 576 615 c 0
 641 615 655 585 655 564 c 0
 655 539 635 523 615 523 c 0
 601 523 578 532 580 562 c 1
 573 562 l 2
 556 562 542 559 527 549 c 0
 485 522 488 490 477 431 c 1
 544 431 l 2
 571 431 575 412 575 405 c 0
 575 396 571 378 543 378 c 2
 468 378 l 1
 414 53 l 1
 480 53 l 2
 504 53 510 37 510 27 c 0
 510 18 506 0 477 -0 c 2
 298 -0 l 2
 270 0 267 18 267 26 c 0
 267 33 270 52 297 53 c 1
 352 53 l 1
 423 483 l 1
 428 506 l 1
 433 522 l 1
 428 528 422 536 422 548 c 0
 422 552 422 556 423 560 c 1
 415 561 403 562 382 562 c 0
 331 562 285 549 256 521 c 0
 234 499 237 487 227 431 c 1
 295 431 l 2
 322 431 325 412 325 405 c 0
 325 396 321 378 293 378 c 2
 218 378 l 1
 164 53 l 1
 208 53 l 2
 236 53 240 37 240 27 c 0
 240 18 237 0 208 -0 c 2
 49 -0 l 2
 22 0 17 16 17 26 c 0
EndSplineSet
Ligature2: "Latin ligatures subtable" f f
EndChar

StartChar: fi
Encoding: 64257 64257 74
Width: 525
Flags: HW
TeX: 611 0
ItalicCorrection: 115
HStem: -0 53<19.5537 108 170 249.532 282.468 371 433 512.532> 378 53<93.5545 162 233 425> 562 53<293.934 438.238>
VStem: 436 78<506.642 555.673>
DStem2: 99.1689 -0 161.169 -0 0.164359 0.986401<63.921 383.186 447.135 547.351>
LayerCount: 2
Fore
SplineSet
19 26 m 0
 19 33 23 52 50 53 c 1
 108 53 l 1
 162 378 l 1
 125 378 l 2
 114 378 93 379 93 403 c 0
 93 429 115 431 128 431 c 2
 171 431 l 1
 172 432 179 486 184 506 c 0
 202 568 290 615 395 615 c 0
 498 615 514 574 514 547 c 0
 514 517 492 501 472 501 c 0
 450 501 436 517 436 537 c 0
 436 543 437 549 440 556 c 1
 425 560 408 562 390 562 c 0
 319 562 257 531 245 495 c 0
 241 483 241 476 233 431 c 1
 458 431 l 2
 487 431 490 416 490 409 c 0
 490 379 450 166 433 53 c 1
 449 53 465 53 481 53 c 0
 506 53 513 37 513 27 c 0
 513 19 510 0 481 -0 c 2
 314 -0 l 2
 285 0 282 18 282 26 c 0
 282 33 285 52 312 53 c 1
 371 53 l 1
 425 378 l 1
 224 378 l 1
 170 53 l 1
 219 53 l 2
 244 53 250 37 250 27 c 0
 250 19 247 0 218 -0 c 2
 51 -0 l 2
 23 0 19 17 19 26 c 0
EndSplineSet
Ligature2: "Latin ligatures excepting Turkic subtable" f i
EndChar

StartChar: fl
Encoding: 64258 64258 75
Width: 525
Flags: HW
TeX: 611 0
ItalicCorrection: 115
HStem: -0 53<19.5537 108 170 249.532 282.468 371 433 512.532> 378 53<93.5545 162 233 425> 562 53<294.551 441.298>
DStem2: 99.1689 -0 161.169 -0 0.164359 0.986401<63.921 383.186 447.135 548.043> 362.169 -0 424.169 -0 0.164359 0.986401<63.921 383.186 436.945 564.865>
LayerCount: 2
Fore
SplineSet
19 26 m 0
 19 33 23 52 50 53 c 1
 108 53 l 1
 162 378 l 1
 125 378 l 2
 114 378 93 379 93 403 c 0
 93 429 115 431 128 431 c 2
 171 431 l 1
 172 432 172 433 181 492 c 0
 193 571 291 615 400 615 c 2
 401 615 l 2
 427 615 451 615 476 609 c 1
 482 610 l 1
 489 611 l 1
 489 610 l 1
 494 610 l 2
 513 610 521 598 521 585 c 0
 521 581 520 576 519 572 c 2
 433 53 l 1
 449 53 465 53 481 53 c 0
 506 53 513 37 513 27 c 0
 513 19 510 0 481 -0 c 2
 314 -0 l 2
 285 0 282 18 282 26 c 0
 282 33 285 52 312 53 c 1
 371 53 l 1
 425 378 l 1
 224 378 l 1
 170 53 l 1
 219 53 l 2
 244 53 250 37 250 27 c 0
 250 19 247 0 218 -0 c 2
 51 -0 l 2
 23 0 19 17 19 26 c 0
233 431 m 1
 434 431 l 1
 451 534 l 1
 446 541 442 546 442 560 c 1
 427 561 413 562 398 562 c 0
 359 562 302 556 264 522 c 0
 239 500 243 486 233 431 c 1
EndSplineSet
Ligature2: "Latin ligatures subtable" f l
EndChar

StartChar: ffi
Encoding: 64259 64259 76
Width: 525
Flags: HW
TeX: 611 0
ItalicCorrection: 115
HStem: 0 53<4.41034 65 127 169.622 188.461 240 302 344.532 363.461 415 477 527.544> 378 53<84.8116 119 190 294 365 469> 562 53<232.29 310.579 407.074 485.186>
VStem: 480 78<506.193 558.626>
DStem2: 56.1689 0 118.169 0 0.164359 0.986401<63.921 383.186 447.135 558.756> 231.169 0 293.169 0 0.164359 0.986401<63.921 383.186 447.135 541.462> 406.169 0 468.169 0 0.164359 0.986401<63.921 383.186>
LayerCount: 2
Fore
SplineSet
4 26 m 0
 4 48 20 53 38 53 c 2
 65 53 l 1
 119 378 l 1
 118 378 l 2
 108 378 84 378 84 403 c 0
 84 413 90 431 115 431 c 2
 128 431 l 1
 129 432 136 489 142 510 c 0
 162 575 230 615 296 615 c 0
 332 615 356 602 371 583 c 1
 398 601 430 615 471 615 c 0
 521 615 558 587 558 546 c 0
 558 510 530 501 517 501 c 0
 495 501 480 517 480 537 c 0
 480 545 482 551 486 559 c 1
 479 561 473 562 466 562 c 0
 432 562 395 540 380 506 c 0
 374 492 373 476 365 431 c 1
 501 431 l 2
 527 431 535 421 535 405 c 0
 535 401 534 396 533 391 c 2
 477 53 l 1
 496 53 l 2
 523 53 528 37 528 27 c 0
 528 18 524 0 496 0 c 2
 395 0 l 2
 367 0 363 18 363 26 c 0
 363 35 367 53 396 53 c 2
 415 53 l 1
 469 378 l 1
 356 378 l 1
 302 53 l 1
 314 53 l 2
 342 53 345 34 345 27 c 0
 345 19 342 0 313 0 c 2
 219 0 l 2
 192 0 188 17 188 26 c 0
 188 35 192 53 221 53 c 2
 240 53 l 1
 294 378 l 1
 181 378 l 1
 127 53 l 1
 139 53 l 2
 167 53 170 34 170 27 c 0
 170 17 166 0 137 0 c 2
 35 0 l 2
 7 0 4 19 4 26 c 0
190 431 m 1
 303 431 l 1
 317 510 l 1
 308 520 305 529 305 537 c 0
 305 544 307 551 311 559 c 1
 304 561 300 562 292 562 c 0
 258 562 219 539 205 507 c 0
 199 493 198 477 190 431 c 1
EndSplineSet
Ligature2: "Latin ligatures excepting Turkic subtable" ff i
Ligature2: "Latin ligatures excepting Turkic subtable" f f i
EndChar

StartChar: ffl
Encoding: 64260 64260 77
Width: 525
Flags: HW
TeX: 611 0
ItalicCorrection: 115
HStem: 0 53<4.41034 65 127 169.622 188.461 240 302 344.532 363.461 415 477 527.544> 378 53<84.8116 119 190 294 365 469> 562 53<231.77 309.923 407.808 486>
DStem2: 56.1689 0 118.169 0 0.164359 0.986401<63.921 383.186 447.135 557.867> 406.169 0 468.169 0 0.164359 0.986401<63.921 383.186 436.945 567.11>
LayerCount: 2
Fore
SplineSet
4 26 m 0
 4 48 20 53 38 53 c 2
 65 53 l 1
 119 378 l 1
 118 378 l 2
 108 378 84 378 84 403 c 0
 84 413 90 431 115 431 c 2
 128 431 l 1
 129 432 136 489 142 510 c 0
 161 573 228 615 298 615 c 0
 348 615 365 597 375 586 c 1
 405 605 435 615 475 615 c 0
 508 615 510 611 530 611 c 2
 533 611 l 1
 533 610 l 1
 538 610 l 2
 557 610 565 598 565 585 c 0
 565 581 564 576 563 572 c 2
 477 53 l 1
 496 53 l 2
 523 53 528 37 528 27 c 0
 528 18 524 0 496 0 c 2
 395 0 l 2
 367 0 363 18 363 26 c 0
 363 35 367 53 396 53 c 2
 415 53 l 1
 469 378 l 1
 356 378 l 1
 302 53 l 1
 314 53 l 2
 342 53 345 34 345 27 c 0
 345 19 342 0 313 0 c 2
 219 0 l 2
 192 0 188 17 188 26 c 0
 188 35 192 53 221 53 c 2
 240 53 l 1
 294 378 l 1
 181 378 l 1
 127 53 l 1
 139 53 l 2
 167 53 170 34 170 27 c 0
 170 17 166 0 137 0 c 2
 35 0 l 2
 7 0 4 19 4 26 c 0
190 431 m 1
 303 431 l 1
 309 461 312 495 321 522 c 1
 316 529 310 536 310 549 c 0
 310 553 310 556 311 561 c 1
 305 562 299 562 293 562 c 0
 250 562 217 534 205 506 c 0
 199 492 198 477 190 431 c 1
365 431 m 1
 478 431 l 1
 495 534 l 1
 486 548 486 554 486 562 c 1
 471 562 l 2
 416 562 389 526 380 506 c 0
 374 492 373 476 365 431 c 1
EndSplineSet
Ligature2: "Latin ligatures subtable" ff l
Ligature2: "Latin ligatures subtable" f f l
EndChar

StartChar: uni2423
Encoding: 9251 9251 78
Width: 525
Flags: HW
TeX: 430 111
ItalicCorrection: 115
HStem: -130 38<66 428>
DStem2: 22.1699 -130 59.6683 -130 0.164359 0.986401<44.6871 360.687> 421.668 -130 459.668 -130 0.164359 0.986401<38.5239 361.665>
LayerCount: 2
Fore
SplineSet
26 -113 m 0
 26 -104 32 -73 35 -53 c 2
 79 214 l 2
 83 235 96 237 102 237 c 0
 114 237 117 230 117 220 c 0
 117 217 117 213 116 210 c 2
 66 -92 l 1
 428 -92 l 1
 479 214 l 2
 483 235 496 237 502 237 c 0
 508 237 517 234 517 221 c 0
 517 216 517 212 516 208 c 2
 465 -98 l 2
 462 -115 460 -130 433 -130 c 2
 49 -130 l 2
 40 -130 26 -130 26 -113 c 0
EndSplineSet
EndChar

StartChar: exclam
Encoding: 33 33 79
Width: 525
Flags: HW
TeX: 611 0
ItalicCorrection: 115
HStem: 0 108<231.683 310.625> 599 20G<335.5 374>
VStem: 217 108<14.5843 93.1685> 255 87<190.202 252.212>
DStem2: 218.01 0 305.842 0 0.164359 0.986401<219.42 594.585>
LayerCount: 2
Fore
SplineSet
255 216 m 0
 255 222 256 228 257 234 c 2
 301 557 l 2
 303 572 310 619 361 619 c 0
 387 619 411 600 411 571 c 0
 411 563 410 556 408 549 c 2
 342 217 l 2
 336 190 323 189 307 189 c 0xd0
 300 189 293 189 286 189 c 0
 260 190 255 205 255 216 c 0
EndSplineSet
Refer: 92 46 S 1 0 0 1 0 0 3
EndChar

StartChar: quotedbl
Encoding: 34 34 80
Width: 525
Flags: HW
TeX: 611 0
ItalicCorrection: 115
HStem: 327 293<237.101 258.593 413.146 433.805>
VStem: 206 56<328.216 455.913> 382 55<327.969 455.913>
LayerCount: 2
Fore
SplineSet
206 354 m 0
 206 362 223 502 231 577 c 0
 235 614 262 620 273 620 c 0
 291 620 310 606 310 584 c 0
 310 574 311 582 262 361 c 0
 259 349 255 327 232 327 c 0
 217 327 206 338 206 354 c 0
382 352 m 0
 382 366 388 406 407 577 c 0
 411 614 438 620 449 620 c 0
 467 620 485 606 485 584 c 0
 485 574 486 582 437 361 c 0
 434 349 431 327 408 327 c 0
 392 327 382 340 382 352 c 0
EndSplineSet
EndChar

StartChar: numbersign
Encoding: 35 35 81
Width: 525
Flags: HW
TeX: 611 0
ItalicCorrection: 115
HStem: 0 21G<129 149 312 332> 171 53<69.4967 153 225 336 408 521.427> 387 53<104.431 219 291 402 474 557.539> 590 20G<299 314.5 483 498.5>
VStem: 280 53<517.421 609.461> 463 54<517.421 609.268>
DStem2: 153 171 208 171 0.292628 0.956226<-149.816 0 71.7492 225.858 297.608 448.139> 336 171 391 171 0.292628 0.956226<-149.816 0 71.7492 225.858 297.608 448.431>
LayerCount: 2
Fore
SplineSet
69 198 m 0
 69 205 72 224 100 224 c 2
 169 224 l 1
 219 387 l 1
 136 387 l 2
 109 387 104 403 104 414 c 0
 104 427 114 440 138 440 c 2
 235 440 l 1
 239 455 244 470 280 586 c 0
 284 598 291 610 307 610 c 0
 322 610 333 597 333 585 c 0
 333 576 327 557 291 440 c 1
 419 440 l 1
 423 455 427 470 463 586 c 0
 467 598 475 610 491 610 c 0
 506 610 517 597 517 585 c 0
 517 576 510 557 474 440 c 1
 491 440 508 440 525 440 c 0
 545 440 558 429 558 413 c 0
 558 406 555 387 527 387 c 2
 457 387 l 1
 408 224 l 1
 489 224 l 2
 519 224 522 205 522 198 c 0
 522 188 516 171 489 171 c 2
 391 171 l 1
 343 14 345 0 319 0 c 0
 305 0 293 11 293 27 c 0
 293 36 321 123 336 171 c 1
 208 171 l 1
 159 12 162 0 136 0 c 0
 122 0 110 11 110 27 c 0
 110 36 138 123 153 171 c 1
 102 171 l 2
 75 171 69 187 69 198 c 0
225 224 m 1
 353 224 l 1
 402 387 l 1
 274 387 l 1
 225 224 l 1
EndSplineSet
EndChar

StartChar: dollar
Encoding: 36 36 82
Width: 525
Flags: HW
TeX: 694 83
ItalicCorrection: 115
HStem: -3 54<298 359.165> 282 61<346 393.9> 293 61<231.682 284> 560 54<264.431 329 391 451.166>
VStem: 84 61<86.496 171.023> 132 57<390.998 497.382> 439 57<122.841 240.832> 464 80<420.844 484.9>
DStem2: 221.67 -83 274.67 -83 0.164359 0.986401<26.7777 80.7035 144.723 378.827 442.945 651.896 715.352 771.438>
LayerCount: 2
Fore
SplineSet
84 142 m 0
 84 179 93 209 128 209 c 0
 146 209 164 194 164 172 c 0
 164 151 148 140 145 138 c 1xda
 148 65 216 54 244 50 c 1
 284 293 l 1
 139 319 132 411 132 435 c 0
 132 529 229 604 338 614 c 1
 346 663 345 694 374 694 c 0
 388 694 399 684 399 670 c 0
 399 660 396 643 391 614 c 1
 515 602 544 532 544 478 c 0
 544 445 535 415 500 415 c 0
 482 415 464 429 464 451 c 0xb5
 464 472 479 483 482 485 c 1
 477 552 404 559 383 561 c 1
 346 343 l 2
 347 343 496 322 496 191 c 0xd2
 496 113 428 13 288 -3 c 1
 280 -57 280 -83 253 -83 c 0
 238 -83 226 -72 226 -57 c 0
 226 -48 230 -35 235 -3 c 1
 234 -2 84 4 84 142 c 0
189 441 m 0xb4
 189 371 280 357 294 354 c 1
 329 560 l 1
 257 550 189 500 189 441 c 0xb4
298 51 m 1
 369 62 439 117 439 185 c 0xd2
 439 267 336 282 336 282 c 1
 298 51 l 1
EndSplineSet
EndChar

StartChar: percent
Encoding: 37 37 83
Width: 525
Flags: HW
TeX: 694 83
ItalicCorrection: 115
HStem: -83 55<373.857 423.512> 128 55<396.303 447.045> 428 54<179.481 227.822> 639 55<201.808 252.578>
VStem: 125 50<483.201 609.122> 256 50<511.941 638.388> 320 50<-27.3877 100.428> 450 50<1.05958 127.389>
DStem2: 94 -24 146 -58 0.486388 0.873743<-30.2365 818.627>
LayerCount: 2
Fore
SplineSet
83 -53 m 0
 83 -42 90 -32 94 -24 c 2
 481 671 l 2
 484 677 493 694 512 694 c 0
 528 694 542 681 542 664 c 0
 542 654 538 646 534 639 c 2
 146 -58 l 2
 139 -70 131 -83 113 -83 c 0
 97 -83 83 -70 83 -53 c 0
125 530 m 0
 125 614 176 694 233 694 c 0
 276 694 306 652 306 592 c 0
 306 511 257 428 198 428 c 0
 154 428 125 470 125 530 c 0
175 533 m 0
 175 501 185 482 199 482 c 0
 222 482 256 533 256 589 c 0
 256 624 246 639 233 639 c 0
 209 639 175 591 175 533 c 0
320 19 m 0
 320 101 370 183 428 183 c 0
 471 183 500 141 500 81 c 0
 500 -3 449 -83 392 -83 c 0
 349 -83 320 -41 320 19 c 0
370 22 m 0
 370 -13 380 -28 393 -28 c 0
 417 -28 450 20 450 79 c 0
 450 114 440 128 427 128 c 0
 403 128 370 81 370 22 c 0
EndSplineSet
EndChar

StartChar: ampersand
Encoding: 38 38 84
Width: 525
Flags: HW
TeX: 611 0
ItalicCorrection: 115
HStem: -8 53<119.486 213.655 352.236 435.241> 378 53<379.554 429 476.817 557.595> 566 53<264.495 323.828>
VStem: 48 62<52.6948 184.49> 180 50<345.022 523.856> 186 59<297.837 321.153> 327 50<449.051 564.968>
LayerCount: 2
Fore
SplineSet
48 110 m 0
 48 198 111 245 130 264 c 0
 179 312 186 317 186 326 c 0xf6
 186 334 180 358 180 407 c 0xfa
 180 576 255 619 305 619 c 0
 357 619 377 573 377 525 c 0
 377 446 348 404 252 308 c 0
 249 304 245 302 245 294 c 0xf6
 245 280 255 246 296 152 c 1
 297 152 l 1
 355 237 382 292 429 378 c 1
 411 378 l 2
 383 378 379 394 379 403 c 0
 379 429 401 431 413 431 c 2
 526 431 l 2
 554 431 558 413 558 405 c 0
 558 378 535 378 523 378 c 2
 486 378 l 1
 420 256 369 160 323 104 c 1
 339 76 366 45 395 45 c 0
 403 45 411 47 419 52 c 0
 466 82 444 134 480 134 c 0
 493 134 505 124 505 109 c 0
 505 86 475 -8 396 -8 c 0
 353 -8 318 19 289 63 c 1
 288 63 l 1
 256 28 207 -8 153 -8 c 0
 83 -8 48 50 48 110 c 0
110 110 m 0
 110 63 130 45 156 45 c 0
 198 45 238 84 262 109 c 1
 226 192 l 1
 211 232 l 1
 202 259 l 1
 152 214 110 180 110 110 c 0
230 407 m 0
 230 392 230 377 232 363 c 1
 312 446 327 472 327 521 c 0
 327 549 320 566 303 566 c 0xfa
 275 566 230 532 230 407 c 0
EndSplineSet
EndChar

StartChar: quoteright
Encoding: 8217 8217 85
Width: 525
Flags: HW
TeX: 611 0
ItalicCorrection: 115
HStem: 503 108<314.625 376.532>
VStem: 301 129<515.794 589.154>
LayerCount: 2
Fore
SplineSet
238 322 m 0
 238 340 256 346 265 351 c 0
 319 380 366 434 377 509 c 1
 367 505 358 503 350 503 c 0
 321 503 301 524 301 552 c 0
 301 581 324 611 360 611 c 0
 402 611 430 575 430 522 c 0
 430 389 296 295 264 295 c 0
 250 295 238 308 238 322 c 0
EndSplineSet
EndChar

StartChar: parenleft
Encoding: 40 40 86
Width: 525
Flags: HW
TeX: 694 83
ItalicCorrection: 115
VStem: 222 61<109.375 363.936>
LayerCount: 2
Fore
SplineSet
222 236 m 0
 222 520 484 694 522 694 c 0
 537 694 548 683 548 670 c 0
 548 653 531 645 523 640 c 0
 380 554 283 395 283 232 c 0
 283 67 377 -7 410 -33 c 0
 418 -39 426 -45 426 -58 c 0
 426 -70 416 -83 401 -83 c 0
 376 -83 222 21 222 236 c 0
EndSplineSet
EndChar

StartChar: parenright
Encoding: 41 41 87
Width: 525
Flags: HW
TeX: 694 83
ItalicCorrection: 115
VStem: 342 61<247.623 501.802>
LayerCount: 2
Fore
SplineSet
77 -58 m 0
 77 -39 98 -32 107 -26 c 0
 248 61 342 217 342 379 c 0
 342 490 298 583 214 645 c 0
 207 650 199 658 199 670 c 0
 199 685 212 694 225 694 c 0
 252 694 403 586 403 376 c 0
 403 89 140 -83 103 -83 c 0
 88 -83 77 -71 77 -58 c 0
EndSplineSet
EndChar

StartChar: asterisk
Encoding: 42 42 88
Width: 525
Flags: HW
TeX: 520 0
ItalicCorrection: 115
DStem2: 294 351 260 306 0.852672 -0.522446<-158.129 -5.48076 85.4249 227.658> 260 306 279 261 0.877698 0.479215<-172.959 -4.88841 97.9244 266.348>
LayerCount: 2
Fore
SplineSet
104 208 m 0
 104 233 114 234 260 306 c 1
 135 380 135 377 135 395 c 0
 135 408 149 428 169 428 c 2
 171 428 l 2
 179 428 181 425 294 351 c 1
 312 476 309 521 348 521 c 0
 363 521 373 511 373 496 c 0
 373 482 362 438 347 351 c 1
 483 425 485 427 498 427 c 0
 514 427 522 414 522 404 c 0
 522 380 502 374 440 343 c 2
 366 306 l 1
 366 305 l 1
 467 245 l 2
 477 239 490 233 490 217 c 0
 490 204 479 184 459 184 c 0
 452 184 444 187 435 193 c 2
 332 261 l 1
 312 138 318 91 277 91 c 0
 261 91 253 104 253 113 c 0
 253 121 257 144 279 261 c 1
 136 183 141 184 129 184 c 0
 109 185 104 201 104 208 c 0
EndSplineSet
EndChar

StartChar: plus
Encoding: 43 43 89
Width: 525
Flags: HW
TeX: 530 -80
ItalicCorrection: 115
HStem: 279 53<88.5603 282 344 536.595>
LayerCount: 2
Fore
SplineSet
88 306 m 0
 88 313 92 331 121 332 c 1
 291 332 l 1
 321 510 315 530 346 530 c 0
 361 530 372 517 372 505 c 0
 372 497 344 333 344 332 c 1
 502 332 l 2
 514 332 537 331 537 305 c 0
 537 298 534 279 505 279 c 2
 336 279 l 1
 306 99 307 100 302 93 c 0
 297 86 289 81 280 81 c 0
 265 81 254 94 254 106 c 0
 254 114 282 278 282 279 c 1
 118 279 l 1
 91 280 88 300 88 306 c 0
EndSplineSet
EndChar

StartChar: comma
Encoding: 44 44 90
Width: 525
Flags: HW
TeX: 107 138
ItalicCorrection: 115
HStem: -139 21G<185.5 211.5> 0 108<230.625 281.397>
VStem: 217 124<7.7349 89.7199>
LayerCount: 2
Fore
SplineSet
165 -112 m 0
 165 -72 243 -100 282 2 c 1
 277 1 272 0 266 0 c 0
 237 0 217 22 217 49 c 0
 217 79 241 108 276 108 c 0
 315 108 341 75 341 31 c 0
 341 -71 231 -139 192 -139 c 0
 179 -139 165 -127 165 -112 c 0
EndSplineSet
EndChar

StartChar: hyphen
Encoding: 45 45 91
Width: 525
Flags: HW
TeX: 430 0
ItalicCorrection: 115
HStem: 189 53<123.461 472.608>
LayerCount: 2
Fore
SplineSet
123 215 m 0
 123 224 127 242 156 242 c 2
 442 242 l 2
 467 242 473 226 473 216 c 0
 473 206 469 189 441 189 c 2
 153 189 l 1
 127 190 123 207 123 215 c 0
EndSplineSet
EndChar

StartChar: period
Encoding: 46 46 92
Width: 525
Flags: HW
TeX: 107 0
ItalicCorrection: 115
HStem: 0 108<231.683 310.625>
VStem: 217 108<14.5843 93.1685>
LayerCount: 2
Fore
SplineSet
217 49 m 0
 217 83 248 108 276 108 c 0
 303 108 325 88 325 59 c 0
 325 27 296 0 267 0 c 0
 233 0 217 27 217 49 c 0
EndSplineSet
EndChar

StartChar: slash
Encoding: 47 47 93
Width: 525
Flags: HW
TeX: 694 83
ItalicCorrection: 115
DStem2: 64 -25 105 -60 0.549178 0.835705<-34.4666 860.44>
LayerCount: 2
Fore
SplineSet
49 -57 m 0
 49 -44 60 -31 64 -25 c 2
 523 673 l 2
 528 680 535 694 551 694 c 0
 564 694 577 682 577 668 c 0
 577 657 570 648 565 640 c 2
 105 -60 l 2
 100 -68 91 -83 75 -83 c 0
 61 -83 49 -72 49 -57 c 0
EndSplineSet
EndChar

StartChar: zero
Encoding: 48 48 94
Width: 525
Flags: HW
TeX: 611 0
ItalicCorrection: 115
HStem: -8 53<216.832 329.837> 566 53<294.774 412.498>
VStem: 98 63<116.862 366.743> 468 60<253.677 497.505>
LayerCount: 2
Fore
SplineSet
98 227 m 0
 98 427 230 619 365 619 c 0
 463 619 528 517 528 384 c 0
 528 178 393 -8 261 -8 c 0
 163 -8 98 94 98 227 c 0
161 236 m 0
 161 132 200 45 270 45 c 0
 373 45 468 233 468 387 c 0
 468 486 425 566 356 566 c 0
 259 566 161 413 161 236 c 0
EndSplineSet
Substitution2: "LGC old numerals subtable" zerooldstyle
EndChar

StartChar: one
Encoding: 49 49 95
Width: 525
Flags: HW
TeX: 611 0
ItalicCorrection: 115
HStem: -0 53<119.505 255 317 442.4> 444 52<187.493 275.531> 599 20G<366 386.5>
VStem: 119 324<1.35534 51.6887>
DStem2: 246.169 -0 308.169 -0 0.164359 0.986401<63.921 496.622>
LayerCount: 2
Fore
SplineSet
119 26 m 0
 119 37 124 53 153 53 c 2
 255 53 l 1
 327 490 l 1
 284 455 243 444 219 444 c 0
 193 444 187 459 187 469 c 0
 187 481 195 493 206 496 c 0
 217 499 257 492 311 545 c 0
 359 593 352 619 380 619 c 0
 393 619 406 610 406 594 c 0
 406 584 403 575 402 566 c 2
 325 105 l 2
 322 88 320 70 317 53 c 1
 411 53 l 2
 419 53 443 52 443 27 c 0
 443 19 439 1 412 -0 c 1
 152 -0 l 2
 139 0 119 5 119 26 c 0
EndSplineSet
Substitution2: "LGC old numerals subtable" oneoldstyle
EndChar

StartChar: two
Encoding: 50 50 96
Width: 525
Flags: HW
TeX: 611 0
ItalicCorrection: 115
HStem: -0 53<163 422.308> 566 53<265.834 433.058>
VStem: 126 78<412.719 471.625> 485 61<380.201 520.318>
DStem2: 73 53 163 53 0.806405 0.591364<72.5765 455.348>
LayerCount: 2
Fore
SplineSet
57 26 m 0
 57 39 65 47 73 53 c 2
 283 207 l 2
 379 277 485 356 485 458 c 0
 485 542 402 566 345 566 c 0
 282 566 223 529 196 472 c 1
 201 464 204 456 204 448 c 0
 204 425 184 408 164 408 c 0
 143 408 126 422 126 444 c 0
 126 499 202 619 347 619 c 0
 465 619 546 555 546 458 c 0
 546 319 404 229 299 152 c 2
 163 53 l 1
 419 53 l 1
 423 84 425 100 454 100 c 2
 455 100 l 2
 475 100 484 86 484 76 c 0
 484 61 476 21 476 21 c 1
 472 5 460 0 443 -0 c 2
 88 -0 l 2
 74 0 57 4 57 26 c 0
EndSplineSet
Substitution2: "LGC old numerals subtable" twooldstyle
EndChar

StartChar: three
Encoding: 51 51 97
Width: 525
Flags: HW
TeX: 611 0
ItalicCorrection: 115
HStem: -8 53<169.355 355.907> 303 63<234.417 398.745> 566 53<259.712 444.27>
VStem: 66 79<113.33 177.31> 156 77<464.138 519.673> 450 61<129.764 257.747> 471 62<437.994 539.324>
LayerCount: 2
Fore
SplineSet
66 127 m 0
 66 176 94 183 109 183 c 0
 131 183 145 165 145 146 c 0
 145 130 137 120 129 113 c 1
 150 51 238 45 269 45 c 0
 373 45 450 124 450 196 c 0xfc
 450 245 412 303 319 303 c 2
 261 303 l 2
 233 303 230 321 230 329 c 0
 230 373 294 351 351 366 c 0
 428 385 471 456 471 497 c 0
 471 525 443 566 365 566 c 0
 270 566 237 530 228 520 c 1
 232 513 233 508 233 500 c 0
 233 476 213 459 192 459 c 0
 172 459 156 474 156 495 c 0xfa
 156 552 225 619 365 619 c 0
 482 619 533 552 533 497 c 0xfa
 533 464 513 383 418 333 c 1
 461 312 511 268 511 195 c 0
 511 96 409 -8 269 -8 c 0
 160 -8 66 38 66 127 c 0
EndSplineSet
Substitution2: "LGC old numerals subtable" threeoldstyle
EndChar

StartChar: four
Encoding: 52 52 98
Width: 525
Flags: HW
TeX: 611 0
ItalicCorrection: 115
HStem: 0 53<228.461 334 384 480.458> 168 53<128 353 412 527.511> 604 20G<409 457.5>
DStem2: 76 233 128 221 0.631066 0.775729<23.5067 488.271> 325.169 0 375.169 0 0.164359 0.986401<61.9487 170.29 232.266 589.014>
LayerCount: 2
Fore
SplineSet
62 193 m 0
 62 217 73 230 76 233 c 2
 377 603 l 2
 393 622 401 624 417 624 c 2
 447 624 l 2
 468 624 474 615 474 601 c 0
 474 597 474 592 473 587 c 2
 418 261 l 1
 412 221 l 1
 498 221 l 2
 523 221 528 205 528 195 c 0
 528 184 522 168 497 168 c 2
 403 168 l 1
 384 53 l 1
 451 53 l 2
 475 53 481 37 481 27 c 0
 481 14 472 1 451 0 c 1
 261 0 l 2
 245 0 228 4 228 26 c 0
 228 34 231 53 259 53 c 2
 334 53 l 1
 353 168 l 1
 94 168 l 2
 80 168 62 171 62 193 c 0
128 221 m 1
 362 221 l 1
 422 581 l 1
 128 221 l 1
EndSplineSet
Substitution2: "LGC old numerals subtable" fouroldstyle
EndChar

StartChar: five
Encoding: 53 53 99
Width: 525
Flags: HW
TeX: 611 0
ItalicCorrection: 115
HStem: -8 53<173.988 340.996> 333 53<238.26 402.533> 558 53<246 533.412>
VStem: 75 65<76.2664 165.482> 445 61<142.468 290.143>
DStem2: 90.0133 -8 152.015 -8 0.164359 0.986401<381.237 583.941>
LayerCount: 2
Fore
SplineSet
75 130 m 0
 75 178 101 186 118 186 c 0
 138 186 154 171 154 151 c 0
 154 130 140 123 140 111 c 0
 140 98 167 45 253 45 c 0
 345 45 445 118 445 219 c 0
 445 265 422 333 333 333 c 0
 288 333 235 319 197 284 c 0
 188 276 182 271 169 271 c 0
 147 271 142 282 142 297 c 0
 142 301 142 305 143 310 c 2
 188 580 l 2
 191 598 194 611 221 611 c 2
 506 611 l 2
 521 611 534 601 534 586 c 0
 534 573 528 558 503 558 c 2
 246 558 l 1
 213 358 l 1
 258 380 301 386 339 386 c 0
 445 386 506 307 506 218 c 0
 506 88 379 -8 252 -8 c 0
 153 -8 75 47 75 130 c 0
EndSplineSet
Substitution2: "LGC old numerals subtable" fiveoldstyle
EndChar

StartChar: six
Encoding: 54 54 100
Width: 525
Flags: HW
TeX: 611 0
ItalicCorrection: 115
HStem: -8 53<206.772 346.885> 339 53<245.982 396.199> 566 53<336.496 476.138>
VStem: 98 62<95.6016 252.496> 442 61<140.364 291.868> 463 79<486.477 547.53>
LayerCount: 2
Fore
SplineSet
98 203 m 0
 98 475 275 619 421 619 c 0
 481 619 542 597 542 532 c 0
 542 488 513 481 500 481 c 0
 479 481 463 496 463 516 c 0xf4
 463 526 467 538 477 548 c 1
 469 556 460 566 420 566 c 0
 322 566 210 472 175 331 c 1
 217 368 270 392 333 392 c 2
 334 392 l 1
 448 391 503 301 503 227 c 0
 503 138 459 84 419 50 c 0
 375 13 328 -8 267 -8 c 0
 146 -8 98 91 98 203 c 0
160 173 m 0
 160 158 170 45 268 45 c 0
 314 45 348 62 383 94 c 0
 398 108 442 147 442 227 c 0xf8
 442 265 415 339 330 339 c 0
 242 339 166 274 163 207 c 0
 161 173 160 182 160 173 c 0
EndSplineSet
Substitution2: "LGC old numerals subtable" sixoldstyle
EndChar

StartChar: seven
Encoding: 55 55 101
Width: 525
Flags: HW
TeX: 611 0
ItalicCorrection: 115
HStem: -8 21G<199.5 222> 558 53<194.505 479>
VStem: 177 65<-5.35596 112.173>
LayerCount: 2
Fore
SplineSet
133 537 m 0
 133 542 135 548 142 592 c 0
 145 609 147 627 173 627 c 0
 191 627 197 621 203 611 c 1
 547 611 l 2
 575 611 578 592 578 585 c 0
 578 570 569 563 558 554 c 0
 418 439 286 263 242 41 c 0
 239 23 237 -8 207 -8 c 0
 192 -8 177 2 177 22 c 1
 177 22 203 285 439 520 c 0
 452 533 465 546 479 558 c 1
 198 558 l 1
 194 533 194 511 165 511 c 2
 164 511 l 2
 137 511 133 528 133 537 c 0
EndSplineSet
Substitution2: "LGC old numerals subtable" sevenoldstyle
EndChar

StartChar: eight
Encoding: 56 56 102
Width: 525
Flags: HW
TeX: 611 0
ItalicCorrection: 115
HStem: -8 53<186.666 358.803> 303 53<249.073 386.433> 566 53<266.295 438.936>
VStem: 70 62<95.3436 221.397> 133 62<395.223 505.438> 449 62<125.377 252.948> 482 62<417.815 527.327>
LayerCount: 2
Fore
SplineSet
70 150 m 0
 70 222 128 298 245 330 c 1
 171 349 133 399 133 445 c 0
 133 525 230 619 365 619 c 0
 464 619 544 564 544 481 c 0xfa
 544 421 493 358 389 330 c 1
 473 307 511 248 511 194 c 0
 511 96 399 -8 260 -8 c 0
 155 -8 70 55 70 150 c 0
132 157 m 0
 132 90 194 45 269 45 c 0
 371 45 449 119 449 191 c 0xfc
 449 258 389 303 312 303 c 0
 210 303 132 228 132 157 c 0
195 449 m 0
 195 393 251 356 321 356 c 0
 405 356 482 411 482 474 c 0
 482 532 422 566 355 566 c 0xfa
 275 566 195 514 195 449 c 0
EndSplineSet
Substitution2: "LGC old numerals subtable" eightoldstyle
EndChar

StartChar: nine
Encoding: 57 57 103
Width: 525
Flags: HW
TeX: 611 0
ItalicCorrection: 115
HStem: -8 53<151.506 298.948> 219 53<229.479 381.941> 566 53<281.688 421.92>
VStem: 84 79<64.5149 124.162> 123 62<317.214 470.535> 467 62<352.179 513.531>
LayerCount: 2
Fore
SplineSet
84 78 m 0
 84 122 113 130 127 130 c 0
 147 130 163 115 163 95 c 0xf4
 163 85 159 75 150 64 c 1
 157 58 172 45 220 45 c 0
 313 45 416 137 452 280 c 1
 410 243 356 219 293 219 c 0
 266 219 208 219 160 282 c 0
 139 308 123 340 123 384 c 0
 123 462 157 517 210 561 c 0
 250 594 297 619 365 619 c 0
 430 619 529 580 529 408 c 0
 529 164 379 -8 217 -8 c 0
 154 -8 84 9 84 78 c 0
185 384 m 0
 185 344 213 272 297 272 c 0
 385 272 461 336 464 405 c 0
 466 438 467 431 467 438 c 0xec
 467 453 458 566 364 566 c 0
 317 566 282 550 246 518 c 0
 212 488 185 448 185 384 c 0
EndSplineSet
Substitution2: "LGC old numerals subtable" nineoldstyle
EndChar

StartChar: less
Encoding: 60 60 106
Width: 525
Flags: HW
TeX: 552 -59
ItalicCorrection: 115
DStem2: 185 303 128 277 0.832884 -0.553447<0 358.465> 133 336 185 304 0.877985 0.478689<30.3372 447.519>
LayerCount: 2
Fore
SplineSet
108 306 m 0
 108 323 121 330 133 336 c 2
 509 541 l 2
 515 544 521 547 528 547 c 0
 543 547 554 534 554 521 c 0
 554 503 539 497 530 492 c 2
 185 304 l 1
 185 303 l 1
 464 117 l 2
 473 111 482 104 482 90 c 0
 482 76 471 64 457 64 c 0
 448 64 439 70 435 73 c 2
 128 277 l 2
 121 282 108 290 108 306 c 0
EndSplineSet
EndChar

StartChar: equal
Encoding: 61 61 107
Width: 525
Flags: HW
TeX: 411 -199
ItalicCorrection: 115
HStem: 204 53<76.5537 523.629> 355 53<101.439 549.445>
LayerCount: 2
Fore
SplineSet
76 230 m 0
 76 242 84 251 90 254 c 0
 96 257 106 257 115 257 c 2
 490 257 l 2
 503 257 524 255 524 230 c 0
 524 217 514 204 493 204 c 2
 108 204 l 2
 80 204 76 220 76 230 c 0
101 381 m 0
 101 392 106 408 135 408 c 2
 517 408 l 2
 547 408 550 388 550 381 c 0
 550 370 543 355 518 355 c 2
 134 355 l 2
 107 355 101 371 101 381 c 0
EndSplineSet
EndChar

StartChar: greater
Encoding: 62 62 108
Width: 525
Flags: HW
TeX: 552 -59
ItalicCorrection: 115
DStem2: 191 539 162 494 0.831633 -0.555325<-22.3873 336.188> 416 294 117 70 0.877985 0.478689<-389.886 28.6513>
LayerCount: 2
Fore
SplineSet
72 90 m 0
 72 108 90 117 96 120 c 2
 416 294 l 2
 424 298 433 304 441 308 c 1
 425 318 410 329 395 339 c 2
 162 494 l 2
 148 503 143 513 143 522 c 0
 143 536 156 547 169 547 c 0
 178 547 185 543 191 539 c 2
 498 334 l 2
 505 329 518 322 518 306 c 0
 518 289 505 281 493 275 c 2
 117 70 l 2
 111 67 104 64 97 64 c 0
 82 64 72 77 72 90 c 0
EndSplineSet
EndChar

StartChar: question
Encoding: 63 63 109
Width: 525
Flags: HW
TeX: 611 0
ItalicCorrection: 115
HStem: 0 86<218.973 289.237> 562 53<250.294 458.814>
VStem: 143 78<457.31 512.719> 211 86<7.12633 78.0371> 484 61<459.335 538.382>
LayerCount: 2
Fore
SplineSet
143 488 m 0xe8
 143 526 187 615 346 615 c 0
 515 615 545 547 545 502 c 0
 545 429 470 396 460 391 c 0
 292 304 329 202 307 181 c 0
 299 173 291 173 279 173 c 2
 275 173 l 2
 257 173 246 182 246 197 c 0
 246 215 255 260 261 275 c 0
 276 314 313 376 424 435 c 0
 439 443 484 463 484 502 c 0
 484 541 432 562 348 562 c 0
 298 562 247 551 216 513 c 1
 220 507 221 501 221 494 c 0
 221 472 203 452 180 452 c 0
 153 452 143 475 143 488 c 0xe8
211 40 m 0
 211 65 234 86 257 86 c 0xd8
 277 86 297 71 297 47 c 0
 297 24 279 0 251 0 c 0
 229 0 211 17 211 40 c 0
EndSplineSet
EndChar

StartChar: at
Encoding: 64 64 110
Width: 525
Flags: HW
TeX: 611 0
ItalicCorrection: 115
HStem: -4 53<229.032 395.397> 109 53<316.005 412.981> 449 53<364.309 459.708> 562 53<315.541 461.337>
VStem: 89 50<149.525 365.291> 241 50<188.736 360.866> 485 60<267.336 484.181>
LayerCount: 2
Fore
SplineSet
89 249 m 0
 89 452 250 615 403 615 c 0
 460 615 545 587 545 430 c 0
 545 384 533 298 521 260 c 0
 492 167 424 109 359 109 c 0
 288 109 241 177 241 264 c 0
 241 383 321 502 416 502 c 0
 446 502 470 490 492 469 c 1
 483 525 461 562 401 562 c 0
 278 562 139 421 139 250 c 0
 139 137 207 49 309 49 c 0
 352 49 392 64 426 89 c 0
 435 96 440 104 461 104 c 0
 472 104 493 101 493 78 c 0
 493 51 397 -4 310 -4 c 0
 178 -4 89 108 89 249 c 0
291 266 m 0
 291 201 321 162 361 162 c 0
 424 162 485 256 485 345 c 0
 485 408 455 449 415 449 c 0
 359 449 291 365 291 266 c 0
EndSplineSet
EndChar

StartChar: A
Encoding: 65 65 111
Width: 525
Flags: HW
TeX: 611 0
ItalicCorrection: 115
HStem: -0 53<31.3693 94 157 209.627 323.41 385 446.119 501.565> 176 53<229 372> 604 20G<345.5 390.5>
DStem2: 94 53 157 53 0.377897 0.925848<23.8075 156.582 213.965 558.399> 444 111 372 229 0.0751167 -0.997175<-347.13 -123.075 -69.9243 53.4042>
AnchorPoint: "ogonek" 426 0 basechar 0
AnchorPoint: "below" 262 0 basechar 0
AnchorPoint: "above" 366 619 basechar 0
LayerCount: 2
Fore
SplineSet
31 26 m 0
 31 49 49 53 66 53 c 2
 94 53 l 1
 314 592 l 2
 322 611 332 624 359 624 c 2
 374 624 l 2
 407 624 406 605 408 584 c 2
 444 111 l 2
 445 92 446 72 448 53 c 1
 469 53 l 2
 497 53 502 37 502 27 c 0
 502 17 498 0 469 -0 c 2
 355 -0 l 2
 327 0 323 17 323 26 c 0
 323 48 339 53 357 53 c 2
 385 53 l 1
 376 176 l 1
 207 176 l 1
 157 53 l 1
 178 53 l 2
 206 53 210 37 210 27 c 0
 210 17 206 0 177 -0 c 2
 63 -0 l 2
 35 0 31 18 31 26 c 0
229 229 m 1
 372 229 l 1
 368 269 354 491 354 535 c 2
 354 550 l 1
 337 501 l 1
 229 229 l 1
EndSplineSet
EndChar

StartChar: B
Encoding: 66 66 112
Width: 525
Flags: HW
TeX: 611 0
ItalicCorrection: 115
HStem: 0 53<31.3871 103 165 378.195> 291 53<214 399.461> 558 53<124.596 187 249 447.499>
VStem: 450 62<120.58 254.823> 477 62<408.127 529.807>
DStem2: 94.1689 0 156.169 0 0.164359 0.986401<63.921 305.259 359.017 565.669>
AnchorPoint: "below" 219 0 basechar 0
AnchorPoint: "above" 322 619 basechar 0
LayerCount: 2
Fore
SplineSet
31 26 m 0
 31 52 53 53 64 53 c 0
 77 53 90 53 103 53 c 1
 187 558 l 1
 159 558 l 2
 140 558 124 563 124 584 c 0
 124 597 134 611 155 611 c 2
 388 611 l 2
 500 611 539 537 539 479 c 0xe8
 539 415 494 350 402 320 c 1
 481 303 512 243 512 191 c 0
 512 126 455 0 302 0 c 2
 62 0 l 2
 35 0 31 18 31 26 c 0
165 53 m 1
 297 53 l 2
 391 53 450 122 450 189 c 0xf0
 450 223 434 291 342 291 c 2
 205 291 l 1
 165 53 l 1
214 344 m 1
 321 344 l 2
 432 344 477 424 477 472 c 0xe8
 477 503 460 558 377 558 c 2
 249 558 l 1
 214 344 l 1
EndSplineSet
EndChar

StartChar: C
Encoding: 67 67 113
Width: 525
Flags: HW
TeX: 611 0
ItalicCorrection: 115
HStem: -8 53<221.221 365.742> 566 53<309.633 448.505>
VStem: 85 61<132.922 365.501> 450 62<122.907 196.886> 491 66<405.318 522.554>
AnchorPoint: "below" 286 0 basechar 0
AnchorPoint: "above" 380 619 basechar 0
LayerCount: 2
Fore
SplineSet
85 241 m 0
 85 439 230 619 380 619 c 0
 428 619 473 602 509 565 c 1
 533 609 539 619 556 619 c 0
 571 619 582 608 582 593 c 0
 582 586 583 593 557 438 c 0
 555 428 554 404 525 404 c 2
 524 404 l 2
 483 404 498 439 491 473 c 0xe8
 481 520 446 566 383 566 c 0
 270 566 146 414 146 240 c 0
 146 130 203 45 288 45 c 0
 361 45 433 99 450 169 c 0
 452 179 457 198 481 198 c 2
 482 198 l 2
 505 198 512 187 512 172 c 0xf0
 512 113 428 -8 285 -8 c 0
 165 -8 85 101 85 241 c 0
EndSplineSet
EndChar

StartChar: D
Encoding: 68 68 114
Width: 525
Flags: HW
TeX: 611 0
ItalicCorrection: 115
HStem: -0 53<27.4059 94 156 332.497> 558 53<120.535 178 240 411.748>
VStem: 480 62<240.901 475.337>
DStem2: 85.1689 -0 147.169 -0 0.164359 0.986401<63.921 565.669>
AnchorPoint: "below" 219 0 basechar 0
AnchorPoint: "above" 322 619 basechar 0
LayerCount: 2
Fore
SplineSet
27 26 m 0
 27 53 50 53 64 53 c 2
 94 53 l 1
 178 558 l 1
 152 558 l 2
 125 558 120 574 120 584 c 0
 120 593 125 611 153 611 c 2
 363 611 l 2
 506 611 542 467 542 375 c 0
 542 178 411 0 266 -0 c 2
 59 -0 l 2
 32 0 27 16 27 26 c 0
156 53 m 1
 262 53 l 2
 374 53 480 200 480 366 c 0
 480 441 452 558 341 558 c 2
 240 558 l 1
 156 53 l 1
EndSplineSet
EndChar

StartChar: E
Encoding: 69 69 115
Width: 525
Flags: HW
TeX: 611 0
ItalicCorrection: 115
HStem: -0 53<34.3876 109 171 452.864> 290 53<220 350> 558 53<127.404 193 255 512>
VStem: 345 56<234.621 288.021> 502 76<481.344 555.774>
DStem2: 100.169 -0 162.169 -0 0.164359 0.986401<63.921 304.272 358.031 565.669>
AnchorPoint: "ogonek" 266 0 basechar 0
AnchorPoint: "below" 266 0 basechar 0
AnchorPoint: "above" 369 619 basechar 0
LayerCount: 2
Fore
SplineSet
34 26 m 0
 34 52 56 53 68 53 c 2
 109 53 l 1
 193 558 l 1
 160 558 l 2
 150 558 127 559 127 584 c 0
 127 594 131 611 160 611 c 2
 546 611 l 2
 573 611 578 595 578 585 c 0
 578 580 563 487 561 481 c 0
 556 469 543 463 531 463 c 0
 516 463 502 473 502 488 c 0
 502 495 504 510 512 558 c 1
 255 558 l 1
 220 343 l 1
 359 343 l 1
 365 384 365 400 394 400 c 0
 415 400 425 390 425 373 c 1
 425 373 409 257 401 245 c 0
 396 237 388 234 376 234 c 2
 375 234 l 2
 351 234 345 248 345 258 c 0
 345 263 347 272 350 290 c 1
 211 290 l 1
 171 53 l 1
 450 53 l 1
 463 147 465 163 494 163 c 2
 497 163 l 2
 514 163 525 153 525 138 c 0
 525 130 522 113 508 30 c 0
 503 3 492 0 475 -0 c 2
 66 -0 l 2
 39 0 34 16 34 26 c 0
EndSplineSet
EndChar

StartChar: F
Encoding: 70 70 116
Width: 525
Flags: HW
TeX: 611 0
ItalicCorrection: 115
HStem: 0 53<36.3876 114 176 263.539> 279 53<223 357> 558 53<129.461 198 260 521>
VStem: 353 56<222.495 277.021> 510 77<481.344 555.774>
DStem2: 105.169 0 167.169 0 0.164359 0.986401<63.921 293.093 346.852 565.669>
CounterMasks: 1 e0
AnchorPoint: "below" 261 0 basechar 0
AnchorPoint: "above" 364 619 basechar 0
LayerCount: 2
Fore
SplineSet
36 26 m 0
 36 52 58 53 70 53 c 2
 114 53 l 1
 198 558 l 1
 164 558 l 2
 154 558 129 559 129 584 c 0
 129 593 133 611 162 611 c 2
 555 611 l 2
 582 611 587 595 587 585 c 0
 587 580 571 487 569 481 c 0
 564 469 553 463 541 463 c 0
 525 463 510 473 510 488 c 0
 510 495 513 510 521 558 c 1
 260 558 l 1
 223 332 l 1
 366 332 l 1
 372 371 372 389 402 389 c 0
 424 389 432 378 432 362 c 1
 432 362 417 246 409 234 c 0
 404 226 396 222 383 222 c 2
 381 222 l 2
 361 222 353 236 353 246 c 0
 353 251 354 261 357 279 c 1
 214 279 l 1
 176 53 l 1
 234 53 l 1
 260 52 264 35 264 27 c 0
 264 18 260 0 231 0 c 2
 68 0 l 2
 41 0 36 16 36 26 c 0
EndSplineSet
EndChar

StartChar: G
Encoding: 71 71 117
Width: 525
Flags: HW
TeX: 611 0
ItalicCorrection: 115
HStem: -8 53<207.03 330.783> 0 21G<412.5 436> 213 53<344.579 422 485 535.44> 566 53<294.003 420.541>
VStem: 82 61<123.732 364.401> 393 61<0.865921 49> 462 61<405.366 518.305>
AnchorPoint: "below" 265 0 basechar 0
AnchorPoint: "above" 360 619 basechar 0
LayerCount: 2
Fore
SplineSet
82 235 m 0
 82 435 217 619 360 619 c 0
 430 619 467 580 476 569 c 1
 495 602 502 619 522 619 c 0
 537 619 548 608 548 593 c 0
 548 586 549 593 523 438 c 0
 521 424 519 404 490 404 c 0
 480 404 468 406 462 420 c 0
 456 433 470 505 418 547 c 0
 405 558 386 566 363 566 c 0
 258 566 143 408 143 234 c 0
 143 129 192 45 266 45 c 0xbe
 297 45 376 59 422 213 c 1
 380 213 l 2
 367 213 344 213 344 238 c 0
 344 248 347 266 376 266 c 2
 505 266 l 2
 530 266 536 250 536 240 c 0
 536 232 532 213 503 213 c 2
 485 213 l 1
 454 26 l 2
 452 17 448 0 424 0 c 2x7e
 421 0 l 2x7e
 404 0 393 10 393 26 c 0
 393 33 395 41 396 49 c 1
 368 23 324 -8 264 -8 c 0
 155 -8 82 98 82 235 c 0
EndSplineSet
EndChar

StartChar: H
Encoding: 72 72 118
Width: 525
Flags: HW
TeX: 611 0
ItalicCorrection: 115
HStem: -0 53<30.4035 99 161 220.561 312.404 382 444 503.561> 291 53<209 421> 558 53<123.404 183 245 313.596 405.421 466 528 596.596>
DStem2: 90.1689 -0 152.169 -0 0.164359 0.986401<63.921 305.259 358.853 565.669> 373.169 -0 435.169 -0 0.164359 0.986401<63.921 294.904 348.663 565.669>
AnchorPoint: "below" 262 0 basechar 0
AnchorPoint: "above" 365 619 basechar 0
LayerCount: 2
Fore
SplineSet
30 26 m 0
 30 51 53 53 62 53 c 2
 99 53 l 1
 183 558 l 1
 155 558 l 2
 146 558 123 559 123 584 c 0
 123 610 144 611 156 611 c 2
 282 611 l 2
 310 611 314 595 314 585 c 0
 314 560 291 558 282 558 c 2
 245 558 l 1
 209 344 l 1
 430 344 l 1
 466 558 l 1
 438 558 l 2
 429 558 405 559 405 584 c 0
 405 610 427 611 439 611 c 2
 565 611 l 2
 592 611 597 595 597 585 c 0
 597 560 574 558 565 558 c 2
 528 558 l 1
 444 53 l 1
 453 53 462 53 471 53 c 0
 480 53 504 52 504 27 c 0
 504 16 499 0 470 -0 c 2
 345 -0 l 2
 317 0 312 16 312 26 c 0
 312 51 335 53 344 53 c 2
 382 53 l 1
 421 291 l 1
 201 291 l 1
 161 53 l 1
 189 53 l 2
 198 53 221 52 221 27 c 0
 221 16 216 0 187 -0 c 2
 62 -0 l 2
 34 0 30 16 30 26 c 0
EndSplineSet
EndChar

StartChar: I
Encoding: 73 73 119
Width: 525
Flags: HW
TeX: 611 0
ItalicCorrection: 115
HStem: 0 53<88.3871 240 302 445.539> 558 53<181.461 324 386 538.613>
DStem2: 231.169 0 293.169 0 0.164359 0.986401<63.921 565.669>
AnchorPoint: "ogonek" 263 0 basechar 0
AnchorPoint: "below" 261 0 basechar 0
AnchorPoint: "above" 364 619 basechar 0
LayerCount: 2
Fore
SplineSet
88 26 m 0
 88 52 110 53 121 53 c 2
 240 53 l 1
 324 558 l 1
 217 558 l 2
 206 558 181 558 181 584 c 0
 181 592 184 611 212 611 c 2
 507 611 l 2
 535 611 539 594 539 585 c 0
 539 559 517 558 506 558 c 2
 386 558 l 1
 302 53 l 1
 411 53 l 2
 421 53 446 52 446 27 c 0
 446 19 443 0 415 0 c 2
 119 0 l 2
 91 0 88 17 88 26 c 0
EndSplineSet
EndChar

StartChar: J
Encoding: 74 74 120
Width: 525
Flags: HW
TeX: 611 0
ItalicCorrection: 115
HStem: -8 53<171.301 319.738> 558 53<321.534 439 501 575.596>
VStem: 98 66<58.4695 103.44>
DStem2: 344.174 -8 406.339 -8 0.164359 0.986401<87.4758 573.888>
AnchorPoint: "below" 280 0 basechar 0
AnchorPoint: "above" 479 619 basechar 0
LayerCount: 2
Fore
SplineSet
98 91 m 0
 98 132 126 140 140 140 c 0
 160 140 177 126 177 104 c 0
 177 92 172 84 164 74 c 1
 164 73 l 1
 174 63 194 45 247 45 c 0
 302 45 343 77 360 110 c 0
 368 125 369 145 373 165 c 2
 439 558 l 1
 353 558 l 2
 325 558 321 575 321 584 c 0
 321 597 330 610 348 611 c 1
 547 611 l 2
 570 611 576 594 576 585 c 0
 576 559 553 558 542 558 c 2
 501 558 l 1
 430 134 l 2
 414 36 324 -8 246 -8 c 0
 163 -8 98 28 98 91 c 0
EndSplineSet
EndChar

StartChar: K
Encoding: 75 75 121
Width: 525
Flags: HW
TeX: 611 0
ItalicCorrection: 115
HStem: 0 53<33.4035 100 151 208.422 350.383 397 454 499.539> 558 53<126.439 184 235 301.579 420.489 462 504.562 582.549>
DStem2: 91.1689 0 142.169 0 0.164359 0.986401<62.113 237.367 287.175 565.669> 188 275 189 211 0.696379 0.717675<0 103.262 161.26 393.91> 333 359 293 317 0.36772 -0.929937<24.3485 308.095>
AnchorPoint: "below" 262 0 basechar 0
AnchorPoint: "above" 365 619 basechar 0
LayerCount: 2
Fore
SplineSet
33 26 m 0
 33 51 56 53 65 53 c 2
 100 53 l 1
 184 558 l 1
 158 558 l 2
 150 558 126 559 126 584 c 0
 126 594 131 611 160 611 c 2
 270 611 l 2
 298 611 302 593 302 585 c 0
 302 560 278 558 269 558 c 2
 235 558 l 1
 188 275 l 1
 462 558 l 1
 451 558 l 1
 424 559 420 576 420 584 c 0
 420 595 426 611 451 611 c 2
 552 611 l 2
 576 611 583 595 583 585 c 0
 583 576 579 559 552 558 c 1
 541 558 l 2
 528 558 527 558 516 548 c 2
 333 359 l 1
 454 53 l 1
 469 53 l 2
 497 53 500 34 500 27 c 0
 500 18 496 0 468 0 c 2
 380 0 l 2
 353 0 350 18 350 26 c 0
 350 35 353 53 382 53 c 2
 397 53 l 1
 293 317 l 1
 282 307 272 296 189 211 c 0
 174 195 174 210 151 53 c 1
 175 53 l 2
 186 53 209 52 209 27 c 0
 209 17 204 0 175 0 c 2
 65 0 l 2
 37 0 33 18 33 26 c 0
EndSplineSet
EndChar

StartChar: L
Encoding: 76 76 122
Width: 525
Flags: HW
TeX: 611 0
ItalicCorrection: 115
HStem: -0 53<39.3876 121 183 438.83> 558 53<132.602 205 267 366.4>
DStem2: 112.169 -0 174.169 -0 0.164359 0.986401<63.921 565.669>
AnchorPoint: "below" 261 0 basechar 0
AnchorPoint: "above" 365 619 basechar 0
LayerCount: 2
Fore
SplineSet
39 26 m 0
 39 52 61 53 73 53 c 0
 89 53 105 53 121 53 c 1
 205 558 l 1
 167 558 l 2
 156 558 132 559 132 584 c 0
 132 591 135 611 164 611 c 2
 335 611 l 2
 343 611 367 610 367 585 c 0
 367 577 363 559 336 558 c 1
 267 558 l 1
 183 53 l 1
 436 53 l 1
 449 146 449 163 481 163 c 0
 497 163 511 155 511 137 c 0
 511 131 493 23 490 16 c 0
 483 1 470 0 461 -0 c 2
 71 -0 l 2
 44 0 39 16 39 26 c 0
EndSplineSet
EndChar

StartChar: M
Encoding: 77 77 123
Width: 525
Flags: HW
TeX: 611 0
ItalicCorrection: 115
HStem: 0 53<24.3876 82 132 179.631 352.388 409 460 507.631> 558 53<117.554 166 544 600.557>
DStem2: 73.1689 0 123.169 0 0.164359 0.986401<61.9487 564.681> 306 265 338 238 0.43561 0.900136<0 334.426> 400.169 0 451.169 0 0.164359 0.986401<62.113 554.49>
AnchorPoint: "below" 261 0 basechar 0
AnchorPoint: "above" 364 619 basechar 0
LayerCount: 2
Fore
SplineSet
24 26 m 0
 24 52 46 53 58 53 c 2
 82 53 l 1
 166 558 l 1
 149 558 l 2
 121 558 117 576 117 584 c 0
 117 595 124 611 148 611 c 2
 216 611 l 2
 230 611 249 611 255 579 c 0
 270 490 302 313 306 265 c 1
 318 297 429 516 461 578 c 0
 471 597 483 611 508 611 c 2
 570 611 l 2
 594 611 601 595 601 585 c 0
 601 559 579 558 567 558 c 2
 544 558 l 1
 460 53 l 1
 476 53 l 2
 504 53 508 35 508 27 c 0
 508 17 504 0 476 0 c 2
 383 0 l 1
 356 1 352 18 352 26 c 0
 352 52 374 53 386 53 c 2
 409 53 l 1
 488 524 l 1
 491 547 l 1
 477 512 339 240 338 238 c 0
 334 229 321 204 296 204 c 0
 265 204 265 237 256 287 c 0
 221 497 216 523 214 549 c 1
 132 53 l 1
 148 53 l 2
 176 53 180 35 180 27 c 0
 180 17 176 0 148 0 c 2
 55 0 l 1
 28 1 24 18 24 26 c 0
EndSplineSet
EndChar

StartChar: N
Encoding: 78 78 124
Width: 525
Flags: HW
TeX: 611 0
ItalicCorrection: 115
HStem: 0 53<36.4035 105 155 215.561> 558 53<129.554 189 411.421 471 522 590.596>
DStem2: 96.1689 0 146.169 0 0.164359 0.986401<61.9487 564.845> 279 582 238 549 0.206959 -0.97835<23.8002 529.238> 378.669 0 428.168 0 0.164359 0.986401<62.8548 565.587>
AnchorPoint: "below" 262 0 basechar 0
AnchorPoint: "above" 365 619 basechar 0
LayerCount: 2
Fore
SplineSet
36 26 m 0
 36 51 59 53 68 53 c 2
 105 53 l 1
 189 558 l 1
 163 558 l 2
 151 558 129 559 129 584 c 0
 129 595 135 611 160 611 c 2
 240 611 l 2
 255 611 274 609 279 582 c 2
 361 199 l 1
 389 62 l 1
 471 558 l 1
 445 558 l 2
 435 558 411 558 411 584 c 0
 411 595 415 611 444 611 c 2
 559 611 l 2
 587 611 591 593 591 585 c 0
 591 560 568 558 559 558 c 2
 522 558 l 1
 434 35 l 2
 430 13 427 0 400 -0 c 0
 396 0 392 0 388 -0 c 0
 347 0 351 15 328 121 c 2
 238 549 l 1
 155 53 l 1
 183 53 l 2
 192 53 216 52 216 27 c 0
 216 16 211 0 182 0 c 2
 67 0 l 2
 39 0 36 17 36 26 c 0
EndSplineSet
EndChar

StartChar: O
Encoding: 79 79 125
Width: 525
Flags: HW
TeX: 611 0
ItalicCorrection: 115
HStem: -8 53<169.875 373.576> 566 53<246.813 457.24>
VStem: 84 65<66.4639 303.407> 478 63<310.343 546.428>
AnchorPoint: "ogonek" 262 0 basechar 0
AnchorPoint: "below" 262 0 basechar 0
AnchorPoint: "above" 372 619 basechar 0
LayerCount: 2
Fore
SplineSet
84 113 m 0
 84 200 122 411 143 482 c 0
 166 558 189 594 252 610 c 0
 288 619 323 619 364 619 c 2
 381 619 l 2
 512 619 541 590 541 498 c 0
 541 450 536 402 511 261 c 0
 470 27 438 -8 272 -8 c 2
 249 -8 l 2
 112 -8 84 19 84 113 c 0
149 138 m 0
 149 70 164 45 271 45 c 2
 282 45 l 2
 307 45 354 48 383 72 c 0
 449 126 478 452 478 477 c 0
 478 550 452 566 364 566 c 2
 351 566 l 2
 233 566 209 545 174 340 c 0
 153 220 149 178 149 138 c 0
EndSplineSet
EndChar

StartChar: P
Encoding: 80 80 126
Width: 525
Flags: HW
TeX: 611 0
ItalicCorrection: 115
HStem: 0 53<34.4209 109 171 236.579> 253 53<213 409.98> 558 53<127.554 193 255 445.535>
VStem: 493 62<382.257 512.656>
DStem2: 100.169 0 162.169 0 0.164359 0.986401<63.921 266.625 320.383 565.669>
AnchorPoint: "below" 220 0 basechar 0
AnchorPoint: "above" 323 619 basechar 0
LayerCount: 2
Fore
SplineSet
34 26 m 0
 34 52 57 53 68 53 c 2
 109 53 l 1
 193 558 l 1
 159 558 l 2
 147 558 127 561 127 584 c 0
 127 592 131 611 159 611 c 2
 391 611 l 2
 509 611 555 528 555 460 c 0
 555 374 481 253 325 253 c 2
 204 253 l 1
 171 53 l 1
 203 53 l 2
 213 53 237 52 237 27 c 0
 237 4 219 0 203 0 c 2
 67 0 l 2
 58 0 34 1 34 26 c 0
213 306 m 1
 321 306 l 2
 440 306 493 392 493 450 c 0
 493 496 460 558 368 558 c 2
 255 558 l 1
 213 306 l 1
EndSplineSet
EndChar

StartChar: Q
Encoding: 81 81 127
Width: 525
Flags: HW
TeX: 611 138
ItalicCorrection: 115
HStem: -139 21G<379 420.5> -8 53<170.453 302> 566 53<249.123 457.273>
VStem: 84 64<65.9214 305.391> 477 64<308.729 545.097>
AnchorPoint: "below" 224 -222 basechar 0
AnchorPoint: "above" 367 619 basechar 0
LayerCount: 2
Fore
SplineSet
84 114 m 0
 84 177 119 443 163 537 c 0
 199 613 264 619 361 619 c 2
 373 619 l 2
 501 619 541 601 541 497 c 0
 541 431 506 173 464 79 c 0
 440 26 407 13 389 6 c 1
 426 -90 435 -111 435 -121 c 0
 435 -127 432 -139 409 -139 c 2
 393 -139 l 2
 365 -139 370 -138 322 -7 c 1
 293 -8 285 -8 277 -8 c 0
 268 -8 259 -8 250 -8 c 0
 113 -8 84 18 84 114 c 0
148 134 m 0
 148 68 167 45 263 45 c 0
 276 45 289 44 302 45 c 1
 283 100 265 138 265 153 c 0
 265 160 270 171 291 171 c 2
 309 171 l 2
 328 171 324 170 367 60 c 1
 407 81 428 112 465 354 c 0
 469 383 477 434 477 477 c 0
 477 548 454 566 357 566 c 0
 223 566 209 541 168 305 c 0
 150 199 148 169 148 134 c 0
EndSplineSet
EndChar

StartChar: R
Encoding: 82 82 128
Width: 525
Flags: HW
TeX: 611 0
ItalicCorrection: 115
HStem: -8 53<424.078 466.64> -0 53<30.4035 99 161 220.561> 279 53<207 356.175> 558 53<123.539 183 245 404.445>
VStem: 362 61<45.5178 208.843> 379 62<84.1876 256.608> 448 62<398.246 518.203> 480 58<53.4062 119.061>
DStem2: 88.8359 -8 150.836 -8 0.164359 0.986401<72.0313 301.039 354.798 573.779>
AnchorPoint: "below" 220 0 basechar 0
AnchorPoint: "above" 323 619 basechar 0
LayerCount: 2
Fore
SplineSet
30 26 m 0
 30 51 53 53 62 53 c 2
 99 53 l 1
 183 558 l 1
 154 558 l 2
 126 558 123 576 123 584 c 0
 123 597 132 611 152 611 c 2
 339 611 l 2
 453 611 510 541 510 469 c 0
 510 403 466 340 392 303 c 1
 424 279 441 247 441 210 c 0x76
 441 184 423 113 423 80 c 0
 423 59 427 45 442 45 c 0
 469 45 476 98 480 106 c 0
 485 115 494 120 508 120 c 0
 526 120 538 109 538 94 c 0
 538 75 513 -8 442 -8 c 0
 410 -8 362 10 362 85 c 0xb9
 362 123 379 188 379 210 c 0
 379 238 359 279 285 279 c 2
 198 279 l 1
 161 53 l 1x74
 189 53 l 2
 198 53 221 52 221 27 c 0
 221 16 216 0 187 -0 c 2
 62 -0 l 2
 34 0 30 16 30 26 c 0
207 332 m 1
 278 332 l 2
 391 332 448 402 448 460 c 0x32
 448 499 420 558 320 558 c 2
 245 558 l 1
 207 332 l 1
EndSplineSet
EndChar

StartChar: S
Encoding: 83 83 129
Width: 525
Flags: HW
TeX: 611 0
ItalicCorrection: 115
HStem: -8 53<191.7 368.683> 566 53<253.058 414.097>
VStem: 56 85<10.5 162.835> 56 67<0.399487 43.541> 127 58<392.458 502.013> 443 59<116.752 241.173> 477 68<567.112 609.861>
AnchorPoint: "below" 289 0 basechar 0
AnchorPoint: "above" 336 619 basechar 0
LayerCount: 2
Fore
SplineSet
56 18 m 0
 56 25 55 18 81 172 c 0
 84 191 88 203 113 203 c 0
 136 203 143 188 143 178 c 0
 143 171 141 161 141 148 c 0xe0
 141 66 227 45 288 45 c 0
 383 45 443 121 443 182 c 0xe4
 443 222 420 250 392 264 c 0
 369 275 255 297 222 310 c 0
 177 327 127 369 127 439 c 0
 127 530 219 619 336 619 c 0
 421 619 461 583 477 566 c 1
 492 600 497 619 519 619 c 0
 532 619 545 610 545 594 c 0xca
 545 586 545 593 519 436 c 0
 514 410 500 408 488 408 c 2
 487 408 l 2
 431 408 479 468 433 527 c 0
 420 543 395 566 336 566 c 0
 247 566 185 500 185 445 c 0
 185 350 324 357 405 326 c 0
 452 308 502 262 502 188 c 0
 502 90 410 -8 288 -8 c 0
 189 -8 143 27 123 44 c 1xdc
 108 11 104 -8 82 -8 c 0
 68 -8 56 3 56 18 c 0
EndSplineSet
EndChar

StartChar: T
Encoding: 84 84 130
Width: 525
Flags: HW
TeX: 611 0
ItalicCorrection: 115
HStem: -0 53<143.529 240 302 388.532> 464 147<124.453 167.552 529.143 578.99> 558 53<176.537 324 386 529>
VStem: 518 77<473.254 555.774>
DStem2: 231.169 -0 293.169 -0 0.164359 0.986401<63.921 565.669>
AnchorPoint: "below" 261 0 basechar 0
AnchorPoint: "above" 364 619 basechar 0
LayerCount: 2
Fore
SplineSet
108 490 m 0
 108 499 110 507 122 578 c 0
 125 598 128 611 155 611 c 2
 563 611 l 2
 591 611 595 594 595 585 c 0
 595 581 585 522 580 490 c 0
 578 474 568 464 550 464 c 2
 548 464 l 2xd0
 524 464 518 478 518 488 c 0
 518 495 521 510 529 558 c 1
 386 558 l 1
 302 53 l 1
 359 53 l 1
 386 52 389 35 389 27 c 0
 389 19 386 0 357 -0 c 2
 175 -0 l 2
 148 0 143 16 143 26 c 0
 143 36 149 53 174 53 c 2
 240 53 l 1
 324 558 l 1
 180 558 l 1xb0
 168 487 171 464 140 464 c 2xd0
 136 464 l 2
 119 464 108 474 108 490 c 0
EndSplineSet
EndChar

StartChar: U
Encoding: 85 85 131
Width: 525
Flags: HW
TeX: 611 0
ItalicCorrection: 115
HStem: -8 53<210.536 331.416> 558 53<105.42 171 233 307.596 411.439 477 539 613.596>
VStem: 110 61<86.7365 248.403>
DStem2: 76.8431 -8 138.842 -8 0.164359 0.986401<186.861 573.778> 382.677 -8 444.676 -8 0.164359 0.986401<124.124 573.806>
AnchorPoint: "ogonek" 266 0 basechar 0
AnchorPoint: "below" 266 0 basechar 0
AnchorPoint: "above" 364 619 basechar 0
LayerCount: 2
Fore
SplineSet
105 584 m 0
 105 609 129 611 137 611 c 2
 276 611 l 2
 285 611 308 610 308 585 c 0
 308 559 286 558 275 558 c 2
 233 558 l 1
 175 209 l 2
 173 195 171 181 171 165 c 0
 171 97 209 45 266 45 c 0
 326 45 393 103 415 190 c 0
 419 204 421 219 423 234 c 2
 477 558 l 1
 443 558 l 2
 433 558 411 560 411 584 c 0
 411 595 416 611 445 611 c 2
 582 611 l 2
 591 611 614 610 614 585 c 0
 614 559 592 558 581 558 c 0
 567 558 553 558 539 558 c 1
 483 222 l 2
 476 181 466 115 406 55 c 0
 374 23 324 -8 265 -8 c 0
 171 -8 110 69 110 167 c 0
 110 191 113 209 116 227 c 2
 171 558 l 1
 137 558 l 2
 127 558 105 560 105 584 c 0
EndSplineSet
EndChar

StartChar: V
Encoding: 86 86 132
Width: 525
Flags: HW
TeX: 611 0
ItalicCorrection: 115
HStem: -8 21G<235.5 277.5> 558 53<114.461 167.147 229 289.59 428.461 480 534.498 603.59>
DStem2: 229 558 165 558 0.0985653 -0.995131<0 497.823> 342 235 313 23 0.396091 0.918211<-186.577 351.243>
AnchorPoint: "below" 261 0 basechar 0
AnchorPoint: "above" 364 619 basechar 0
LayerCount: 2
Fore
SplineSet
114 584 m 0
 114 593 118 611 147 611 c 2
 258 611 l 2
 286 611 290 593 290 585 c 0
 290 563 274 558 256 558 c 2
 229 558 l 1
 257 261 l 1
 271 97 l 1
 272 62 l 1
 283 92 l 1
 342 235 l 1
 480 558 l 1
 460 558 l 2
 432 558 428 574 428 584 c 0
 428 593 432 611 461 611 c 2
 572 611 l 2
 600 611 604 593 604 585 c 0
 604 563 588 558 570 558 c 2
 544 558 l 1
 541 549 537 541 533 533 c 2
 313 23 l 2
 302 -3 288 -8 267 -8 c 2
 253 -8 l 2
 218 -8 219 14 217 33 c 2
 170 507 l 2
 168 524 167 541 165 558 c 1
 147 558 l 2
 119 558 114 574 114 584 c 0
EndSplineSet
EndChar

StartChar: W
Encoding: 87 87 133
Width: 525
Flags: HW
TeX: 611 0
ItalicCorrection: 115
HStem: -8 21G<144.5 173 345 365.5> 558 53<108.535 141 191 261.364 457.461 519 562.539 609.622>
VStem: 130 50<88 284> 312 58<69.8516 303.307>
DStem2: 418 231 402 22 0.297745 0.954645<-176.879 341.928>
AnchorPoint: "below" 262 0 basechar 0
AnchorPoint: "above" 365 619 basechar 0
LayerCount: 2
Fore
SplineSet
108 584 m 0
 108 593 113 611 141 611 c 2
 232 611 l 2
 256 611 262 595 262 585 c 0
 262 573 253 562 241 559 c 0
 236 558 231 558 226 558 c 2
 191 558 l 1
 185 284 l 1
 180 127 l 1
 178 88 l 1
 176 63 l 1
 185 104 277 335 285 347 c 0
 292 359 304 367 322 367 c 2
 325 367 l 2
 360 367 356 334 359 289 c 0
 367 170 370 119 370 92 c 0
 370 77 369 69 369 61 c 1
 376 92 l 1
 418 231 l 1
 519 558 l 1
 489 558 l 2
 481 558 457 559 457 584 c 0
 457 592 460 611 488 611 c 2
 579 611 l 2
 607 611 610 592 610 585 c 0
 610 576 607 559 579 558 c 1
 569 558 l 1
 568 557 568 554 562 535 c 2
 402 22 l 1
 394 -8 369 -8 362 -8 c 2
 361 -8 l 2
 329 -8 329 17 328 31 c 0
 324 83 312 239 312 291 c 1
 313 305 l 1
 306 276 271 192 203 24 c 0
 196 7 186 -8 160 -8 c 2
 158 -8 l 2
 131 -8 129 11 129 23 c 0
 129 29 130 36 130 42 c 2
 141 558 l 1
 139 558 l 2
 113 558 108 576 108 584 c 0
EndSplineSet
EndChar

StartChar: X
Encoding: 88 88 134
Width: 525
Flags: HW
TeX: 611 0
ItalicCorrection: 115
HStem: 0 53<29.4112 95 162 205.63 325.383 376 445 501.562> 558 53<134.438 191 260 310.539 389.489 432 486.688 564.635>
DStem2: 95 53 162 53 0.55508 0.831797<37.1904 288.469 408.814 607.119> 260 558 191 558 0.343981 -0.938976<0 176.258 290.757 514.085>
AnchorPoint: "below" 261 0 basechar 0
AnchorPoint: "above" 364 619 basechar 0
LayerCount: 2
Fore
SplineSet
29 26 m 0
 29 48 45 53 64 53 c 2
 95 53 l 1
 280 325 l 1
 191 558 l 1
 167 558 l 2
 159 558 134 558 134 584 c 0
 134 593 137 611 166 611 c 2
 279 611 l 2
 307 611 311 594 311 585 c 0
 311 576 307 558 278 558 c 2
 260 558 l 1
 322 393 l 1
 432 558 l 1
 419 558 l 2
 392 558 389 576 389 584 c 0
 389 595 395 611 420 611 c 2
 534 611 l 2
 561 611 565 594 565 585 c 0
 565 574 561 558 534 558 c 2
 519 558 l 2
 498 558 499 557 489 542 c 2
 341 325 l 1
 445 53 l 1
 468 53 l 2
 477 53 502 53 502 27 c 0
 502 16 497 0 469 0 c 2
 357 0 l 2
 330 0 325 16 325 26 c 0
 325 35 328 53 357 53 c 2
 376 53 l 1
 300 263 l 1
 162 53 l 1
 175 53 l 2
 202 53 206 35 206 27 c 0
 206 1 185 0 173 0 c 2
 61 0 l 2
 34 0 29 16 29 26 c 0
EndSplineSet
EndChar

StartChar: Y
Encoding: 89 89 135
Width: 525
Flags: HW
TeX: 611 0
ItalicCorrection: 115
HStem: -0 53<171.404 240 302 361.561> 558 53<114.481 170 238 290.613 428.37 472 540 603.612>
DStem2: 238 558 170 558 0.306205 -0.951965<0 262.861> 231.169 -0 293.169 -0 0.164359 0.986401<63.921 247.228> 313 306 334 244 0.54854 0.836124<0 297.921>
AnchorPoint: "below" 261 0 basechar 0
AnchorPoint: "above" 364 619 basechar 0
LayerCount: 2
Fore
SplineSet
114 584 m 0
 114 594 118 611 147 611 c 2
 259 611 l 2
 269 611 291 610 291 585 c 0
 291 575 287 558 258 558 c 2
 238 558 l 1
 288 401 l 1
 302 354 l 1
 311 321 l 1
 313 306 l 1
 324 333 407 459 472 558 c 1
 459 558 l 2
 432 558 428 575 428 584 c 0
 428 609 449 611 461 611 c 2
 573 611 l 2
 601 611 604 593 604 585 c 0
 604 558 582 558 570 558 c 2
 540 558 l 1
 343 259 l 1
 334 244 l 1
 302 53 l 1
 330 53 l 2
 339 53 362 52 362 27 c 0
 362 16 357 0 328 -0 c 2
 203 -0 l 2
 175 0 171 16 171 26 c 0
 171 51 194 53 203 53 c 2
 240 53 l 1
 271 244 l 1
 170 558 l 1
 147 558 l 2
 133 558 114 561 114 584 c 0
EndSplineSet
EndChar

StartChar: Z
Encoding: 90 90 136
Width: 525
Flags: HW
TeX: 611 0
ItalicCorrection: 115
HStem: -0 53<135 431.516> 558 53<210.796 491>
DStem2: 70 61 135 53 0.646355 0.763037<35.9088 651.345>
AnchorPoint: "below" 265 0 basechar 0
AnchorPoint: "above" 368 619 basechar 0
LayerCount: 2
Fore
SplineSet
52 22 m 0
 52 40 60 49 70 61 c 2
 491 558 l 1
 214 558 l 1
 203 490 205 464 173 464 c 0
 162 464 141 465 141 490 c 0
 141 494 151 553 156 584 c 0
 160 609 176 611 191 611 c 2
 549 611 l 2
 569 611 574 598 574 589 c 0
 574 570 565 561 555 549 c 2
 135 53 l 1
 429 53 l 1
 443 155 447 166 473 166 c 2
 474 166 l 2
 494 166 504 158 504 140 c 0
 504 129 501 118 486 29 c 0
 482 3 469 0 452 -0 c 2
 80 -0 l 2
 64 0 52 4 52 22 c 0
EndSplineSet
EndChar

StartChar: bracketleft
Encoding: 91 91 137
Width: 525
Flags: HW
TeX: 694 83
ItalicCorrection: 115
HStem: -83 53<286 472.596> 641 53<398 593.449>
DStem2: 215.335 -83 277.169 -83 0.164359 0.986401<63.8937 744.177>
LayerCount: 2
Fore
SplineSet
220 -57 m 0
 220 -54 221 -52 221 -49 c 2
 340 666 l 2
 344 692 358 694 375 694 c 2
 561 694 l 2
 589 694 594 679 594 669 c 0
 594 653 585 641 561 641 c 2
 398 641 l 1
 286 -30 l 1
 441 -30 l 2
 450 -30 473 -31 473 -56 c 0
 473 -65 470 -83 440 -83 c 2
 252 -83 l 2
 225 -83 220 -67 220 -57 c 0
EndSplineSet
EndChar

StartChar: backslash
Encoding: 92 92 138
Width: 525
Flags: HW
TeX: 694 83
ItalicCorrection: 115
VStem: 170 286
DStem2: 224 665 175 645 0.308404 -0.951255<-18.1996 757.997>
LayerCount: 2
Fore
SplineSet
170 667 m 0
 170 683 183 694 195 694 c 0
 214 694 220 676 224 665 c 2
 449 -29 l 2
 452 -38 456 -49 456 -57 c 0
 456 -68 448 -83 430 -83 c 0
 410 -83 405 -66 399 -49 c 2
 175 645 l 2
 173 652 170 659 170 667 c 0
EndSplineSet
EndChar

StartChar: bracketright
Encoding: 93 93 139
Width: 525
Flags: HW
TeX: 694 83
ItalicCorrection: 115
HStem: -83 53<32.6044 228> 641 53<153.439 340>
DStem2: 219.169 -83 281.335 -83 0.164359 0.986401<53.7307 734.014>
LayerCount: 2
Fore
SplineSet
32 -58 m 0
 32 -42 42 -30 66 -30 c 2
 228 -30 l 1
 340 641 l 1
 186 641 l 2
 175 641 153 642 153 667 c 0
 153 678 158 694 187 694 c 2
 375 694 l 2
 402 694 406 678 406 669 c 0
 406 666 405 663 405 660 c 2
 286 -55 l 2
 282 -81 268 -83 250 -83 c 2
 65 -83 l 2
 37 -83 32 -68 32 -58 c 0
EndSplineSet
EndChar

StartChar: asciicircum
Encoding: 94 94 140
Width: 525
Flags: HW
TeX: 611 0
ItalicCorrection: 115
HStem: 503 62<300.557 389.82>
LayerCount: 2
Fore
SplineSet
157 463 m 0
 157 480 173 486 184 491 c 0
 320 553 344 565 352 565 c 0
 361 565 360 566 497 491 c 0
 508 485 521 479 521 462 c 0
 521 450 507 428 490 428 c 0
 469 428 363 503 349 503 c 0
 343 503 333 498 207 436 c 0
 200 433 193 428 185 428 c 0
 163 428 157 456 157 463 c 0
EndSplineSet
EndChar

StartChar: underscore
Encoding: 95 95 141
Width: 525
Flags: HW
TeX: 0 90
ItalicCorrection: 115
HStem: -91 61<47.5276 455.821>
LayerCount: 2
Fore
SplineSet
46 -60 m 0
 46 -51 50 -30 84 -30 c 2
 419 -30 l 2
 454 -30 457 -52 457 -60 c 0
 457 -69 454 -91 419 -91 c 2
 83 -91 l 1
 50 -90 46 -68 46 -60 c 0
EndSplineSet
EndChar

StartChar: quoteleft
Encoding: 8216 8216 142
Width: 525
Flags: HW
TeX: 611 0
ItalicCorrection: 115
HStem: 364 108<310.934 372.333>
VStem: 256 130<386.129 459.206>
LayerCount: 2
Fore
SplineSet
256 453 m 0
 256 586 391 680 422 680 c 0
 436 680 448 667 448 654 c 0
 448 637 433 630 423 625 c 0
 372 598 320 543 310 466 c 1
 320 470 329 472 337 472 c 0
 367 472 386 450 386 423 c 0
 386 392 362 364 326 364 c 0
 284 364 256 400 256 453 c 0
EndSplineSet
EndChar

StartChar: a
Encoding: 97 97 143
Width: 525
Flags: HW
TeX: 430 0
ItalicCorrection: 115
HStem: -4 53<159.053 332.562 431.514 526.674> 218 52<240.588 394> 384 53<225.063 377.71>
VStem: 78 62<68.8506 152.303> 147 78<330.774 380.889> 408 61<219.903 354.754>
AnchorPoint: "ogonek" 388 0 basechar 0
AnchorPoint: "affricate-below" 488 -222 basechar 0
AnchorPoint: "affricate-above" 627 611 basechar 0
AnchorPoint: "below" 227 0 basechar 0
AnchorPoint: "above" 300 437 basechar 0
LayerCount: 2
Fore
SplineSet
78 108 m 0
 78 206 203 269 403 270 c 1
 408 299 408 299 408 306 c 0
 408 337 383 384 302 384 c 0
 274 384 246 384 224 377 c 1
 224 374 225 371 225 369 c 0
 225 341 205 326 184 326 c 0
 164 326 147 341 147 363 c 0
 147 390 170 420 213 430 c 0
 242 437 268 437 300 437 c 0
 429 437 469 359 469 306 c 0
 469 283 438 121 430 61 c 1
 449 54 466 53 481 53 c 2
 491 53 l 2
 504 53 528 53 528 27 c 0
 528 17 524 0 495 0 c 2
 475 0 l 1
 422 1 391 6 374 35 c 1
 361 27 314 -4 224 -4 c 0
 140 -4 78 40 78 108 c 0
140 108 m 0
 140 72 179 49 231 49 c 0
 280 49 358 65 376 114 c 0
 379 124 391 197 394 218 c 1
 193 213 140 150 140 108 c 0
EndSplineSet
EndChar

StartChar: b
Encoding: 98 98 144
Width: 525
Flags: HW
TeX: 611 0
ItalicCorrection: 115
HStem: -4 53<225.949 354.799> 382 53<282.468 415.92> 558 53<113.426 193>
VStem: 105 85<21 171.5> 462 61<161.056 332.988>
DStem2: 99.0017 -4 161.003 -4 0.164359 0.986401<30.7628 71.0176 181.422 344.133 403.597 568.15>
AnchorPoint: "affricate-below" 488 -222 basechar 0
AnchorPoint: "affricate-above" 627 611 basechar 0
AnchorPoint: "below" 292 0 basechar 0
AnchorPoint: "above" 393 611 basechar 0
LayerCount: 2
Fore
SplineSet
105 26 m 0
 105 30 105 34 106 38 c 2
 193 558 l 1
 142 558 l 2
 122 558 113 571 113 584 c 0
 113 609 136 611 147 611 c 2
 226 611 l 2
 254 611 258 597 258 587 c 0
 258 574 252 538 226 384 c 1
 258 409 301 435 359 435 c 0
 458 435 523 354 523 252 c 0
 523 106 400 -4 285 -4 c 0
 217 -4 183 37 171 56 c 1
 164 26 167 0 136 0 c 2
 134 0 l 2
 110 0 105 16 105 26 c 0
190 164 m 0
 190 128 207 49 282 49 c 0
 369 49 462 140 462 253 c 0
 462 328 419 382 355 382 c 0
 293 382 231 332 210 279 c 0
 207 270 190 179 190 164 c 0
EndSplineSet
EndChar

StartChar: c
Encoding: 99 99 145
Width: 525
Flags: HW
TeX: 430 0
ItalicCorrection: 115
HStem: -4 53<228.206 379.333> 385 52<282.918 439.669>
VStem: 110 62<105.265 269.704> 437 79<331.663 378.675>
AnchorPoint: "affricate-below" 488 -222 basechar 0
AnchorPoint: "affricate-above" 627 611 basechar 0
AnchorPoint: "below" 297 0 basechar 0
AnchorPoint: "above" 369 437 basechar 0
LayerCount: 2
Fore
SplineSet
110 182 m 0
 110 295 206 437 369 437 c 0
 424 437 516 437 516 371 c 0
 516 335 487 326 474 326 c 0
 455 326 437 341 437 363 c 0
 437 369 438 372 440 379 c 1
 433 381 406 385 375 385 c 0
 228 385 172 255 172 182 c 0
 172 107 223 49 301 49 c 0
 322 49 387 54 422 114 c 0
 429 126 434 134 453 134 c 0
 478 134 484 119 484 109 c 0
 484 90 432 -4 296 -4 c 0
 183 -4 110 81 110 182 c 0
EndSplineSet
EndChar

StartChar: d
Encoding: 100 100 146
Width: 525
Flags: HW
TeX: 611 0
ItalicCorrection: 115
HStem: -4 53<179.273 308.007 433 511.445> 382 53<239.621 373.555> 558 53<375.56 455>
VStem: 72 61<97.9737 268.072>
DStem2: 361.336 -4 423.502 -4 0.164359 0.986401<121.731 295.394 390.392 569.752>
AnchorPoint: "affricate-below" 488 -222 basechar 0
AnchorPoint: "affricate-above" 627 611 basechar 0
AnchorPoint: "below" 274 0 basechar 0
AnchorPoint: "above" 333 611 basechar 0
LayerCount: 2
Fore
SplineSet
72 177 m 0
 72 320 192 435 310 435 c 0
 379 435 415 394 426 381 c 1
 455 558 l 1
 404 558 l 1
 378 559 375 576 375 583 c 0
 375 593 379 611 408 611 c 2
 489 611 l 2
 516 611 521 595 521 585 c 0
 521 578 519 571 518 565 c 2
 441 100 l 2
 438 84 435 69 433 53 c 1
 482 53 l 2
 509 53 513 35 513 27 c 0
 513 16 507 0 482 -0 c 2
 399 -0 l 2
 374 0 367 11 367 26 c 0
 367 34 369 44 371 54 c 1
 340 25 297 -4 236 -4 c 0
 138 -4 72 78 72 177 c 0
133 177 m 0
 133 104 176 49 240 49 c 0
 317 49 383 130 394 192 c 0
 405 260 409 278 409 288 c 0
 409 309 389 382 313 382 c 0
 226 382 133 290 133 177 c 0
EndSplineSet
EndChar

StartChar: e
Encoding: 101 101 147
Width: 525
Flags: HW
TeX: 430 0
ItalicCorrection: 115
HStem: -4 53<215.309 374.086> 195 52<165 443.998> 384 53<262.27 408.591>
VStem: 92 62<112.971 190.679> 444 61<248.26 348.118>
AnchorPoint: "ogonek" 289 0 basechar 0
AnchorPoint: "affricate-below" 488 -222 basechar 0
AnchorPoint: "affricate-above" 627 611 basechar 0
AnchorPoint: "below" 289 0 basechar 0
AnchorPoint: "above" 339 437 basechar 0
LayerCount: 2
Fore
SplineSet
92 185 m 0
 92 306 199 437 339 437 c 0
 410 437 505 403 505 269 c 0
 505 202 494 195 467 195 c 2
 154 195 l 1
 154 187 l 2
 154 102 217 49 293 49 c 0
 343 49 394 72 419 113 c 0
 427 125 432 134 451 134 c 0
 471 134 482 125 482 111 c 0
 482 79 411 -4 288 -4 c 0
 177 -4 92 74 92 185 c 0
165 247 m 1
 443 247 l 1
 444 256 444 263 444 272 c 0
 444 361 389 384 338 384 c 0
 269 384 193 330 165 247 c 1
EndSplineSet
EndChar

StartChar: f
Encoding: 102 102 148
Width: 525
Flags: HW
TeX: 611 0
ItalicCorrection: 115
HStem: 0 53<50.4035 196 258 394.4> 378 53<110.608 250 321 481.436> 562 53<366.699 456>
VStem: 456 74<527.085 562>
DStem2: 187.169 0 249.169 0 0.164359 0.986401<63.921 383.186 447.135 557.5>
AnchorPoint: "affricate-below" 488 -222 basechar 0
AnchorPoint: "affricate-above" 627 611 basechar 0
AnchorPoint: "above" 444 611 basechar 0
AnchorPoint: "below" 217 0 basechar 0
LayerCount: 2
Fore
SplineSet
50 26 m 0
 50 51 73 53 82 53 c 2
 196 53 l 1
 250 378 l 1
 143 378 l 2
 116 378 110 393 110 403 c 0
 110 414 115 431 141 431 c 2
 259 431 l 1
 261 433 267 501 278 525 c 0
 294 560 344 615 441 615 c 2
 448 615 l 2
 519 615 530 584 530 564 c 0
 530 540 513 523 491 523 c 0
 481 523 456 528 456 562 c 1
 436 562 l 2
 376 562 346 527 336 506 c 0
 330 492 329 476 321 431 c 1
 450 431 l 2
 479 431 482 412 482 405 c 0
 482 399 479 378 450 378 c 2
 312 378 l 1
 258 53 l 1
 363 53 l 2
 371 53 395 52 395 27 c 0
 395 19 391 1 363 0 c 1
 83 0 l 2
 56 0 50 16 50 26 c 0
EndSplineSet
EndChar

StartChar: g
Encoding: 103 103 149
Width: 525
Flags: HW
TeX: 430 222
ItalicCorrection: 115
HStem: -227 52<117.412 347.19> 8 50<155.968 400.781> 120 52<201.342 321.553> 355 84<507.239 566.82> 383 52<236.034 356.964>
VStem: 14 52<-134.357 -42> 101 50<62.6526 147.548> 116 61<196.752 323.855> 382 61<232.517 358.307> 432 51<-114.694 -20.4909>
AnchorPoint: "affricate-below" 488 -222 basechar 0
AnchorPoint: "affricate-above" 627 611 basechar 0
AnchorPoint: "below" 229 -222 basechar 0
AnchorPoint: "above" 307 437 basechar 0
LayerCount: 2
Fore
SplineSet
14 -96 m 0
 14 -46 53 15 117 44 c 1
 108 59 101 76 101 99 c 0xf640
 101 131 114 161 135 185 c 1
 122 211 116 228 116 256 c 0
 116 352 204 435 301 435 c 0xed
 340 435 366 424 395 404 c 1
 434 429 475 439 510 439 c 0
 562 439 575 412 575 393 c 0
 575 369 556 355 538 355 c 0
 523 355 508 365 505 386 c 1
 487 384 l 1
 464 379 l 1
 444 372 l 1
 427 364 l 1
 438 340 443 324 443 299 c 0
 443 201 352 120 258 120 c 0
 222 120 196 131 169 148 c 1
 161 135 151 119 151 99 c 0xf680
 151 59 181 58 212 58 c 2
 283 58 l 2
 381 58 483 35 483 -67 c 0
 483 -178 339 -227 228 -227 c 0
 110 -227 14 -175 14 -96 c 0
66 -94 m 0
 66 -143 142 -175 229 -175 c 0
 334 -175 432 -129 432 -67 c 0xe440
 432 -7 371 8 267 8 c 0
 244 8 221 8 198 8 c 0
 98 8 66 -68 66 -94 c 0
177 255 m 0
 177 207 209 172 258 172 c 0
 317 172 382 230 382 300 c 0
 382 348 349 383 300 383 c 0xed80
 239 383 177 324 177 255 c 0
EndSplineSet
EndChar

StartChar: h
Encoding: 104 104 150
Width: 525
Flags: HW
TeX: 611 0
ItalicCorrection: 115
HStem: -0 53<19.5537 108 170 249.532 282.468 373.911 433 512.532> 382 53<284.866 407.397> 558 53<112.404 192>
VStem: 414 62<182.882 375.434>
AnchorPoint: "affricate-below" 488 -222 basechar 0
AnchorPoint: "affricate-above" 627 611 basechar 0
AnchorPoint: "below" 261 0 basechar 0
AnchorPoint: "above" 363 611 basechar 0
LayerCount: 2
Fore
SplineSet
19 26 m 0
 19 34 23 52 50 53 c 1
 108 53 l 1
 192 558 l 1
 142 558 l 2
 122 558 112 571 112 584 c 0
 112 609 135 611 146 611 c 2
 226 611 l 2
 254 611 258 596 258 586 c 0
 258 576 227 391 225 380 c 1
 257 407 301 435 362 435 c 0
 432 435 476 400 476 329 c 0
 476 291 445 134 433 53 c 1
 449 53 465 53 481 53 c 0
 506 53 513 37 513 27 c 0
 513 19 510 0 481 -0 c 2
 314 -0 l 2
 285 0 282 18 282 26 c 0
 282 33 285 52 312 53 c 1
 371 53 l 1
 379 109 414 299 414 329 c 0
 414 360 405 382 357 382 c 0
 284 382 225 321 207 264 c 0
 201 244 170 54 170 53 c 1
 219 53 l 2
 244 53 250 37 250 27 c 0
 250 19 247 0 218 -0 c 2
 51 -0 l 2
 23 0 19 18 19 26 c 0
EndSplineSet
EndChar

StartChar: i
Encoding: 105 105 151
Width: 525
Flags: HW
TeX: 611 0
ItalicCorrection: 115
HStem: -0 53<87.3726 252 314 454.539> 378 53<157.531 306> 525 86<320.747 392.301>
VStem: 313 87<532.963 603.058>
DStem2: 243.169 -0 305.169 -0 0.164359 0.986401<63.921 383.186>
AnchorPoint: "above" 372 591 basechar 0
AnchorPoint: "ogonek" 267 0 basechar 0
AnchorPoint: "affricate-below" 488 -222 basechar 0
AnchorPoint: "affricate-above" 627 611 basechar 0
AnchorPoint: "below" 274 0 basechar 0
LayerCount: 2
Fore
SplineSet
313 565 m 0
 313 591 337 611 359 611 c 0
 379 611 400 595 400 571 c 0
 400 545 376 525 354 525 c 0
 330 525 313 545 313 565 c 0
EndSplineSet
Refer: 71 305 S 1 0 0 1 0 -0 3
EndChar

StartChar: k
Encoding: 107 107 153
Width: 525
Flags: HW
TeX: 611 0
ItalicCorrection: 115
HStem: -0 53<28.6015 122 172 256.371 320.405 385 448 511.614> 378 53<325.577 404 453.145 552.647> 558 53<122.539 206>
DStem2: 113.169 -0 163.169 -0 0.164359 0.986401<61.9487 177.447 222.238 565.669> 199 211 285 222 0.775304 0.631589<0 73.6236 127.66 264.413> 327 256 285 222 0.512004 -0.858983<7.70122 204.07>
AnchorPoint: "affricate-below" 488 -222 basechar 0
AnchorPoint: "affricate-above" 627 611 basechar 0
AnchorPoint: "below" 266 0 basechar 0
AnchorPoint: "above" 367 611 basechar 0
LayerCount: 2
Fore
SplineSet
28 26 m 0
 28 35 33 53 59 53 c 2
 122 53 l 1
 206 558 l 1
 151 558 l 2
 131 558 122 572 122 585 c 0
 122 609 140 611 157 611 c 2
 228 611 l 2
 240 611 260 610 260 584 c 0
 260 579 260 575 259 571 c 2
 199 211 l 1
 404 378 l 1
 354 378 l 2
 332 378 325 393 325 403 c 0
 325 429 348 431 358 431 c 2
 523 431 l 2
 549 431 553 415 553 405 c 0
 553 379 533 378 520 378 c 0
 511 378 502 378 493 378 c 0
 472 378 473 374 458 363 c 0
 353 278 340 266 327 256 c 1
 448 53 l 1
 459 53 470 53 481 53 c 0
 490 53 512 51 512 27 c 0
 512 1 491 0 479 0 c 2
 353 0 l 2
 325 0 320 16 320 26 c 0
 320 53 343 53 355 53 c 2
 385 53 l 1
 285 222 l 1
 176 133 189 152 182 113 c 0
 179 93 175 73 172 53 c 1
 219 53 l 2
 232 53 257 52 257 27 c 0
 257 19 253 0 224 -0 c 2
 62 -0 l 2
 52 0 28 0 28 26 c 0
EndSplineSet
EndChar

StartChar: l
Encoding: 108 108 154
Width: 525
Flags: HW
TeX: 611 0
ItalicCorrection: 115
HStem: -0 53<66.4852 240 302 466.611> 558 53<159.761 324>
DStem2: 231.169 -0 293.169 -0 0.164359 0.986401<63.921 565.669>
AnchorPoint: "affricate-below" 488 -222 basechar 0
AnchorPoint: "affricate-above" 627 611 basechar 0
AnchorPoint: "below" 262 0 basechar 0
AnchorPoint: "above" 363 611 basechar 0
LayerCount: 2
Fore
SplineSet
66 26 m 0
 66 37 72 53 96 53 c 2
 240 53 l 1
 324 558 l 1
 202 558 l 2
 191 558 181 557 173 561 c 0
 165 565 159 572 159 583 c 0
 159 592 164 611 191 611 c 2
 361 611 l 2
 384 611 390 600 390 585 c 0
 390 581 390 576 389 571 c 2
 310 102 l 2
 307 86 304 69 302 53 c 1
 437 53 l 2
 461 53 467 37 467 27 c 0
 467 11 457 0 438 -0 c 2
 98 -0 l 2
 70 0 66 18 66 26 c 0
EndSplineSet
EndChar

StartChar: m
Encoding: 109 109 155
Width: 525
Flags: HW
TeX: 430 0
ItalicCorrection: 115
HStem: 0 53<4.41034 65 115 166.539 185.41 248.96 296 347.539 366.41 429.96 477 528.539> 382 53<69.0186 119 209.275 287.857 388.786 469.354>
VStem: 472 50<193.841 380.009>
DStem2: 56.1689 0 106.169 0 0.164359 0.986401<61.9487 349.173>
AnchorPoint: "affricate-below" 488 -222 basechar 0
AnchorPoint: "affricate-above" 627 611 basechar 0
AnchorPoint: "below" 262 0 basechar 0
AnchorPoint: "above" 334 437 basechar 0
LayerCount: 2
Fore
SplineSet
4 26 m 0
 4 48 20 53 38 53 c 2
 65 53 l 1
 119 378 l 1
 100 378 l 2
 85 378 73 381 68 396 c 0
 67 398 67 400 67 403 c 0
 67 415 75 431 99 431 c 2
 140 431 l 2
 161 431 173 424 173 404 c 2
 173 398 l 1
 193 415 222 435 263 435 c 0
 292 435 322 423 336 380 c 1
 357 403 393 435 444 435 c 0
 475 435 522 419 522 342 c 0
 522 302 490 140 477 53 c 1
 497 53 l 2
 525 53 529 35 529 27 c 0
 529 18 525 0 496 0 c 2
 397 0 l 2
 369 0 366 19 366 26 c 0
 366 48 382 53 400 53 c 2
 427 53 l 1
 435 110 472 307 472 338 c 0
 472 366 464 382 441 382 c 0
 395 382 341 330 325 229 c 2
 296 53 l 1
 316 53 l 2
 343 53 348 37 348 27 c 0
 348 18 344 0 315 0 c 2
 216 0 l 2
 188 0 185 19 185 26 c 0
 185 48 201 53 219 53 c 2
 246 53 l 1
 254 110 291 307 291 338 c 0
 291 364 284 382 260 382 c 0
 214 382 161 329 145 229 c 2
 115 53 l 1
 135 53 l 2
 162 53 167 37 167 27 c 0
 167 18 163 0 134 0 c 2
 35 0 l 2
 7 0 4 19 4 26 c 0
EndSplineSet
EndChar

StartChar: n
Encoding: 110 110 156
Width: 525
Flags: HW
TeX: 430 0
ItalicCorrection: 115
HStem: -0 53<19.5537 108 170 249.532 282.468 373.911 433 512.532> 378 53<82.6627 162 277.599 409.688>
VStem: 108 62<53 95.1296> 414 62<182.882 375.434>
AnchorPoint: "affricate-below" 488 -222 basechar 0
AnchorPoint: "affricate-above" 627 611 basechar 0
AnchorPoint: "below" 261 0 basechar 0
AnchorPoint: "above" 334 437 basechar 0
LayerCount: 2
Fore
SplineSet
19 26 m 0
 19 34 23 52 50 53 c 1
 108 53 l 1
 162 378 l 1
 113 378 l 1
 86 379 82 395 82 403 c 0
 82 411 86 431 114 431 c 2
 196 431 l 2
 222 431 227 420 227 405 c 0
 227 398 226 389 225 380 c 1
 257 407 301 435 362 435 c 0
 432 435 476 400 476 329 c 0
 476 291 445 134 433 53 c 1
 449 53 465 53 481 53 c 0
 506 53 513 37 513 27 c 0
 513 19 510 0 481 -0 c 2
 314 -0 l 2
 285 0 282 18 282 26 c 0
 282 33 285 52 312 53 c 1
 371 53 l 1
 379 109 414 299 414 329 c 0
 414 360 405 382 357 382 c 0
 284 382 225 321 207 264 c 0
 201 244 170 54 170 53 c 1
 219 53 l 2
 244 53 250 37 250 27 c 0
 250 19 247 0 218 -0 c 2
 51 -0 l 2
 23 0 19 18 19 26 c 0
EndSplineSet
EndChar

StartChar: o
Encoding: 111 111 157
Width: 525
Flags: HW
TeX: 430 0
ItalicCorrection: 115
HStem: -4 53<208.118 341.201> 384 53<254.633 392.544>
VStem: 94 63<104.278 276.138> 442 61<164.254 331.935>
AnchorPoint: "ogonek" 263 0 basechar 0
AnchorPoint: "affricate-below" 488 -222 basechar 0
AnchorPoint: "affricate-above" 627 611 basechar 0
AnchorPoint: "below" 263 0 basechar 0
AnchorPoint: "above" 335 437 basechar 0
LayerCount: 2
Fore
SplineSet
94 176 m 0
 94 315 213 437 335 437 c 0
 436 437 503 358 503 256 c 0
 503 119 386 -4 262 -4 c 0
 161 -4 94 75 94 176 c 0
157 187 m 0
 157 102 208 49 271 49 c 0
 365 49 442 160 442 255 c 0
 442 327 395 384 326 384 c 0
 249 384 157 306 157 187 c 0
EndSplineSet
EndChar

StartChar: p
Encoding: 112 112 158
Width: 525
Flags: HW
TeX: 430 222
ItalicCorrection: 115
HStem: -222 53<-15.3495 72 134 214.44> -4 53<227.171 355.799> 378 53<84.5239 164 277.853 422.867>
VStem: 463 61<161.056 332.988>
DStem2: 63.1689 -222 125.169 -222 0.164359 0.986401<63.921 292.107 402.511 565.222>
AnchorPoint: "affricate-below" 488 -222 basechar 0
AnchorPoint: "affricate-above" 627 611 basechar 0
AnchorPoint: "below" 256 -222 basechar 0
AnchorPoint: "above" 365 437 basechar 0
LayerCount: 2
Fore
SplineSet
-16 -197 m 0
 -16 -189 -13 -170 14 -169 c 1
 72 -169 l 1
 164 378 l 1
 114 378 l 1
 87 379 84 395 84 403 c 0
 84 425 99 431 118 431 c 2
 201 431 l 2
 224 431 228 419 228 404 c 0
 228 398 228 391 227 384 c 1
 259 409 302 435 360 435 c 0
 459 435 524 354 524 252 c 0
 524 106 401 -4 286 -4 c 0
 218 -4 184 37 172 56 c 1
 134 -169 l 1
 183 -169 l 2
 211 -169 215 -185 215 -195 c 0
 215 -203 211 -222 182 -222 c 2
 16 -222 l 2
 -11 -222 -16 -207 -16 -197 c 0
191 164 m 0
 191 127 209 49 283 49 c 0
 370 49 463 140 463 253 c 0
 463 328 420 382 356 382 c 0
 294 382 232 332 211 279 c 0
 208 270 191 179 191 164 c 0
EndSplineSet
EndChar

StartChar: q
Encoding: 113 113 159
Width: 525
Flags: HW
TeX: 430 222
ItalicCorrection: 115
HStem: -222 53<262.663 355 417 501.532> -4 53<186.472 324.127> 382 53<251.364 386.929>
VStem: 77 61<100.2 265.313> 425 88<196 414>
DStem2: 346.169 -222 408.169 -222 0.164359 0.986401<63.921 284.876 601.179 649.655>
AnchorPoint: "affricate-below" 488 -222 basechar 0
AnchorPoint: "affricate-above" 627 611 basechar 0
AnchorPoint: "below" 207 -222 basechar 0
AnchorPoint: "above" 317 437 basechar 0
LayerCount: 2
Fore
SplineSet
77 179 m 0
 77 327 206 435 323 435 c 0
 396 435 428 393 445 371 c 1
 452 420 454 435 481 435 c 2
 483 435 l 2
 507 435 513 419 513 409 c 0
 513 405 513 402 512 398 c 2
 417 -169 l 1
 466 -169 l 2
 478 -169 502 -170 502 -195 c 0
 502 -203 499 -222 470 -222 c 2
 294 -222 l 2
 266 -222 262 -206 262 -197 c 0
 262 -187 267 -169 292 -169 c 2
 355 -169 l 1
 393 59 l 1
 363 30 314 -4 249 -4 c 0
 146 -4 77 79 77 179 c 0
138 179 m 0
 138 105 184 49 253 49 c 0
 330 49 425 127 425 265 c 0
 425 304 406 382 327 382 c 0
 237 382 138 291 138 179 c 0
EndSplineSet
EndChar

StartChar: r
Encoding: 114 114 160
Width: 525
Flags: HW
TeX: 430 0
ItalicCorrection: 115
HStem: -0 53<40.3856 165 227 373.401> 377 54<103.551 219 369.932 476>
VStem: 476 74<344.224 381>
DStem2: 156.169 -0 218.169 -0 0.164359 0.986401<63.921 297.802 364.936 383.018>
AnchorPoint: "affricate-below" 488 -222 basechar 0
AnchorPoint: "affricate-above" 627 611 basechar 0
AnchorPoint: "below" 206 0 basechar 0
AnchorPoint: "above" 316 437 basechar 0
LayerCount: 2
Fore
SplineSet
40 26 m 0
 40 48 55 53 73 53 c 2
 165 53 l 1
 219 378 l 1
 138 378 l 1
 138 378 136 377 133 377 c 0
 115 377 103 388 103 403 c 0
 103 413 106 431 136 431 c 2
 254 431 l 2
 278 431 284 422 284 404 c 0
 284 391 280 372 276 350 c 1
 316 390 378 435 463 435 c 0
 539 435 550 403 550 382 c 0
 550 359 534 340 511 340 c 0
 494 340 475 351 476 381 c 1
 471 381 466 382 461 382 c 0
 376 382 269 311 248 179 c 0
 232 78 229 66 227 53 c 1
 343 53 l 2
 350 53 374 52 374 27 c 0
 374 19 370 0 342 -0 c 2
 70 -0 l 1
 43 1 40 18 40 26 c 0
EndSplineSet
EndChar

StartChar: s
Encoding: 115 115 161
Width: 525
Flags: HW
TeX: 430 0
ItalicCorrection: 115
HStem: -4 53<196.061 378.04> 384 53<215.31 406.932>
VStem: 125 53<283.106 350.413> 421 76<301.395 368.949> 427 53<90.4484 172.904>
AnchorPoint: "affricate-below" 488 -222 basechar 0
AnchorPoint: "affricate-above" 627 611 basechar 0
AnchorPoint: "below" 273 0 basechar 0
AnchorPoint: "above" 331 437 basechar 0
LayerCount: 2
Fore
SplineSet
76 21 m 0
 76 27 96 153 100 162 c 0
 105 172 117 177 128 177 c 0
 140 177 151 172 156 161 c 0
 165 142 154 49 272 49 c 0
 391 49 427 101 427 136 c 0xe8
 427 211 258 193 178 234 c 0
 141 253 125 281 125 312 c 0
 125 362 168 437 331 437 c 0
 380 437 413 428 440 411 c 1
 447 423 453 437 471 437 c 0
 484 437 497 428 497 412 c 0
 497 407 481 308 478 301 c 0
 473 290 461 285 449 285 c 0
 434 285 420 294 420 312 c 0
 420 317 421 322 421 328 c 0xf0
 421 374 373 384 328 384 c 0
 203 384 178 335 178 312 c 0
 178 257 335 262 403 234 c 0
 456 212 480 176 480 137 c 0
 480 81 432 -4 272 -4 c 0
 220 -4 178 6 142 41 c 1
 126 6 119 -4 101 -4 c 0
 88 -4 76 6 76 21 c 0
EndSplineSet
EndChar

StartChar: t
Encoding: 116 116 162
Width: 525
Flags: HW
TeX: 552 0
ItalicCorrection: 115
HStem: -4 53<243.149 377.738> 378 53<93.5768 219 290 493.605>
VStem: 174 61<58.3008 230.385> 244 61<431.926 553.217> 405 67<77.528 162.786>
DStem2: 155.518 -4 217.518 -4 0.164359 0.986401<111.087 323.123 451.188 532.181>
AnchorPoint: "affricate-below" 488 -222 basechar 0
AnchorPoint: "affricate-above" 627 611 basechar 0
AnchorPoint: "below" 267 0 basechar 0
AnchorPoint: "above" 279 554 basechar 0
LayerCount: 2
Fore
SplineSet
93 403 m 0
 93 411 96 431 124 431 c 2
 228 431 l 1
 229 432 229 436 244 525 c 0
 247 544 255 554 274 554 c 2
 276 554 l 2
 297 554 305 543 305 527 c 0
 305 518 294 450 290 431 c 1
 463 431 l 2
 491 431 494 414 494 405 c 0
 494 392 488 378 462 378 c 2
 281 378 l 1
 238 119 l 2
 237 111 235 103 235 95 c 0
 235 58 270 49 305 49 c 0
 348 49 393 69 405 107 c 0
 414 134 406 165 440 165 c 2
 442 165 l 2
 466 165 472 150 472 140 c 0
 472 53 401 -4 301 -4 c 0
 197 -4 174 55 174 95 c 0
 174 109 219 377 219 378 c 1
 126 378 l 2
 116 378 93 378 93 403 c 0
EndSplineSet
EndChar

StartChar: u
Encoding: 117 117 163
Width: 525
Flags: HW
TeX: 430 0
ItalicCorrection: 115
HStem: -4 53<183.452 328.341 433 511.76> 378 53<83.5641 163 345.601 425>
VStem: 117 61<56.3195 227.405>
DStem2: 359.506 -4 423.837 -4 0.164359 0.986401<91.2691 387.57>
AnchorPoint: "ogonek" 393 0 basechar 0
AnchorPoint: "affricate-below" 488 -222 basechar 0
AnchorPoint: "affricate-above" 627 611 basechar 0
AnchorPoint: "below" 262 0 basechar 0
AnchorPoint: "above" 334 437 basechar 0
LayerCount: 2
Fore
SplineSet
83 403 m 0
 83 412 86 431 115 431 c 2
 196 431 l 2
 221 431 228 421 228 405 c 0
 228 400 228 395 227 390 c 2
 180 113 l 2
 179 106 178 98 178 91 c 0
 178 65 192 49 249 49 c 0
 316 49 365 88 382 131 c 0
 391 153 399 230 425 378 c 1
 374 378 l 2
 351 378 345 394 345 403 c 0
 345 430 369 431 378 431 c 2
 460 431 l 2
 475 431 491 427 491 403 c 0
 491 399 490 395 490 392 c 2
 439 87 l 1
 433 53 l 1
 483 53 l 2
 510 53 513 35 513 27 c 0
 513 16 509 0 480 0 c 2
 397 0 l 1
 376 1 368 10 368 27 c 2
 368 35 l 1
 336 13 298 -4 245 -4 c 0
 133 -4 117 53 117 91 c 0
 117 117 163 378 163 378 c 1
 113 378 l 1
 86 379 83 395 83 403 c 0
EndSplineSet
EndChar

StartChar: v
Encoding: 118 118 164
Width: 525
Flags: HW
TeX: 430 0
ItalicCorrection: 115
HStem: -4 21G<244 280> 378 53<90.5751 158.375 207 280.596 378.575 442 495 567.613>
DStem2: 207 378 162 337 0.181886 -0.98332<0 339.706> 269 44 317 34 0.459563 0.888145<0.555361 376.145>
AnchorPoint: "affricate-below" 488 -222 basechar 0
AnchorPoint: "affricate-above" 627 611 basechar 0
AnchorPoint: "below" 262 0 basechar 0
AnchorPoint: "above" 330 437 basechar 0
LayerCount: 2
Fore
SplineSet
90 403 m 0
 90 425 106 431 124 431 c 2
 248 431 l 2
 277 431 281 414 281 405 c 0
 281 379 258 378 247 378 c 2
 207 378 l 1
 269 44 l 1
 442 378 l 1
 409 378 l 2
 401 378 378 378 378 403 c 0
 378 425 394 431 412 431 c 2
 536 431 l 2
 563 431 568 415 568 405 c 0
 568 379 546 378 535 378 c 2
 495 378 l 1
 317 34 l 2
 305 11 297 -4 263 -4 c 2
 259 -4 l 2
 229 -4 223 6 218 32 c 2
 162 337 l 2
 155 376 154 378 154 378 c 1
 121 378 l 2
 113 378 90 378 90 403 c 0
EndSplineSet
EndChar

StartChar: w
Encoding: 119 119 165
Width: 525
Flags: HW
TeX: 430 0
ItalicCorrection: 115
HStem: -4 21G<149.5 178.5 334.5 369> 378 53<82.6627 128 179 275.519 383.646 471 521 575.627>
VStem: 128 51<61 378> 135 50<61 378>
DStem2: 361 62 397 27 0.333101 0.942891<0 334.595>
AnchorPoint: "affricate-below" 488 -222 basechar 0
AnchorPoint: "affricate-above" 627 611 basechar 0
AnchorPoint: "below" 261 0 basechar 0
AnchorPoint: "above" 334 437 basechar 0
LayerCount: 2
Fore
SplineSet
82 403 m 0
 82 412 86 431 114 431 c 2
 247 431 l 2
 270 431 276 414 276 405 c 0
 276 397 273 379 245 378 c 1
 179 378 l 1xe0
 183 181 l 1
 185 61 l 1
 191 77 262 228 267 236 c 0
 271 243 283 258 306 258 c 0
 343 258 340 238 354 134 c 0
 361 84 360 76 361 62 c 1
 471 378 l 1
 413 378 l 1
 387 379 383 395 383 403 c 0
 383 411 386 431 415 431 c 2
 544 431 l 2
 572 431 576 415 576 405 c 0
 576 395 572 378 543 378 c 2
 521 378 l 1
 509 341 l 1
 397 27 l 2
 392 12 384 -4 354 -4 c 0
 315 -4 318 10 309 75 c 0
 296 172 296 185 296 197 c 1
 290 175 222 26 212 13 c 0
 199 -4 183 -4 174 -4 c 2
 167 -4 l 2
 132 -4 136 23 135 42 c 2xd0
 128 378 l 1xe0
 113 378 l 2
 86 378 82 394 82 403 c 0
EndSplineSet
EndChar

StartChar: x
Encoding: 120 120 166
Width: 525
Flags: HW
TeX: 430 0
ItalicCorrection: 115
HStem: -0 53<29.4311 127.602 170 219.617 312.304 370 415.837 502.188> 378 53<98.5603 183.756 233 288.58 361.671 409 450.626 550.629>
DStem2: 121 64 170 53 0.675937 0.736959<25.0144 206.24 269.675 424.313> 321 222 291 189 0.522193 -0.852827<-178.994 -45.5307 12.4775 168.095>
AnchorPoint: "affricate-below" 488 -222 basechar 0
AnchorPoint: "affricate-above" 627 611 basechar 0
AnchorPoint: "below" 261 0 basechar 0
AnchorPoint: "above" 334 437 basechar 0
LayerCount: 2
Fore
SplineSet
29 26 m 0
 29 36 34 53 60 53 c 2
 97 53 l 2
 110 53 110 53 121 64 c 0
 264 215 268 217 268 223 c 0
 268 231 266 229 171 378 c 1
 131 378 l 2
 120 378 98 379 98 403 c 0
 98 413 102 431 131 431 c 2
 257 431 l 2
 265 431 289 430 289 405 c 0
 289 394 285 378 256 378 c 2
 233 378 l 1
 303 263 l 1
 409 378 l 1
 392 378 l 2
 364 378 361 395 361 403 c 0
 361 410 364 431 393 431 c 2
 520 431 l 2
 548 431 551 414 551 405 c 0
 551 379 530 378 517 378 c 2
 482 378 l 2
 466 378 463 370 321 222 c 1
 423 64 425 53 440 53 c 2
 469 53 l 2
 479 53 503 53 503 28 c 0
 503 21 500 0 471 -0 c 2
 343 -0 l 2
 315 0 312 17 312 26 c 0
 312 49 329 53 346 53 c 2
 370 53 l 1
 291 189 l 1
 170 53 l 1
 189 53 l 2
 217 53 220 35 220 27 c 0
 220 18 217 0 188 -0 c 2
 61 -0 l 2
 34 0 29 16 29 26 c 0
EndSplineSet
EndChar

StartChar: y
Encoding: 121 121 167
Width: 525
Flags: HW
TeX: 430 222
ItalicCorrection: 115
HStem: -227 54<85.683 150.017> 378 53<92.5751 157 211 281.611 378.576 443 495 568.613>
VStem: 16 77<-169.533 -120.263>
DStem2: 211 378 157 378 0.227993 -0.973663<0 324.611> 240 -10 271 -52 0.462002 0.886879<-182.189 36.346 81.9105 437.895>
AnchorPoint: "affricate-below" 488 -222 basechar 0
AnchorPoint: "affricate-above" 627 611 basechar 0
AnchorPoint: "below" 226 -222 basechar 0
AnchorPoint: "above" 339 437 basechar 0
LayerCount: 2
Fore
SplineSet
16 -163 m 0
 16 -124 47 -113 61 -113 c 0
 80 -113 93 -126 93 -144 c 0
 93 -152 90 -160 85 -170 c 1
 90 -172 96 -173 101 -173 c 0
 164 -173 207 -73 240 -10 c 0
 246 3 244 6 242 15 c 2
 157 378 l 1
 123 378 l 2
 115 378 92 378 92 403 c 0
 92 429 115 431 123 431 c 2
 250 431 l 2
 278 431 282 415 282 405 c 0
 282 378 260 378 246 378 c 2
 211 378 l 1
 272 108 l 1
 281 61 l 1
 294 94 345 189 443 378 c 1
 432 378 421 378 410 378 c 0
 401 378 378 379 378 403 c 0
 378 425 394 431 412 431 c 2
 536 431 l 2
 564 431 569 415 569 405 c 0
 569 379 547 378 536 378 c 2
 495 378 l 1
 491 370 487 362 483 354 c 2
 271 -52 l 2
 256 -81 192 -227 88 -227 c 0
 48 -227 16 -201 16 -163 c 0
EndSplineSet
EndChar

StartChar: z
Encoding: 122 122 168
Width: 525
Flags: HW
TeX: 430 0
ItalicCorrection: 115
HStem: -0 53<132 424.783> 378 53<170.538 444>
DStem2: 60 62 132 53 0.772162 0.635425<49.8769 497.305>
AnchorPoint: "affricate-below" 488 -222 basechar 0
AnchorPoint: "affricate-above" 627 611 basechar 0
AnchorPoint: "below" 254 0 basechar 0
AnchorPoint: "above" 327 437 basechar 0
LayerCount: 2
Fore
SplineSet
37 22 m 0
 37 46 50 54 60 62 c 2
 444 378 l 1
 174 378 l 1
 166 331 168 310 136 310 c 0
 113 310 106 321 106 338 c 0
 106 353 111 373 115 396 c 0
 119 422 125 431 150 431 c 2
 513 431 l 2
 536 431 539 418 539 409 c 0
 539 387 528 378 516 368 c 2
 132 53 l 1
 422 53 l 1
 430 112 432 132 461 132 c 2
 463 132 l 2
 480 132 492 122 492 107 c 0
 492 94 487 72 481 37 c 0
 477 15 476 0 446 -0 c 2
 64 -0 l 2
 51 0 37 4 37 22 c 0
EndSplineSet
EndChar

StartChar: braceleft
Encoding: 123 123 169
Width: 525
Flags: HW
TeX: 694 83
ItalicCorrection: 115
HStem: -83 53<316.946 452.544> 281 51<111.625 242.246> 621 73<409.041 554.338>
VStem: 235 62<-10.8984 156.418> 267 61<90.9177 257.598>
LayerCount: 2
Fore
SplineSet
111 304 m 0
 111 330 136 332 145 332 c 2
 147 332 l 1
 205 333 274 346 293 387 c 0
 303 408 322 570 333 602 c 0
 365 691 497 694 543 694 c 0
 571 694 574 677 574 669 c 0
 574 620 507 657 429 621 c 0
 385 600 392 593 360 403 c 1
 356 373 342 330 281 304 c 1
 281 303 l 1
 319 281 328 253 328 226 c 0xe8
 328 195 297 45 297 19 c 0
 297 -1 316 -27 422 -30 c 0
 435 -30 453 -34 453 -56 c 0
 453 -67 448 -83 424 -83 c 0
 262 -83 235 -23 235 18 c 0xf0
 235 42 267 210 267 225 c 0
 267 283 140 276 128 281 c 0
 115 286 111 297 111 304 c 0
EndSplineSet
EndChar

StartChar: bar
Encoding: 124 124 170
Width: 525
Flags: HW
TeX: 694 83
ItalicCorrection: 115
VStem: 223 63<-81.1581 -1.87826> 341 62<616.878 692.33>
LayerCount: 2
Fore
SplineSet
223 -52 m 0
 223 -46 225 -39 226 -33 c 2
 341 659 l 2
 342 667 346 694 373 694 c 0
 389 694 403 682 403 663 c 0
 403 658 402 653 401 648 c 2
 286 -44 l 2
 285 -49 283 -83 254 -83 c 0
 238 -83 223 -71 223 -52 c 0
EndSplineSet
EndChar

StartChar: braceright
Encoding: 125 125 171
Width: 525
Flags: HW
TeX: 694 83
ItalicCorrection: 115
HStem: -83 53<51.5999 196.414> 280 52<380.258 513.375> 641 53<172.62 311.626>
VStem: 297 61<353.083 520.578> 328 62<453.703 621.893>
LayerCount: 2
Fore
SplineSet
51 -58 m 0xf0
 51 -32 75 -30 83 -30 c 2
 86 -30 l 2
 241 -30 238 44 239 49 c 0
 269 227 263 273 345 307 c 1
 328 318 297 338 297 385 c 0xf0
 297 417 328 556 328 594 c 0
 328 598 328 600 327 602 c 0
 315 632 257 640 203 641 c 0
 177 642 172 657 172 666 c 0
 172 680 180 694 205 694 c 0
 281 694 390 679 390 592 c 0xe8
 390 571 358 401 358 386 c 0
 358 365 376 335 480 332 c 0
 489 332 514 333 514 307 c 0
 514 299 510 284 495 280 c 0
 484 277 366 283 334 227 c 0
 323 208 305 48 295 15 c 0
 273 -61 180 -80 92 -83 c 1
 81 -83 l 1
 55 -82 51 -66 51 -58 c 0xf0
EndSplineSet
EndChar

StartChar: asciitilde
Encoding: 126 126 172
Width: 525
Flags: HW
TeX: 611 0
ItalicCorrection: 115
HStem: 499 57<372.888 473.881> 554 57<234.866 336.112>
LayerCount: 2
Fore
SplineSet
160 526 m 0
 160 547 230 611 289 611 c 0x40
 349 611 383 556 423 556 c 0x80
 468 556 501 611 524 611 c 0x40
 535 611 549 599 549 584 c 0
 549 573 542 565 533 557 c 0
 506 531 465 499 420 499 c 0x80
 360 499 326 554 286 554 c 0x40
 241 554 209 500 186 500 c 0
 170 500 160 515 160 526 c 0
EndSplineSet
EndChar

StartChar: uni00AD
Encoding: 173 173 173
Width: 525
Flags: HW
TeX: 430 0
ItalicCorrection: 115
HStem: 189 53<210.456 384.561>
VStem: 210 175<190.311 241.007>
LayerCount: 2
Fore
SplineSet
210 215 m 0
 210 224 214 242 242 242 c 2
 353 242 l 2
 381 242 385 224 385 216 c 0
 385 205 380 189 351 189 c 2
 242 189 l 2
 214 189 210 206 210 215 c 0
EndSplineSet
EndChar

StartChar: Abreve
Encoding: 258 258 174
Width: 525
Flags: HW
TeX: 819 0
ItalicCorrection: 115
HStem: 0 53<31.3693 94 157 209.627 323.41 385 446.119 501.565> 176 53<229 372> 604 20<345.5 390.5> 646 56<296.914 448.25>
VStem: 213 54<729.206 818.421> 505 54<753.638 818.327>
DStem2: 94 53 157 53 0.377897 0.925848<23.8075 156.582 213.965 558.399> 444 111 372 229 0.0751167 -0.997175<-347.13 -123.075 -69.9243 53.4042>
AnchorPoint: "below" 262 0 basechar 0
AnchorPoint: "above" 395 794 basechar 0
LayerCount: 2
Fore
SplineSet
213 776 m 0
 213 800 218 819 241 819 c 0
 255 819 267 809 267 794 c 2
 267 778 l 2
 267 725 322 702 368 702 c 0
 427 702 490 736 505 793 c 0
 507 799 511 819 533 819 c 0
 547 819 559 809 559 794 c 0
 559 746 490 646 368 646 c 2
 367 646 l 2
 282 646 213 698 213 776 c 0
EndSplineSet
Refer: 111 65 S 1 0 0 1 -0 0 3
AlternateSubs2: "Stilistic set 01 subtable" Abreve.vn
AlternateSubs2: "Latin alternatives subtable" Abreve.vn
Substitution2: "Latin Vietnamese substitutions subtable" Abreve.vn
EndChar

StartChar: Aogonek
Encoding: 260 260 175
Width: 525
Flags: HW
TeX: 611 222
ItalicCorrection: 115
HStem: -231 55<339.796 435.76> 0 53<31.4112 94 157 209.627 323.457 361 446.138 501.628> 176 53<229 372> 604 20G<345.5 388.5>
VStem: 275 56<-166.462 -80.0405>
DStem2: 94 53 157 53 0.377897 0.925848<23.8075 156.582 213.965 558.399> 444 111 372 229 0.0749763 -0.997185<-347.122 -123.066 -69.9154 53.4131>
AnchorPoint: "above" 364 619 basechar 0
LayerCount: 2
Fore
SplineSet
31 26 m 0
 31 48 47 53 66 53 c 2
 94 53 l 1
 314 592 l 2
 322 611 332 624 359 624 c 0
 363 624 367 624 371 624 c 0
 406 624 406 607 408 585 c 2
 444 111 l 2
 445 92 446 72 448 53 c 1
 469 53 l 2
 497 53 502 37 502 27 c 0
 502 -4 469 1 464 -0 c 0
 443 -3 331 -68 331 -129 c 0
 331 -157 357 -176 384 -176 c 0
 435 -176 446 -130 470 -130 c 0
 486 -130 497 -143 497 -156 c 0
 497 -174 449 -231 381 -231 c 0
 324 -231 275 -192 275 -133 c 0
 275 -80 314 -36 361 0 c 1
 349 0 323 0 323 26 c 0
 323 35 326 53 355 53 c 0
 365 53 375 53 385 53 c 1
 376 176 l 1
 207 176 l 1
 157 53 l 1
 178 53 l 2
 206 53 210 37 210 27 c 0
 210 17 206 0 177 0 c 2
 63 0 l 2
 34 0 31 18 31 26 c 0
229 229 m 1
 372 229 l 1
 368 269 354 491 354 535 c 2
 354 550 l 1
 337 501 l 1
 229 229 l 1
EndSplineSet
Ligature2: "Latin ligatures subtable" A uni0328
EndChar

StartChar: Cacute
Encoding: 262 262 176
Width: 525
Flags: HW
TeX: 777 0
ItalicCorrection: 115
HStem: -8 53<221.221 365.742> 566 53<309.633 448.505>
VStem: 85 61<132.922 365.501> 450 62<122.907 196.886> 491 66<405.318 522.554>
AnchorPoint: "below" 286 0 basechar 0
AnchorPoint: "above" 407 781 basechar 0
LayerCount: 2
Fore
SplineSet
323 710 m 0
 323 733 331 732 503 797 c 0
 508 799 515 801 521 801 c 0
 539 801 550 786 550 771 c 0
 550 744 543 746 371 681 c 0
 365 679 357 676 350 676 c 0xe0
 328 676 323 700 323 710 c 0
EndSplineSet
Refer: 113 67 S 1 0 0 1 -0 0 3
EndChar

StartChar: Ccaron
Encoding: 268 268 177
Width: 525
Flags: HW
TeX: 819 0
ItalicCorrection: 115
HStem: -8 53<221.221 365.742> 566 53<309.633 448.505>
VStem: 85 61<132.922 365.501> 450 62<122.907 196.886> 491 66<405.318 522.554>
AnchorPoint: "below" 286 0 basechar 0
AnchorPoint: "above" 409 793 basechar 0
LayerCount: 2
Fore
SplineSet
266 788 m 1
 267 802 279 813 291 813 c 0xe0
 306 813 310 804 400 714 c 1
 411 723 424 732 518 803 c 0
 524 807 531 813 540 813 c 0
 553 813 564 803 564 788 c 0
 564 774 553 766 547 761 c 0
 424 663 411 649 397 649 c 0
 386 649 378 658 373 663 c 0
 272 772 266 773 266 788 c 1
EndSplineSet
Refer: 113 67 S 1 0 0 1 0 -0 3
EndChar

StartChar: Dcaron
Encoding: 270 270 178
Width: 525
Flags: HW
TeX: 819 0
ItalicCorrection: 115
HStem: -0 53<27.4059 94 156 332.497> 558 53<120.535 178 240 411.748>
VStem: 480 62<240.901 475.337>
DStem2: 85.1689 -0 147.169 -0 0.164359 0.986401<63.921 565.669>
AnchorPoint: "below" 219 0 basechar 0
AnchorPoint: "above" 352 801 basechar 0
LayerCount: 2
Fore
SplineSet
218 788 m 1
 219 802 231 813 243 813 c 0
 258 813 262 804 352 714 c 1
 470 803 l 2
 476 807 482 813 491 813 c 0
 504 813 516 803 516 788 c 0
 516 774 504 766 498 761 c 0
 375 663 362 649 348 649 c 0
 337 649 329 658 324 663 c 0
 223 772 218 773 218 788 c 1
EndSplineSet
Refer: 114 68 S 1 0 0 1 0 -0 3
EndChar

StartChar: Ecaron
Encoding: 282 282 179
Width: 525
Flags: HW
TeX: 819 0
ItalicCorrection: 115
HStem: -0 53<34.3876 109 171 452.864> 290 53<220 350> 558 53<127.404 193 255 512>
VStem: 345 56<234.621 288.021> 502 76<481.344 555.774>
DStem2: 100.169 -0 162.169 -0 0.164359 0.986401<63.921 304.272 358.031 565.669>
AnchorPoint: "below" 266 0 basechar 0
AnchorPoint: "above" 399 801 basechar 0
LayerCount: 2
Fore
SplineSet
235 788 m 1
 236 802 248 813 260 813 c 0
 275 813 279 804 369 714 c 1
 487 803 l 2
 493 807 500 813 509 813 c 0
 522 813 533 803 533 788 c 0
 533 774 522 766 516 761 c 0
 393 663 380 649 366 649 c 0
 355 649 347 658 342 663 c 0
 241 772 235 773 235 788 c 1
EndSplineSet
Refer: 115 69 S 1 0 0 1 0 -0 3
EndChar

StartChar: Eogonek
Encoding: 280 280 180
Width: 525
Flags: HW
TeX: 611 222
ItalicCorrection: 115
HStem: -231 55<308.728 404.736> 0 53<34.404 109 171 330 390.915 452.863> 290 53<220 350> 558 53<127.404 193 255 512>
VStem: 244 57<-166.577 -80.3304> 345 56<234.621 288.021> 502 76<481.344 555.774>
DStem2: 61.6785 -231 123.678 -231 0.164359 0.986401<298.106 538.457 592.216 799.854>
AnchorPoint: "above" 354 619 basechar 0
LayerCount: 2
Fore
SplineSet
34 26 m 0
 34 52 57 53 67 53 c 0
 81 53 95 53 109 53 c 1
 193 558 l 1
 160 558 l 2
 150 558 127 559 127 584 c 0
 127 594 131 611 160 611 c 2
 546 611 l 2
 573 611 578 595 578 585 c 0
 578 580 563 487 561 481 c 0
 556 469 543 463 531 463 c 0
 516 463 502 473 502 488 c 0
 502 495 504 510 512 558 c 1
 255 558 l 1
 220 343 l 1
 359 343 l 1
 365 384 365 400 394 400 c 0
 415 400 425 390 425 373 c 1
 425 373 409 257 401 245 c 0
 396 237 388 234 376 234 c 2
 375 234 l 2
 351 234 345 248 345 258 c 0
 345 263 347 272 350 290 c 1
 211 290 l 1
 171 53 l 1
 450 53 l 1
 463 147 465 163 493 163 c 2
 495 163 l 2
 519 163 524 152 524 137 c 0
 524 119 518 86 508 28 c 0
 503 1 490 0 474 0 c 2
 440 0 l 2
 415 0 301 -69 301 -129 c 0
 301 -159 328 -176 354 -176 c 0
 405 -176 416 -129 440 -129 c 0
 454 -129 467 -140 467 -155 c 0
 467 -177 417 -231 351 -231 c 0
 296 -231 244 -191 244 -133 c 0
 244 -71 295 -26 330 0 c 1
 65 0 l 2
 39 0 34 16 34 26 c 0
EndSplineSet
EndChar

StartChar: Gbreve
Encoding: 286 286 181
Width: 525
Flags: HW
TeX: 819 0
ItalicCorrection: 115
HStem: -8 53<207.424 330.759> 0 21G<412.5 439> 213 53<344.579 422 481.34 535.44> 566 53<299.312 457.506> 646 56<302.914 451.253>
VStem: 82 61<123.909 360.073> 219 54<729.206 818.421> 393 63<1.53599 49> 422 63<156.543 213> 511 54<754.05 818.327>
LayerCount: 2
Fore
SplineSet
82 236 m 0
 82 424 206 619 365 619 c 0
 437 619 470 603 486 596 c 1
 502 611 507 619 522 619 c 0
 533 619 547 610 547 597 c 0
 547 581 537 516 534 509 c 0
 529 497 517 491 505 491 c 0
 448 491 513 566 369 566 c 0
 249 566 143 397 143 234 c 0
 143 128 193 45 267 45 c 0
 298 45 376 60 422 213 c 1
 380 213 l 2
 367 213 344 213 344 238 c 0
 344 248 347 266 376 266 c 2
 505 266 l 2
 530 266 536 250 536 240 c 0
 536 232 532 213 503 213 c 2
 485 213 l 1xbec0
 482 196 479 178 456 39 c 0
 454 28 454 0 424 0 c 2x7f40
 421 0 l 2
 404 0 393 10 393 26 c 0x7f40
 393 33 395 41 396 49 c 1
 366 21 324 -8 264 -8 c 0
 155 -8 82 99 82 236 c 0
219 776 m 0
 219 800 224 819 247 819 c 0
 261 819 273 809 273 794 c 2
 273 778 l 2
 273 725 328 702 374 702 c 2
 375 702 l 1
 434 703 496 737 511 793 c 0
 513 799 517 819 539 819 c 0
 553 819 565 810 565 794 c 0x3e40
 565 747 497 646 374 646 c 2
 373 646 l 2
 288 646 219 698 219 776 c 0
EndSplineSet
EndChar

StartChar: Lacute
Encoding: 313 313 182
Width: 525
Flags: HW
TeX: 777 0
ItalicCorrection: 115
HStem: 0 53<39.3876 121 183 438.83> 558 53<132.602 205 267 366.4>
DStem2: 112.169 0 174.169 0 0.164359 0.986401<63.921 565.669>
LayerCount: 2
Fore
SplineSet
168 710 m 0
 168 733 176 732 348 797 c 0
 353 799 360 801 366 801 c 0
 384 801 395 786 395 771 c 0
 395 744 388 746 216 681 c 0
 210 679 202 676 195 676 c 0
 173 676 168 700 168 710 c 0
EndSplineSet
Refer: 122 76 S 1 0 0 1 -0 0 3
EndChar

StartChar: Lcaron
Encoding: 317 317 183
Width: 525
Flags: HW
TeX: 819 0
ItalicCorrection: 115
HStem: 0 53<39.3876 121 183 438.83> 558 53<132.602 205 267 366.4>
VStem: 402 120<596.516 680.015>
DStem2: 112.169 0 174.169 0 0.164359 0.986401<63.921 565.669>
LayerCount: 2
Fore
SplineSet
388 521 m 0
 388 550 422 539 455 586 c 1
 413 586 402 618 402 635 c 0
 402 666 427 694 461 694 c 0
 498 694 522 665 522 628 c 0
 522 560 449 494 414 494 c 0
 398 494 388 509 388 521 c 0
EndSplineSet
Refer: 122 76 S 1 0 0 1 0 0 3
EndChar

StartChar: Lslash
Encoding: 321 321 184
Width: 525
Flags: HW
TeX: 611 0
ItalicCorrection: 115
HStem: -0 53<39.3876 121 183 438.83> 558 53<132.602 205 267 366.4>
DStem2: 106 290 155 258 0.830596 0.556876<-25.3668 21.8315 157.256 303.259> 112.169 -0 174.169 -0 0.164359 0.986401<63.921 261.531 315.453 337.181 392.39 565.669>
LayerCount: 2
Fore
SplineSet
39 26 m 0
 39 52 61 53 73 53 c 0
 89 53 105 53 121 53 c 1
 155 258 l 1
 141 249 125 236 111 236 c 0
 96 236 86 252 86 263 c 0
 86 275 96 283 106 290 c 0
 168 332 166 326 169 343 c 2
 205 558 l 1
 167 558 l 2
 156 558 132 559 132 584 c 0
 132 591 135 611 164 611 c 2
 335 611 l 2
 343 611 367 610 367 585 c 0
 367 577 363 559 336 558 c 1
 267 558 l 1
 237 377 l 1
 345 449 350 455 361 455 c 0
 377 455 387 441 387 428 c 0
 387 410 386 414 239 315 c 0
 226 306 224 305 222 293 c 2
 183 53 l 1
 436 53 l 1
 449 146 449 163 481 163 c 0
 497 163 511 155 511 137 c 0
 511 131 493 23 490 16 c 0
 483 1 470 0 461 -0 c 2
 71 -0 l 2
 44 0 39 16 39 26 c 0
EndSplineSet
EndChar

StartChar: Nacute
Encoding: 323 323 185
Width: 525
Flags: HW
TeX: 777 0
ItalicCorrection: 115
HStem: 0 53<36.4035 105 155 215.561> 558 53<129.554 189 411.421 471 522 590.596>
DStem2: 96.1689 0 146.169 0 0.164359 0.986401<61.9487 564.845> 279 582 238 549 0.206959 -0.97835<23.8002 529.238> 378.669 0 428.168 0 0.164359 0.986401<62.8548 565.587>
LayerCount: 2
Fore
SplineSet
294 710 m 0
 294 733 304 732 474 797 c 0
 479 799 486 801 492 801 c 0
 510 801 521 786 521 771 c 0
 521 744 513 746 341 681 c 0
 335 679 328 676 321 676 c 0
 299 676 294 700 294 710 c 0
EndSplineSet
Refer: 124 78 S 1 0 0 1 -0 -0 3
EndChar

StartChar: Ncaron
Encoding: 327 327 186
Width: 525
Flags: HW
TeX: 819 0
ItalicCorrection: 115
HStem: 0 53<36.4035 105 155 215.561> 558 53<129.554 189 411.421 471 522 590.596>
DStem2: 96.1689 0 146.169 0 0.164359 0.986401<61.9487 564.845> 279 582 238 549 0.206959 -0.97835<23.8002 529.238> 378.669 0 428.168 0 0.164359 0.986401<62.8548 565.587>
LayerCount: 2
Fore
SplineSet
245 788 m 1
 246 802 258 813 270 813 c 0
 285 813 289 804 379 714 c 1
 497 803 l 2
 503 807 509 813 518 813 c 0
 531 813 543 803 543 788 c 0
 543 774 531 766 525 761 c 0
 402 663 389 649 375 649 c 0
 364 649 356 658 351 663 c 0
 250 772 245 773 245 788 c 1
EndSplineSet
Refer: 124 78 S 1 0 0 1 -0 -0 3
EndChar

StartChar: Eng
Encoding: 330 330 187
Width: 525
Flags: HW
TeX: 611 0
ItalicCorrection: 101
HStem: -8 53<332.543 414.291> -0 53<26.3693 90 152 207.58> 558 53<119.403 174> 564 61<307.21 447.692>
VStem: 266 79<72.4673 134.817> 496 62<355.083 513.203>
DStem2: 79.8359 -8 141.836 -8 0.164359 0.986401<72.0313 517.221>
LayerCount: 2
Fore
SplineSet
26 26 m 0
 26 49 43 53 60 53 c 2
 90 53 l 1
 174 558 l 1x6c
 150 558 l 2
 142 558 119 559 119 584 c 0
 119 595 123 611 152 611 c 2
 207 611 l 2x6c
 234 611 240 601 240 586 c 0
 240 580 239 573 238 567 c 1
 275 599 325 625 384 625 c 0
 488 625 558 543 558 442 c 0
 558 422 555 408 553 393 c 2
 510 133 l 1
 496 38 427 -8 371 -8 c 0
 319 -8 266 27 266 89 c 0
 266 134 296 140 308 140 c 0
 328 140 345 126 345 104 c 0
 345 90 340 82 330 72 c 1
 338 53 353 45 369 45 c 0
 396 45 426 69 441 109 c 0
 448 128 447 130 491 392 c 0
 494 408 496 422 496 439 c 0
 496 511 451 564 382 564 c 0x9c
 309 564 241 505 217 430 c 0
 212 414 210 398 207 382 c 2
 152 53 l 1
 176 53 l 2
 184 53 208 52 208 27 c 0
 208 17 204 0 175 -0 c 2
 58 -0 l 2
 30 0 26 16 26 26 c 0
EndSplineSet
EndChar

StartChar: Ohungarumlaut
Encoding: 336 336 188
Width: 525
Flags: HW
TeX: 777 0
ItalicCorrection: 115
HStem: -8 53<142.967 402.934> 566 53<220.999 481.209>
VStem: 73 66<23.5 227.614> 488 65<378.195 585>
AnchorPoint: "below" 262 0 basechar 0
AnchorPoint: "above" 399 781 basechar 0
LayerCount: 2
Fore
SplineSet
73 44 m 0
 73 134 139 518 164 578 c 0
 176 608 199 619 362 619 c 0
 551 619 553 606 553 564 c 0
 553 484 490 101 463 34 c 0
 449 -1 412 -8 270 -8 c 2
 245 -8 l 2
 87 -8 73 3 73 44 c 0
139 85 m 0
 139 53 154 45 271 45 c 0
 405 45 406 59 416 92 c 0
 434 153 488 463 488 528 c 0
 488 559 473 565 369 566 c 1
 346 566 l 2
 222 566 220 552 210 520 c 0
 198 479 139 163 139 85 c 0
233 710 m 0
 233 733 239 731 413 797 c 0
 418 799 425 801 431 801 c 0
 449 801 460 786 460 771 c 0
 460 751 444 744 429 738 c 0
 279 681 267 676 260 676 c 0
 238 676 233 700 233 710 c 0
420 709 m 0
 420 736 434 734 600 797 c 0
 605 799 612 801 618 801 c 0
 636 801 647 786 647 771 c 0
 647 744 639 746 467 681 c 0
 461 679 454 676 447 676 c 0
 431 676 420 693 420 709 c 0
EndSplineSet
EndChar

StartChar: Racute
Encoding: 340 340 189
Width: 525
Flags: HW
TeX: 777 0
ItalicCorrection: 115
HStem: -8 53<424.078 466.64> -0 53<30.4035 99 161 220.561> 279 53<207 356.175> 558 53<123.539 183 245 404.445>
VStem: 362 61<45.5178 208.843> 379 62<84.1876 256.608> 448 62<398.246 518.203> 480 58<53.4062 119.061>
DStem2: 88.8359 -8 150.836 -8 0.164359 0.986401<72.0313 301.039 354.798 573.779>
AnchorPoint: "below" 220 0 basechar 0
AnchorPoint: "above" 351 789 basechar 0
LayerCount: 2
Fore
SplineSet
294 710 m 0
 294 733 302 732 474 797 c 0
 479 799 486 801 492 801 c 0
 510 801 521 786 521 771 c 0
 521 744 513 746 341 681 c 0
 335 679 328 676 321 676 c 0x30
 299 676 294 700 294 710 c 0
EndSplineSet
Refer: 128 82 S 1 0 0 1 -0 -0 3
EndChar

StartChar: Rcaron
Encoding: 344 344 190
Width: 525
Flags: HW
TeX: 819 0
ItalicCorrection: 115
HStem: -8 53<424.078 466.64> -0 53<30.4035 99 161 220.561> 279 53<207 356.175> 558 53<123.539 183 245 404.445>
VStem: 362 61<45.5178 208.843> 379 62<84.1876 256.608> 448 62<398.246 518.203> 480 58<53.4062 119.061>
DStem2: 88.8359 -8 150.836 -8 0.164359 0.986401<72.0313 301.039 354.798 573.779>
AnchorPoint: "below" 220 0 basechar 0
AnchorPoint: "above" 353 801 basechar 0
LayerCount: 2
Fore
SplineSet
205 788 m 1
 206 802 218 813 230 813 c 0x30
 245 813 249 804 339 714 c 1
 350 723 363 732 457 803 c 0
 463 807 470 813 479 813 c 0
 492 813 503 803 503 788 c 0
 503 774 492 766 486 761 c 0
 363 663 350 649 336 649 c 0
 325 649 317 658 312 663 c 0
 211 772 205 773 205 788 c 1
EndSplineSet
Refer: 128 82 S 1 0 0 1 0 -0 3
EndChar

StartChar: Sacute
Encoding: 346 346 191
Width: 525
Flags: HW
TeX: 777 0
ItalicCorrection: 115
HStem: -8 53<191.7 368.683> 566 53<253.058 414.097>
VStem: 56 67<0.399487 43.541> 56 85<10.5 162.835> 127 58<392.458 502.013> 443 59<116.752 241.173> 477 68<567.112 609.861>
AnchorPoint: "below" 289 0 basechar 0
AnchorPoint: "above" 363 781 basechar 0
LayerCount: 2
Fore
SplineSet
263 710 m 0
 263 733 271 732 443 797 c 0
 448 799 455 801 461 801 c 0
 479 801 490 786 490 771 c 0
 490 744 482 746 310 681 c 0
 304 679 297 676 290 676 c 0xc4
 268 676 263 700 263 710 c 0
EndSplineSet
Refer: 129 83 S 1 0 0 1 -0 -0 3
EndChar

StartChar: Scaron
Encoding: 352 352 192
Width: 525
Flags: HW
TeX: 819 0
ItalicCorrection: 115
HStem: -8 53<191.7 368.683> 566 53<253.058 414.097>
VStem: 56 67<0.399487 43.541> 56 85<10.5 162.835> 127 58<392.458 502.013> 443 59<116.752 241.173> 477 68<567.112 609.861>
AnchorPoint: "below" 289 0 basechar 0
AnchorPoint: "above" 365 793 basechar 0
LayerCount: 2
Fore
SplineSet
245 788 m 1
 246 802 258 813 270 813 c 0xc0
 285 813 289 804 379 714 c 1
 390 723 402 732 496 803 c 0
 502 807 509 813 518 813 c 0
 531 813 543 803 543 788 c 0
 543 774 531 766 525 761 c 0
 402 663 389 649 375 649 c 0
 364 649 356 658 351 663 c 0
 250 772 245 773 245 788 c 1
EndSplineSet
Refer: 129 83 S 1 0 0 1 0 -0 3
EndChar

StartChar: Scedilla
Encoding: 350 350 193
Width: 525
Flags: HW
TeX: 611 194
ItalicCorrection: 115
HStem: -204 53<141.514 308.988> -8 21G<75 93> 566 53<253.058 413.877>
VStem: 56 85<10.5 161.812> 56 67<0.399487 43.541> 127 58<393.1 502.013> 328 61<-131.677 -70.3844> 443 59<116.537 241.277> 477 68<567.112 609.861>
LayerCount: 2
Fore
SplineSet
56 18 m 0
 56 25 55 18 81 172 c 0
 84 191 88 203 113 203 c 0
 126 203 143 198 143 177 c 0
 143 169 141 159 141 147 c 0
 141 65 227 45 288 45 c 0
 383 45 443 121 443 182 c 0xf3
 443 222 420 250 392 264 c 0
 369 275 255 297 222 310 c 0
 177 327 127 369 127 439 c 0
 127 530 219 619 336 619 c 0
 420 619 461 583 477 566 c 1
 492 600 497 619 519 619 c 0
 532 619 545 610 545 594 c 0
 545 586 545 593 519 436 c 0
 514 410 500 408 488 408 c 2
 487 408 l 2
 431 408 479 468 433 527 c 0
 420 543 395 566 336 566 c 0
 247 566 185 500 185 445 c 0xe680
 185 427 192 396 230 374 c 0
 244 366 257 363 377 335 c 0
 467 314 502 247 502 188 c 0
 502 95 420 3 308 -8 c 1
 313 -15 l 1
 347 -23 389 -48 389 -98 c 0
 389 -136 366 -176 309 -192 c 0
 269 -204 229 -204 182 -204 c 2
 170 -204 l 2
 146 -204 141 -189 141 -179 c 0
 141 -166 147 -151 173 -151 c 2
 191 -151 l 2xf3
 213 -151 328 -153 328 -100 c 0
 328 -83 313 -68 288 -65 c 0
 280 -64 252 -65 252 -39 c 0
 252 -31 254 -17 261 -7 c 1
 176 0 139 31 123 44 c 1xea
 108 11 104 -8 82 -8 c 0
 68 -8 56 3 56 18 c 0
EndSplineSet
EndChar

StartChar: Tcaron
Encoding: 356 356 194
Width: 525
Flags: HW
TeX: 819 0
ItalicCorrection: 115
HStem: -0 53<143.529 240 302 388.532> 464 147<124.453 167.552 529.143 578.99> 558 53<176.537 324 386 529>
VStem: 518 77<473.254 555.774>
DStem2: 231.169 -0 293.169 -0 0.164359 0.986401<63.921 565.669>
AnchorPoint: "below" 261 0 basechar 0
AnchorPoint: "above" 394 801 basechar 0
LayerCount: 2
Fore
SplineSet
244 788 m 1
 245 802 257 813 269 813 c 0x90
 284 813 288 804 378 714 c 1
 496 803 l 2
 502 807 508 813 517 813 c 0
 530 813 542 803 542 788 c 0
 542 774 531 766 525 761 c 0
 402 663 388 649 374 649 c 0
 363 649 355 658 350 663 c 0
 249 772 244 773 244 788 c 1
EndSplineSet
Refer: 130 84 S 1 0 0 1 0 -0 3
EndChar

StartChar: Tcommaaccent
Encoding: 354 354 195
Width: 525
Flags: HW
TeX: 611 194
ItalicCorrection: 115
HStem: -204 50<114.271 278.344> -0 53<143.547 231 302 388.453> 464 147<124.453 167.552 529.143 578.99> 558 53<176.537 324 386 529>
VStem: 301 62<-132.035 -70.1906> 518 77<473.254 555.774>
DStem2: 197.008 -204 258.674 -204 0.164359 0.986401<196.925 206.813 270.761 772.509>
LayerCount: 2
Fore
SplineSet
108 490 m 0
 108 499 110 507 122 578 c 0
 125 598 128 611 155 611 c 2
 563 611 l 2
 591 611 595 594 595 585 c 0
 595 581 585 522 580 490 c 0
 578 474 568 464 550 464 c 2
 548 464 l 2xec
 524 464 518 478 518 488 c 0
 518 495 521 510 529 558 c 1
 386 558 l 1
 302 53 l 1
 359 53 l 1
 385 52 389 34 389 27 c 0
 389 19 385 1 358 -0 c 1
 293 -0 l 1
 290 -16 l 1
 343 -31 363 -65 363 -98 c 0
 363 -136 340 -175 282 -192 c 0
 243 -203 204 -204 158 -204 c 2
 145 -204 l 2
 138 -204 114 -204 114 -179 c 0
 114 -170 119 -159 130 -154 c 0
 145 -147 301 -164 301 -99 c 0
 301 -82 286 -68 261 -65 c 0
 253 -64 225 -65 225 -38 c 0
 225 -31 227 -23 231 -0 c 1
 173 -0 l 1
 147 1 143 18 143 26 c 0
 143 33 147 53 174 53 c 2
 240 53 l 1
 324 558 l 1
 180 558 l 1xdc
 168 487 171 464 140 464 c 2xec
 136 464 l 2
 119 464 108 474 108 490 c 0
EndSplineSet
EndChar

StartChar: Uhungarumlaut
Encoding: 368 368 196
Width: 525
Flags: HW
TeX: 777 0
ItalicCorrection: 115
HStem: -8 53<210.536 331.416> 558 53<105.42 171 233 307.596 411.439 477 539 613.596>
VStem: 110 61<86.7365 248.403>
DStem2: 76.8431 -8 138.842 -8 0.164359 0.986401<186.861 573.778> 382.677 -8 444.676 -8 0.164359 0.986401<124.124 573.806>
AnchorPoint: "below" 266 0 basechar 0
AnchorPoint: "above" 392 789 basechar 0
LayerCount: 2
Fore
SplineSet
212 710 m 0
 212 733 222 732 392 797 c 0
 397 799 404 801 410 801 c 0
 428 801 439 786 439 771 c 0
 439 744 431 746 259 681 c 0
 253 679 246 676 239 676 c 0
 217 676 212 700 212 710 c 0
431 709 m 0
 431 736 445 734 611 797 c 0
 616 799 623 801 629 801 c 0
 647 801 658 786 658 771 c 0
 658 744 650 746 478 681 c 0
 472 679 465 676 458 676 c 0
 442 676 431 693 431 709 c 0
EndSplineSet
Refer: 131 85 S 1 0 0 1 -0 -0 3
EndChar

StartChar: Uring
Encoding: 366 366 197
Width: 525
Flags: HW
TeX: 819 0
ItalicCorrection: 115
HStem: -8 53<210.536 331.416> 558 53<105.42 171 233 307.596 411.439 477 539 613.596> 593 53<331.163 416.521> 774 54<344.23 431.495>
VStem: 110 61<86.7365 248.403> 263 59<655.084 750.923> 440 59<669.839 765.763>
DStem2: 76.8431 -8 138.842 -8 0.164359 0.986401<186.861 573.778> 382.677 -8 444.676 -8 0.164359 0.986401<124.124 573.806>
LayerCount: 2
Fore
SplineSet
263 691 m 0
 263 761 326 828 400 828 c 0
 454 828 499 789 499 730 c 0
 499 660 434 593 361 593 c 0
 305 593 263 633 263 691 c 0
322 699 m 0
 322 670 342 646 371 646 c 0
 404 646 440 680 440 722 c 0
 440 751 420 774 391 774 c 0xbe
 358 774 322 741 322 699 c 0
EndSplineSet
Refer: 131 85 S 1 0 0 1 0 0 3
EndChar

StartChar: Ydieresis
Encoding: 376 376 198
Width: 525
Flags: HW
TeX: 819 0
ItalicCorrection: 115
HStem: -0 53<171.404 240 302 361.561> 558 53<114.481 170 238 290.613 428.37 472 540 603.612> 733 86<252.747 324.548 457.973 528.548>
VStem: 245 87<740.436 811.037> 450 86<740.679 811.058>
DStem2: 238 558 170 558 0.306205 -0.951965<0 262.861> 231.169 -0 293.169 -0 0.164359 0.986401<63.921 247.228> 313 306 334 244 0.54854 0.836124<0 297.921>
AnchorPoint: "below" 261 0 basechar 0
AnchorPoint: "above" 395 807 basechar 0
LayerCount: 2
Fore
SplineSet
450 773 m 0
 450 796 471 819 496 819 c 0
 516 819 536 803 536 779 c 0
 536 752 512 733 490 733 c 0
 468 733 450 750 450 773 c 0
EndSplineSet
Refer: 57 729 S 1 0 0 1 -94 208 2
Refer: 135 89 S 1 0 0 1 0 -0 3
EndChar

StartChar: Zacute
Encoding: 377 377 199
Width: 525
Flags: HW
TeX: 777 0
ItalicCorrection: 115
HStem: 0 53<135 431.516> 558 53<210.796 491>
DStem2: 70 61 135 53 0.646355 0.763037<35.9088 651.345>
AnchorPoint: "below" 265 0 basechar 0
AnchorPoint: "above" 396 789 basechar 0
LayerCount: 2
Fore
SplineSet
294 710 m 0
 294 733 304 732 474 797 c 0
 479 799 486 801 492 801 c 0
 510 801 521 786 521 771 c 0
 521 744 514 746 342 681 c 0
 336 679 328 676 321 676 c 0
 299 676 294 700 294 710 c 0
EndSplineSet
Refer: 136 90 S 1 0 0 1 -0 0 3
EndChar

StartChar: Zcaron
Encoding: 381 381 200
Width: 525
Flags: HW
TeX: 819 0
ItalicCorrection: 115
HStem: -0 53<135 431.516> 558 53<210.796 491>
DStem2: 70 61 135 53 0.646355 0.763037<35.9088 651.345>
AnchorPoint: "below" 265 0 basechar 0
AnchorPoint: "above" 398 801 basechar 0
LayerCount: 2
Fore
SplineSet
250 788 m 1
 251 802 263 813 275 813 c 0
 290 813 294 804 384 714 c 1
 502 803 l 2
 508 807 514 813 523 813 c 0
 536 813 548 803 548 788 c 0
 548 774 537 766 531 761 c 0
 408 663 394 649 380 649 c 0
 369 649 361 658 356 663 c 0
 255 772 250 773 250 788 c 1
EndSplineSet
Refer: 136 90 S 1 0 0 1 0 -0 3
EndChar

StartChar: IJ
Encoding: 306 306 202
Width: 525
Flags: HW
TeX: 611 0
ItalicCorrection: 115
HStem: -8 53<311.091 384.164> 0 53<19.3439 83 145 198.565> 558 53<112.439 167 229 291.614 417.468 486 548 593.614>
VStem: 244 66<47.8033 119.252>
DStem2: 72.8359 -8 134.836 -8 0.164359 0.986401<72.0313 573.779> 391.005 -8 453.672 -8 0.164359 0.986401<68.3013 573.916>
LayerCount: 2
Fore
SplineSet
19 26 m 0
 19 49 37 53 54 53 c 2
 83 53 l 1x70
 167 558 l 1
 145 558 l 2
 117 558 112 574 112 584 c 0
 112 594 117 611 146 611 c 2
 260 611 l 2
 288 611 292 594 292 585 c 0
 292 560 270 558 261 558 c 2
 229 558 l 1
 145 53 l 1
 167 53 l 2
 195 53 199 37 199 27 c 0
 199 16 194 0 166 0 c 2
 51 0 l 2
 24 0 19 16 19 26 c 0
244 88 m 0
 244 136 275 141 286 141 c 0
 306 141 323 126 323 104 c 0
 323 83 310 78 310 69 c 0
 310 59 326 45 344 45 c 0
 371 45 401 77 412 118 c 0
 415 130 417 143 419 156 c 2
 486 558 l 1xb0
 451 558 l 2
 441 558 417 559 417 584 c 0
 417 592 420 611 449 611 c 2
 561 611 l 2
 579 611 594 606 594 585 c 0
 594 577 592 558 563 558 c 2
 548 558 l 1
 477 132 l 1
 463 38 396 -8 343 -8 c 0
 290 -8 244 30 244 88 c 0
EndSplineSet
Ligature2: "Latin Dutch ligatures subtable" I J
EndChar

StartChar: dcroat
Encoding: 273 273 204
Width: 525
Flags: HW
TeX: 611 0
ItalicCorrection: 115
HStem: -4 53<170.212 321.771 433 511.586> 321 53<222.145 385.056> 439 53<211.576 435 506 585.349> 558 53<375.485 455>
VStem: 68 61<91.2393 229.911>
DStem2: 360.678 -4 423.185 -4 0.164359 0.986401<95.5444 300.757 347.921 449.191 513.14 568.402>
LayerCount: 2
Fore
SplineSet
68 158 m 0
 68 269 172 374 301 374 c 0
 372 374 410 346 419 339 c 1
 435 439 l 1
 243 439 l 2
 220 439 211 451 211 464 c 0
 211 490 234 492 243 492 c 2
 444 492 l 1
 455 558 l 1
 406 558 l 2
 379 558 375 575 375 584 c 0
 375 595 381 611 405 611 c 2
 489 611 l 2
 515 611 521 600 521 586 c 0
 521 577 509 511 506 492 c 1
 548 492 l 2
 549 492 551 493 554 493 c 0
 579 493 586 477 586 467 c 0
 586 459 583 440 556 439 c 1
 497 439 l 1
 433 53 l 1
 482 53 l 2
 510 53 513 34 513 27 c 0
 513 16 508 0 479 -0 c 2
 398 -0 l 2
 374 0 367 10 367 26 c 0
 367 30 367 34 368 38 c 1
 332 14 289 -4 236 -4 c 0
 142 -4 68 62 68 158 c 0
129 158 m 0
 129 92 176 49 240 49 c 0
 292 49 352 77 379 123 c 0
 388 138 406 268 406 268 c 1
 406 289 372 321 304 321 c 0
 214 321 129 245 129 158 c 0
EndSplineSet
AlternateSubs2: "Stilistic set 01 subtable" dcroat.vn
AlternateSubs2: "Latin alternatives subtable" dcroat.vn
Substitution2: "Latin Vietnamese substitutions subtable" dcroat.vn
EndChar

StartChar: section
Encoding: 167 167 205
Width: 525
Flags: HW
TeX: 611 222
ItalicCorrection: 115
HStem: -227 53<160.321 312.039> 562 53<277.039 429.34>
VStem: 80 62<-153.805 -72.8281> 113 50<140.423 240.461> 157 50<402.418 501.902> 382 49<-113.468 -13.1865> 425 50<147.607 248.958> 447 62<461.913 541.805>
LayerCount: 2
Fore
SplineSet
80 -116 m 0
 80 -79 99 -71 112 -71 c 0
 136 -71 142 -93 142 -100 c 2
 142 -114 l 2xe4
 142 -157 190 -174 229 -174 c 0
 317 -174 382 -111 382 -59 c 0
 382 5 285 24 240 41 c 0
 152 74 113 126 113 182 c 0xd4
 113 242 155 303 225 333 c 1
 225 334 l 1
 210 344 157 378 157 445 c 0
 157 543 259 615 361 615 c 0
 444 615 509 571 509 504 c 0
 509 467 489 460 476 460 c 0
 460 460 448 472 447 487 c 0
 446 494 448 502 447 511 c 0xc9
 443 536 414 562 360 562 c 0
 274 562 207 501 207 448 c 0
 207 384 304 364 349 347 c 0
 393 330 475 290 475 206 c 0xca
 475 146 433 86 363 56 c 1
 363 55 l 1
 394 35 431 0 431 -56 c 0
 431 -147 339 -227 228 -227 c 0
 145 -227 80 -183 80 -116 c 0
163 185 m 0
 163 118 288 91 293 91 c 0
 336 91 425 135 425 204 c 0
 425 271 301 298 296 298 c 0xd2
 255 298 163 257 163 185 c 0
EndSplineSet
EndChar

StartChar: abreve
Encoding: 259 259 206
Width: 525
Flags: HW
TeX: 638 0
ItalicCorrection: 115
HStem: -4 53<159.053 332.562 431.514 526.674> 218 52<240.588 394> 384 53<225.063 377.71> 489 55<271.828 449.442>
VStem: 78 62<68.8506 152.303> 147 78<330.774 380.889> 198 53<564.877 638.374> 408 61<219.903 354.754> 490 53<579.923 638.501>
AnchorPoint: "below" 227 0 basechar 0
AnchorPoint: "above" 330 619 basechar 0
LayerCount: 2
Fore
SplineSet
198 600 m 0
 198 621 204 639 226 639 c 0
 243 639 252 625 252 614 c 0
 252 611 251 607 251 603 c 0xfb80
 251 556 317 544 356 544 c 0
 410 544 476 564 490 613 c 0
 492 619 495 639 517 639 c 0
 531 639 543 629 543 613 c 0
 543 567 480 489 354 489 c 0
 264 489 198 533 198 600 c 0
EndSplineSet
Refer: 143 97 S 1 0 0 1 -0 0 3
AlternateSubs2: "Stilistic set 01 subtable" abreve.vn
AlternateSubs2: "Latin alternatives subtable" abreve.vn
Substitution2: "Latin Vietnamese substitutions subtable" abreve.vn
EndChar

StartChar: aogonek
Encoding: 261 261 207
Width: 525
Flags: HW
TeX: 430 222
ItalicCorrection: 115
HStem: -231 55<343.812 437.907> -4 53<158.695 332.562 431.753 526.505> 218 52<239.57 394> 384 53<225.063 377.71>
VStem: 78 62<69.0502 155.511> 147 78<330.992 380.889> 278 57<-166.791 -78.6418> 408 61<219.903 354.754>
AnchorPoint: "above" 300 437 basechar 0
LayerCount: 2
Fore
SplineSet
78 108 m 0
 78 206 203 269 403 270 c 1
 408 299 408 299 408 306 c 0
 408 337 383 384 302 384 c 0
 274 384 246 384 224 377 c 1
 224 374 225 372 225 369 c 0
 225 339 202 326 184 326 c 0
 164 326 147 341 147 363 c 0
 147 390 170 420 213 430 c 0
 242 437 268 437 300 437 c 0
 429 437 469 359 469 306 c 0
 469 283 438 121 430 61 c 1
 455 52 477 53 497 53 c 2
 498 53 l 2
 522 53 528 37 528 27 c 0
 528 18 524 0 496 0 c 2
 474 0 l 2
 445 0 335 -70 335 -129 c 0
 335 -157 360 -176 388 -176 c 0
 439 -176 450 -128 475 -128 c 0
 486 -128 500 -138 501 -154 c 1
 501 -179 447 -231 385 -231 c 0
 329 -231 278 -192 278 -133 c 0
 278 -65 346 -9 389 17 c 1
 384 23 378 28 374 35 c 1
 361 27 314 -4 224 -4 c 0
 140 -4 78 40 78 108 c 0
140 109 m 0
 140 70 181 49 231 49 c 0
 280 49 358 65 376 114 c 0
 379 124 391 197 394 218 c 1
 248 214 140 175 140 109 c 0
EndSplineSet
EndChar

StartChar: ccaron
Encoding: 269 269 209
Width: 525
Flags: HW
TeX: 638 0
ItalicCorrection: 115
HStem: -4 53<228.206 379.333> 385 52<282.918 439.669> 491 65<333.675 392.599>
VStem: 110 62<105.265 269.704> 437 79<331.663 378.675>
AnchorPoint: "below" 297 0 basechar 0
AnchorPoint: "above" 399 619 basechar 0
LayerCount: 2
Fore
SplineSet
224 614 m 0
 224 629 235 639 248 639 c 0
 260 639 260 638 359 556 c 1
 360 556 l 1
 371 564 384 571 477 631 c 0
 482 634 489 639 497 639 c 0
 515 639 521 621 521 614 c 0
 521 600 509 593 503 588 c 0
 370 495 368 491 356 491 c 2
 354 491 l 2
 344 491 342 494 237 590 c 0
 231 596 224 602 224 614 c 0
EndSplineSet
Refer: 145 99 S 1 0 0 1 -0 0 3
EndChar

StartChar: dcaron
Encoding: 271 271 210
Width: 525
Flags: HW
TeX: 611 0
ItalicCorrection: 115
HStem: -4 53<153.736 258.291 367 431.605> 382 53<214.787 320.726> 558 53<323.389 389>
VStem: 60 61<84.2233 268.874> 323 132<559.196 610.217> 474 120<542.849 626.015>
DStem2: 296.017 -4 357.191 -4 0.164359 0.986401<109.317 300.941 401.46 569.64>
LayerCount: 2
Fore
SplineSet
60 171 m 0
 60 315 165 435 270 435 c 0
 325 435 353 402 362 392 c 1
 389 558 l 1
 359 558 l 2
 345 558 323 560 323 584 c 0
 323 610 345 611 356 611 c 2
 425 611 l 2
 446 611 455 600 455 584 c 0
 455 582 454 580 454 577 c 2
 375 100 l 2
 372 84 369 69 367 53 c 1
 403 53 l 2
 429 53 433 36 433 27 c 0
 433 19 430 0 401 -0 c 2
 331 -0 l 1
 308 1 302 11 302 26 c 0
 302 30 302 35 303 40 c 1
 277 17 245 -4 198 -4 c 0
 115 -4 60 73 60 171 c 0
121 169 m 0
 121 100 153 49 201 49 c 0
 275 49 316 143 325 172 c 0
 326 176 344 276 344 294 c 0
 344 329 324 382 273 382 c 0
 203 382 121 287 121 169 c 0
462 467 m 0
 462 495 496 485 527 532 c 1
 485 532 474 564 474 581 c 0
 474 612 500 640 534 640 c 0
 571 640 594 611 594 574 c 0
 594 507 522 440 488 440 c 0
 472 440 462 455 462 467 c 0
EndSplineSet
EndChar

StartChar: ecaron
Encoding: 283 283 211
Width: 525
Flags: HW
TeX: 638 0
ItalicCorrection: 115
HStem: -4 53<215.309 374.086> 195 52<165 443.998> 384 53<262.27 408.591> 491 65<332.675 391.599>
VStem: 92 62<112.971 190.679> 444 61<248.26 348.118>
AnchorPoint: "below" 289 0 basechar 0
AnchorPoint: "above" 369 619 basechar 0
LayerCount: 2
Fore
SplineSet
223 614 m 0
 223 629 234 639 247 639 c 0
 259 639 259 638 358 556 c 1
 359 556 l 1
 370 564 383 571 476 631 c 0
 481 634 488 639 496 639 c 0
 514 639 520 621 520 614 c 0
 520 600 508 593 502 588 c 0
 369 495 367 491 355 491 c 2
 353 491 l 2
 343 491 341 494 236 590 c 0
 230 596 223 602 223 614 c 0
EndSplineSet
Refer: 147 101 S 1 0 0 1 -0 0 3
EndChar

StartChar: eogonek
Encoding: 281 281 212
Width: 525
Flags: HW
TeX: 430 222
ItalicCorrection: 115
HStem: -231 55<246.144 340.834> 195 52<165 443.998> 384 53<260.437 408.207>
VStem: 92 61<111.54 191.087> 181 56<-166.17 -79.5889> 444 61<247.97 348.549>
AnchorPoint: "above" 338 437 basechar 0
LayerCount: 2
Fore
SplineSet
92 185 m 0
 92 315 207 437 338 437 c 0
 409 437 505 404 505 270 c 0
 505 214 498 195 472 195 c 2
 154 195 l 1
 154 192 153 190 153 187 c 0
 153 102 216 49 293 49 c 0
 347 49 395 74 420 114 c 0
 427 126 432 134 451 134 c 0
 474 134 482 121 482 109 c 0
 482 96 466 71 440 48 c 0
 384 -1 295 -23 252 -89 c 0
 244 -101 237 -115 237 -129 c 0
 237 -158 264 -176 291 -176 c 0
 342 -176 351 -129 376 -129 c 0
 390 -129 403 -141 403 -155 c 0
 403 -175 353 -231 287 -231 c 0
 231 -231 181 -191 181 -132 c 0
 181 -80 220 -36 263 -3 c 1
 172 8 92 76 92 185 c 0
165 247 m 1
 443 247 l 1
 444 256 444 263 444 272 c 0
 444 361 389 384 338 384 c 0
 256 384 189 316 165 247 c 1
EndSplineSet
EndChar

StartChar: gbreve
Encoding: 287 287 213
Width: 525
Flags: HW
TeX: 638 222
ItalicCorrection: 115
HStem: -227 52<117.412 347.19> 8 50<155.968 400.781> 120 52<201.342 321.553> 355 84<507.239 566.82> 383 52<236.034 356.964> 489 55<265.296 441.496>
VStem: 14 52<-134.357 -42> 101 50<62.6526 147.548> 116 61<196.752 323.855> 191 54<565.084 638.374> 382 61<232.517 358.307> 432 51<-114.694 -20.4909> 483 54<580.572 638.327>
LayerCount: 2
Fore
SplineSet
191 600 m 0
 191 621 197 639 219 639 c 0
 233 639 245 628 245 613 c 2
 245 604 l 2
 245 556 308 544 349 544 c 0
 403 544 469 564 483 613 c 0
 485 619 489 639 511 639 c 0
 525 639 537 629 537 613 c 0xe648
 537 570 477 489 348 489 c 0
 258 489 191 533 191 600 c 0
EndSplineSet
Refer: 149 103 S 1 0 0 1 -0 0 3
EndChar

StartChar: lacute
Encoding: 314 314 214
Width: 525
Flags: HW
TeX: 777 0
ItalicCorrection: 115
HStem: -0 53<66.4852 240 302 466.611> 558 53<159.761 324>
DStem2: 231.169 -0 293.169 -0 0.164359 0.986401<63.921 565.669>
LayerCount: 2
Fore
SplineSet
276 710 m 0
 276 733 286 732 456 797 c 0
 461 799 468 801 474 801 c 0
 492 801 503 786 503 771 c 0
 503 744 495 746 323 681 c 0
 317 679 310 676 303 676 c 0
 281 676 276 700 276 710 c 0
EndSplineSet
Refer: 154 108 S 1 0 0 1 -0 -0 3
EndChar

StartChar: lcaron
Encoding: 318 318 215
Width: 525
Flags: HW
TeX: 611 0
ItalicCorrection: 115
HStem: 0 53<66.4852 240 302 466.611> 440 52<427.601 503.516> 558 53<159.761 324>
VStem: 471 119<540.147 625.692>
DStem2: 231.169 0 293.169 0 0.164359 0.986401<63.921 565.669>
LayerCount: 2
Fore
SplineSet
427 467 m 0
 427 492 457 492 457 492 c 1
 485 496 504 510 522 532 c 1
 491 532 471 553 471 581 c 0
 471 611 496 640 530 640 c 0
 564 640 590 613 590 574 c 0
 590 508 520 440 455 440 c 0
 435 440 427 456 427 467 c 0
EndSplineSet
Refer: 154 108 S 1 0 0 1 0 0 3
EndChar

StartChar: lslash
Encoding: 322 322 216
Width: 525
Flags: HW
TeX: 611 0
ItalicCorrection: 115
HStem: -0 53<66.4852 240 302 466.611> 558 53<159.461 324>
DStem2: 231.169 -0 293.169 -0 0.164359 0.986401<63.921 286.848 342.289 344.714 417.708 564.16> 276 345 278 283 0.830807 0.55656<-168.863 -32.8451 101.512 238.869>
AnchorPoint: "above" 303 611 basechar 0
LayerCount: 2
Fore
SplineSet
66 26 m 0
 66 37 72 53 96 53 c 2
 240 53 l 1
 278 283 l 1
 179 217 173 211 162 211 c 0
 146 211 136 224 136 237 c 0
 136 254 137 250 276 345 c 0
 295 358 288 342 324 558 c 1
 191 558 l 2
 163 558 159 575 159 584 c 0
 159 593 163 611 192 611 c 2
 357 611 l 2
 382 611 390 601 390 585 c 0
 390 576 390 584 360 402 c 1
 448 461 465 475 477 475 c 0
 492 475 503 460 503 448 c 0
 503 434 490 425 484 421 c 2
 348 330 l 1
 302 53 l 1
 437 53 l 2
 461 53 467 37 467 27 c 0
 467 11 457 0 438 -0 c 2
 98 -0 l 2
 70 0 66 18 66 26 c 0
EndSplineSet
EndChar

StartChar: ncaron
Encoding: 328 328 218
Width: 525
Flags: HW
TeX: 638 0
ItalicCorrection: 115
HStem: 0 53<19.5537 108 170 249.532 282.468 373.911 433 512.532> 378 53<82.6627 162 277.599 409.688> 491 65<277.675 336.599>
VStem: 108 62<53 95.1296> 414 62<182.882 375.434>
LayerCount: 2
Fore
SplineSet
168 614 m 0
 168 629 179 639 192 639 c 0
 204 639 204 638 303 556 c 1
 304 556 l 1
 315 564 328 571 421 631 c 0
 426 634 433 639 441 639 c 0
 459 639 465 621 465 614 c 0
 465 600 453 593 447 588 c 0
 314 495 312 491 300 491 c 2
 298 491 l 2
 288 491 286 494 181 590 c 0
 175 596 168 602 168 614 c 0
EndSplineSet
Refer: 156 110 S 1 0 0 1 -0 0 3
EndChar

StartChar: eng
Encoding: 331 331 219
Width: 525
Flags: HW
TeX: 430 222
ItalicCorrection: 115
HStem: -226 108<260.779 320.063> -0 53<19.6007 108 170 249.608> 378 53<82.5641 162 276.884 407.975>
VStem: 414 62<183.312 374.821>
DStem2: 61.5116 -226 123.512 -226 0.164359 0.986401<293.037 563.771> 324.51 -226 386.676 -226 0.164359 0.986401<72.5733 560.341>
AnchorPoint: "affricate-below" 488 -222 basechar 0
AnchorPoint: "affricate-above" 627 611 basechar 0
AnchorPoint: "below" 224 -222 basechar 0
AnchorPoint: "above" 334 437 basechar 0
LayerCount: 2
Fore
SplineSet
19 26 m 0
 19 33 23 52 50 53 c 1
 108 53 l 1
 162 378 l 1
 113 378 l 2
 86 378 82 395 82 403 c 0
 82 411 85 431 114 431 c 2
 196 431 l 2
 222 431 228 420 228 406 c 0
 228 398 226 389 225 380 c 1
 254 405 300 435 362 435 c 2
 363 435 l 1
 434 434 476 399 476 329 c 0
 476 309 472 288 469 268 c 2
 424 -2 l 2
 405 -111 383 -226 310 -226 c 0
 277 -226 245 -201 245 -164 c 0
 245 -127 274 -118 287 -118 c 0
 297 -118 319 -122 324 -154 c 1
 338 -121 348 -84 366 23 c 2
 408 279 l 2
 410 291 414 310 414 328 c 0
 414 360 403 382 357 382 c 0
 284 382 225 321 207 264 c 0
 201 244 173 74 170 53 c 1
 219 53 l 2
 244 53 250 37 250 27 c 0
 250 1 228 0 217 -0 c 2
 52 -0 l 2
 43 0 19 1 19 26 c 0
EndSplineSet
EndChar

StartChar: rcaron
Encoding: 345 345 222
Width: 525
Flags: HW
TeX: 638 0
ItalicCorrection: 115
HStem: 0 53<40.3856 165 227 373.401> 377 54<103.551 219 369.932 476> 491 65<353.675 412.599>
VStem: 476 74<344.224 381>
DStem2: 156.169 0 218.169 0 0.164359 0.986401<63.921 297.802 364.936 383.018>
AnchorPoint: "below" 206 0 basechar 0
AnchorPoint: "above" 347 621 basechar 0
LayerCount: 2
Fore
SplineSet
244 614 m 0
 244 629 255 639 268 639 c 0
 280 639 280 638 379 556 c 1
 380 556 l 1
 391 564 404 571 497 631 c 0
 502 634 509 639 517 639 c 0
 535 639 541 621 541 614 c 0
 541 600 529 593 523 588 c 0
 390 495 388 491 376 491 c 2
 374 491 l 2
 364 491 362 494 257 590 c 0
 251 596 244 602 244 614 c 0
EndSplineSet
Refer: 160 114 S 1 0 0 1 -0 0 3
EndChar

StartChar: sacute
Encoding: 347 347 223
Width: 525
Flags: HW
TeX: 611 0
ItalicCorrection: 115
HStem: -4 53<196.982 384.696> 384 53<214.011 406.767> 496 139
VStem: 125 53<284.432 353.541> 261 224 420 77<301.395 368.949> 420 58<285.724 368.949> 427 53<86.5137 172.223>
AnchorPoint: "below" 273 0 basechar 0
AnchorPoint: "above" 361 615 basechar 0
LayerCount: 2
Fore
SplineSet
75 21 m 0
 75 27 96 153 100 162 c 0
 105 172 117 177 128 177 c 0
 140 177 151 172 156 161 c 0
 165 142 153 49 274 49 c 0
 363 49 407 72 423 114 c 0
 426 121 427 128 427 136 c 0xf1
 427 188 334 198 319 200 c 0
 254 211 125 221 125 312 c 0
 125 356 155 402 214 422 c 0
 251 435 288 437 328 437 c 0
 395 437 422 423 440 411 c 1
 446 422 453 437 471 437 c 0
 484 437 497 428 497 412 c 0xf4
 497 407 481 308 478 301 c 0xf2
 473 290 461 285 449 285 c 0
 434 285 420 293 420 312 c 2
 420 328 l 2
 420 374 374 384 328 384 c 2
 324 384 l 2xf4
 208 384 178 342 178 314 c 0
 178 255 330 264 403 234 c 0
 456 212 480 176 480 137 c 0
 480 92 451 45 407 22 c 0
 361 -3 306 -4 272 -4 c 0
 209 -4 172 12 142 41 c 1
 126 7 119 -4 101 -4 c 0
 88 -4 75 6 75 21 c 0
EndSplineSet
Refer: 48 180 S 1 0 0 1 -33 0 2
EndChar

StartChar: scaron
Encoding: 353 353 224
Width: 525
Flags: HW
TeX: 638 0
ItalicCorrection: 115
HStem: -4 53<196.982 384.696> 384 53<214.011 406.767> 491 65<313.7 372.599>
VStem: 125 53<285.565 353.541> 420 77<296.875 368.949> 420 61<285.739 368.935> 427 53<86.7416 173.298>
AnchorPoint: "below" 273 0 basechar 0
AnchorPoint: "above" 361 619 basechar 0
LayerCount: 2
Fore
SplineSet
75 21 m 0
 75 27 96 153 100 162 c 0
 105 172 117 177 128 177 c 0
 140 177 151 172 156 161 c 0
 165 142 153 49 274 49 c 0
 363 49 407 72 423 114 c 0
 426 121 427 128 427 136 c 0xf2
 427 239 125 166 125 312 c 0
 125 356 155 402 214 422 c 0
 251 435 288 437 328 437 c 0
 395 437 422 423 440 411 c 1
 446 422 453 437 471 437 c 0
 484 437 497 427 497 413 c 0xf8
 497 402 492 379 481 313 c 0xf4
 476 288 463 285 451 285 c 2
 450 285 l 2
 433 285 420 292 420 312 c 2
 420 328 l 2xf8
 420 374 374 384 328 384 c 2
 324 384 l 2
 208 384 178 342 178 314 c 0
 178 255 330 265 403 234 c 0
 459 211 480 172 480 137 c 0
 480 115 470 54 407 22 c 1
 361 -3 306 -4 272 -4 c 0
 209 -4 172 12 142 41 c 1
 126 6 119 -4 101 -4 c 0
 88 -4 75 6 75 21 c 0
204 614 m 0xf0
 204 629 216 639 229 639 c 0
 241 639 240 638 339 556 c 1
 340 556 l 1
 351 564 364 571 457 631 c 0
 462 634 469 639 477 639 c 0
 495 639 502 621 502 614 c 0
 502 600 489 593 483 588 c 0
 350 495 348 491 336 491 c 2
 334 491 l 2
 324 491 323 494 218 590 c 0
 212 596 204 602 204 614 c 0xf0
EndSplineSet
EndChar

StartChar: scedilla
Encoding: 351 351 225
Width: 525
Flags: HW
TeX: 430 194
ItalicCorrection: 115
HStem: -204 53<107.461 292.84> -4 21G<95.5 112> 384 53<211.304 406.767>
VStem: 75 67<2.90429 39.6833> 125 53<284.455 353.524> 315 62<-129.117 -71.6855> 420 77<301.395 368.949> 420 58<285.843 368.949> 427 53<86.3459 171.817>
LayerCount: 2
Fore
SplineSet
75 21 m 0
 75 27 96 153 100 162 c 0
 105 172 117 177 128 177 c 0
 140 177 151 172 156 161 c 0
 163 146 156 59 252 50 c 0
 253 50 277 49 289 49 c 0
 395 49 427 101 427 136 c 0xf480
 427 188 333 198 319 200 c 0
 251 212 125 221 125 312 c 0
 125 356 156 402 214 422 c 0
 251 435 288 437 328 437 c 0
 395 437 422 423 440 411 c 1
 446 422 453 437 471 437 c 0
 484 437 497 428 497 412 c 0xee
 497 407 481 308 478 301 c 0xe5
 473 290 462 285 450 285 c 0
 439 285 420 290 420 312 c 2
 420 328 l 2xe6
 420 374 374 384 328 384 c 2
 320 384 l 2
 207 384 178 342 178 314 c 0
 178 271 266 263 337 251 c 0
 450 232 480 183 480 137 c 0
 480 93 454 5 295 -4 c 1
 294 -15 l 1
 371 -32 377 -81 377 -98 c 0
 377 -198 239 -204 152 -204 c 2xec80
 136 -204 l 2
 119 -204 107 -194 107 -178 c 0
 107 -170 110 -151 138 -151 c 2
 153 -151 l 1
 197 -150 315 -152 315 -99 c 0
 315 -81 296 -67 262 -64 c 0
 255 -63 229 -65 229 -39 c 0
 229 -33 231 -23 234 -2 c 1
 176 7 149 34 142 41 c 1
 129 12 122 -4 102 -4 c 0
 89 -4 75 5 75 21 c 0
EndSplineSet
EndChar

StartChar: tcaron
Encoding: 357 357 226
Width: 525
Flags: HW
TeX: 611 0
ItalicCorrection: 115
HStem: -4 53<240.194 376.44> 378 53<93.5768 219 290 494.322> 437 21G<436 467.5>
VStem: 173 62<57.2133 230.889> 244 61<432.332 553.124> 405 67<76.3061 162.784> 446 120<539.182 622.369>
DStem2: 155.349 -4 217.838 -4 0.164359 0.986401<162.97 387.267 451.215 546.802>
LayerCount: 2
Fore
SplineSet
93 403 m 0
 93 411 96 431 124 431 c 2
 228 431 l 1
 229 432 229 434 244 525 c 0
 247 543 255 554 274 554 c 2
 275 554 l 2
 298 554 305 544 305 526 c 0
 305 514 295 459 290 431 c 1
 463 431 l 2
 486 431 495 419 495 406 c 0
 495 398 491 378 462 378 c 2
 281 378 l 1
 238 117 l 2
 237 109 235 100 235 92 c 0
 235 66 250 49 303 49 c 0
 370 49 398 86 405 107 c 0xfc
 414 134 406 165 440 165 c 2
 442 165 l 2
 464 165 472 154 472 138 c 0
 472 52 400 -4 299 -4 c 0
 191 -4 173 53 173 91 c 0
 173 115 219 378 219 378 c 1
 126 378 l 2
 116 378 93 378 93 403 c 0
417 464 m 0
 417 499 458 476 497 529 c 1
 466 529 446 550 446 578 c 0
 446 607 469 637 504 637 c 0
 543 637 566 606 566 571 c 0xfa
 566 502 491 437 444 437 c 0
 428 437 417 452 417 464 c 0
EndSplineSet
EndChar

StartChar: tcommaaccent
Encoding: 355 355 227
Width: 525
Flags: HW
TeX: 552 194
ItalicCorrection: 115
HStem: -204 53<131.552 343.329> -64 114<272.777 331.283> -3 53<239.883 272 334 375.818> 378 53<93.5768 219 290 493.605>
VStem: 173 62<57.0674 229.814> 244 61<431.925 553.209> 367 62<-127.872 -73.6311> 400 72<72.1725 159.669>
DStem2: 122.019 -204.034 184.674 -204.034 0.164359 0.986401<364.334 590.059 654.007 750.663>
LayerCount: 2
Fore
SplineSet
93 403 m 0
 93 411 96 431 124 431 c 2
 228 431 l 1
 229 432 229 436 244 525 c 0
 247 543 255 554 274 554 c 2
 276 554 l 2
 298 554 305 543 305 527 c 0
 305 517 294 450 290 431 c 1
 463 431 l 2
 491 431 494 414 494 405 c 0
 494 392 488 378 462 378 c 2
 281 378 l 1
 237 110 l 2
 236 104 235 98 235 92 c 0
 235 57 263 50 300 50 c 2
 308 50 l 1
 368 51 393 82 400 95 c 0
 416 124 400 165 442 165 c 2
 444 165 l 2
 465 165 472 150 472 141 c 0xdd
 472 108 459 16 334 -2 c 1
 332 -14 l 1
 423 -27 429 -81 429 -98 c 0
 429 -209 244 -204 178 -204 c 2
 162 -204 l 2
 135 -204 131 -188 131 -179 c 0
 131 -153 153 -151 163 -151 c 0xde
 173 -151 183 -151 193 -151 c 0
 233 -151 367 -151 367 -100 c 0
 367 -82 344 -66 299 -64 c 0xde
 274 -63 267 -54 267 -38 c 0
 267 -28 270 -17 272 -3 c 1xbe
 186 7 173 59 173 92 c 0
 173 108 210 328 219 378 c 1
 126 378 l 2
 116 378 93 378 93 403 c 0
EndSplineSet
EndChar

StartChar: uring
Encoding: 367 367 229
Width: 525
Flags: HW
TeX: 638 0
ItalicCorrection: 115
HStem: -4 53<183.452 328.341 433 511.76> 378 53<83.5641 163 345.601 425> 473 36<312.631 386.312> 612 35<323.626 397.905>
VStem: 117 61<56.3195 227.405> 247 58<514.435 597.067> 406 58<524.803 606.065>
DStem2: 359.506 -4 423.837 -4 0.164359 0.986401<91.2691 387.57>
LayerCount: 2
Fore
SplineSet
247 549 m 0
 247 595 299 647 370 647 c 0
 422 647 464 616 464 571 c 0
 464 520 407 473 341 473 c 0
 289 473 247 504 247 549 c 0
305 552 m 0
 305 528 322 509 347 509 c 0
 373 509 406 534 406 569 c 0
 406 593 388 612 363 612 c 0
 330 612 305 581 305 552 c 0
EndSplineSet
Refer: 163 117 S 1 0 0 1 -0 0 3
EndChar

StartChar: ydieresis
Encoding: 255 255 230
Width: 525
Flags: HW
TeX: 611 222
ItalicCorrection: 115
HStem: -227 54<85.683 150.017> 378 53<92.5751 157 211 281.611 378.576 443 495 568.613> 525 85<218.833 291.814> 525 86<423.549 494.548>
VStem: 16 77<-169.533 -120.263> 212 87<532.942 602.617> 416 86<532.679 603.615>
DStem2: 211 378 157 378 0.227993 -0.973663<0 324.611> 240 -10 271 -52 0.462002 0.886879<-182.189 36.346 81.9105 437.895>
AnchorPoint: "below" 226 -222 basechar 0
AnchorPoint: "above" 366 597 basechar 0
LayerCount: 2
Fore
SplineSet
416 565 m 0xde
 416 590 438 611 461 611 c 0
 483 611 502 595 502 571 c 0
 502 544 478 525 456 525 c 0
 434 525 416 542 416 565 c 0xde
EndSplineSet
Refer: 403 183 S 1 0 0 1 -43 348 2
Refer: 167 121 S 1 0 0 1 0 0 3
EndChar

StartChar: zcaron
Encoding: 382 382 232
Width: 525
Flags: HW
TeX: 638 0
ItalicCorrection: 115
HStem: 0 53<132 424.783> 378 53<170.538 444> 491 65<323.7 382.599>
DStem2: 60 62 132 53 0.772162 0.635425<49.8769 497.305>
AnchorPoint: "below" 254 0 basechar 0
AnchorPoint: "above" 358 625 basechar 0
LayerCount: 2
Fore
SplineSet
214 614 m 0
 214 629 226 639 239 639 c 0
 251 639 250 638 349 556 c 1
 350 556 l 1
 361 564 374 571 467 631 c 0
 472 634 479 639 487 639 c 0
 505 639 512 621 512 614 c 0
 512 600 499 593 493 588 c 0
 360 495 358 491 346 491 c 2
 344 491 l 2
 334 491 333 494 228 590 c 0
 222 596 214 602 214 614 c 0
EndSplineSet
Refer: 168 122 S 1 0 0 1 -0 0 3
EndChar

StartChar: zdotaccent
Encoding: 380 380 233
Width: 525
Flags: HW
TeX: 611 0
ItalicCorrection: 115
HStem: -0 53<132 424.783> 378 53<170.538 444> 525 86<337.452 408.548>
VStem: 330 86<532.436 603.058>
DStem2: 60 62 132 53 0.772162 0.635425<49.8769 497.305>
AnchorPoint: "below" 254 0 basechar 0
AnchorPoint: "above" 354 597 basechar 0
LayerCount: 2
Fore
SplineSet
330 565 m 0
 330 591 354 611 376 611 c 0
 396 611 416 595 416 571 c 0
 416 544 392 525 370 525 c 0
 346 525 330 545 330 565 c 0
EndSplineSet
Refer: 168 122 S 1 0 0 1 -0 -0 3
EndChar

StartChar: ij
Encoding: 307 307 234
Width: 525
Flags: HW
TeX: 611 222
ItalicCorrection: 115
HStem: -227 54<334.128 362.99> -0 53<45.5537 156 218 307.545> 378 53<114.577 210 379.64 463> 525 86<223.747 295.548 476.747 548.548>
VStem: 216 87<532.436 603.037> 260 79<-171.68 -123.394> 469 87<532.436 603.037>
DStem2: 109.345 -227 171.345 -227 0.164359 0.986401<294.051 613.316> 362.008 -227 423.341 -227 0.164359 0.986401<57.663 613.371>
LayerCount: 2
Fore
SplineSet
45 26 m 0
 45 34 49 53 77 53 c 2
 156 53 l 1
 210 378 l 1
 143 378 l 2
 120 378 114 393 114 403 c 0
 114 429 137 431 147 431 c 2
 242 431 l 2
 255 431 276 429 276 404 c 0
 276 399 274 395 274 394 c 2
 223 88 l 2
 221 76 220 65 218 53 c 1
 278 53 l 2
 305 53 308 34 308 27 c 0
 308 20 305 1 278 -0 c 1
 78 -0 l 2
 50 0 45 16 45 26 c 0
260 -163 m 0
 260 -131 284 -118 302 -118 c 0
 321 -118 339 -133 339 -154 c 0
 339 -161 337 -166 334 -173 c 1
 368 -172 378 -126 392 -47 c 2
 453 323 l 2
 456 341 460 360 463 378 c 1
 408 378 l 1
 382 379 379 395 379 403 c 0
 379 414 385 431 408 431 c 2
 495 431 l 2xf6
 509 431 529 427 529 404 c 0
 529 402 528 400 528 398 c 2
 453 -49 l 2
 443 -110 426 -227 336 -227 c 0
 296 -227 260 -201 260 -163 c 0
EndSplineSet
Refer: 57 729 S 1 0 0 1 -123 0 2
Refer: 57 729 S 1 0 0 1 130 0 2
Ligature2: "Latin Dutch ligatures subtable" i j
EndChar

StartChar: exclamdown
Encoding: 161 161 235
Width: 525
Flags: HW
TeX: 388 222
ItalicCorrection: 115
HStem: 281 108<278.444 357.416>
VStem: 178 109<-216.466 -126.42> 247 87<135.894 198.951> 264 108<295.375 374.369>
LayerCount: 2
Fore
SplineSet
178 -182 m 0xc0
 178 -174 180 -165 181 -160 c 2
 247 171 l 2xa0
 249 181 253 200 278 200 c 2
 303 200 l 2
 327 200 334 185 334 173 c 0xa0
 334 166 332 159 331 152 c 2
 287 -172 l 2
 280 -225 242 -230 228 -230 c 0
 201 -230 178 -212 178 -182 c 0xc0
264 330 m 0
 264 359 290 389 322 389 c 0
 351 389 372 367 372 340 c 0
 372 310 345 281 313 281 c 0x90
 284 281 264 303 264 330 c 0
EndSplineSet
EndChar

StartChar: questiondown
Encoding: 191 191 236
Width: 525
Flags: HW
TeX: 388 222
ItalicCorrection: 115
HStem: -227 53<122.16 334.539> 303 85<267.833 340.814>
VStem: 43 62<-155.007 -68.7482> 238 74<98.5505 213.583> 261 87<310.942 380.617> 368 78<-124.673 -68.791>
LayerCount: 2
Fore
SplineSet
43 -116 m 0
 43 -82 60 -49 85 -26 c 0
 108 -4 217 40 238 157 c 0
 246 203 243 216 279 216 c 0xf4
 292 216 312 215 312 191 c 0
 312 172 304 122 283 82 c 0
 215 -46 105 -41 105 -116 c 0
 105 -139 119 -174 213 -174 c 0
 317 -174 353 -146 373 -125 c 1
 369 -118 368 -112 368 -105 c 0
 368 -84 385 -64 409 -64 c 0
 429 -64 446 -78 446 -100 c 0
 446 -114 438 -146 411 -171 c 0
 367 -213 290 -227 212 -227 c 0
 71 -227 43 -160 43 -116 c 0
EndSplineSet
Refer: 403 183 S 1 0 0 1 6 126 2
EndChar

StartChar: sterling
Encoding: 163 163 237
Width: 525
Flags: HW
TeX: 611 0
ItalicCorrection: 115
HStem: -4 56<281.245 389.106> 66 56<110.245 147.935> 279 53<149.42 220 291 382.539> 564 53<357.827 438.526>
VStem: 405 65<68.6858 145.334> 448 61<456.838 555.516>
DStem2: 172.845 -4 234.845 -4 0.164359 0.986401<121.233 286.902 350.85 555.306>
LayerCount: 2
Fore
SplineSet
49 47 m 0
 49 87 90 122 143 122 c 0
 161 122 174 119 187 116 c 1
 191 125 197 126 220 279 c 1
 180 279 l 2
 173 279 149 280 149 305 c 0
 149 331 171 332 184 332 c 0
 199 332 214 332 229 332 c 1
 250 456 252 472 256 487 c 0
 279 567 346 617 406 617 c 0
 468 617 509 566 509 489 c 0
 509 450 500 420 465 420 c 0
 441 420 428 437 428 456 c 0
 428 474 438 484 448 491 c 1xf4
 448 553 423 564 406 564 c 0
 377 564 325 533 310 446 c 2
 291 332 l 1
 353 332 l 2
 379 332 383 314 383 306 c 0
 383 298 380 280 352 279 c 1
 282 279 l 1
 266 166 257 122 243 93 c 1
 284 73 315 52 351 52 c 0
 385 52 400 90 405 108 c 0
 411 127 409 147 440 147 c 0
 455 147 470 142 470 121 c 0xf8
 470 86 429 -4 348 -4 c 0
 293 -4 235 32 209 45 c 1
 165 -1 123 -4 108 -4 c 0
 75 -4 49 17 49 47 c 0
109 49 m 1
 125 51 137 57 148 65 c 1
 145 65 143 66 140 66 c 0xf0
 125 66 117 62 109 49 c 1
EndSplineSet
EndChar

StartChar: Agrave
Encoding: 192 192 238
Width: 525
Flags: HW
TeX: 777 0
ItalicCorrection: 115
HStem: 0 53<31.3693 94 157 209.627 323.41 385 446.119 501.565> 176 53<229 372> 604 20<345.5 390.5>
DStem2: 94 53 157 53 0.377897 0.925848<23.8075 156.582 213.965 558.399> 444 111 372 229 0.0751167 -0.997175<-347.13 -123.075 -69.9243 53.4042>
AnchorPoint: "below" 262 0 basechar 0
AnchorPoint: "above" 392 776 basechar 0
LayerCount: 2
Fore
SplineSet
240 769 m 0
 240 788 256 801 271 801 c 2
 273 801 l 2
 282 801 283 799 421 739 c 0
 433 734 447 728 448 711 c 0
 448 700 435 676 417 676 c 0
 407 676 412 675 269 737 c 0
 255 743 240 750 240 769 c 0
EndSplineSet
Refer: 111 65 S 1 0 0 1 -0 0 3
AlternateSubs2: "Stilistic set 01 subtable" Agrave.vn
AlternateSubs2: "Latin alternatives subtable" Agrave.vn
Substitution2: "Latin Vietnamese substitutions subtable" Agrave.vn
EndChar

StartChar: Aacute
Encoding: 193 193 239
Width: 525
Flags: HW
TeX: 777 0
ItalicCorrection: 115
HStem: -0 53<31.3693 94 157 209.627 323.41 385 446.119 501.565> 176 53<229 372> 604 20<345.5 390.5>
DStem2: 94 53 157 53 0.377897 0.925848<23.8075 156.582 213.965 558.399> 444 111 372 229 0.0751167 -0.997175<-347.13 -123.075 -69.9243 53.4042>
AnchorPoint: "below" 262 0 basechar 0
AnchorPoint: "above" 392 776 basechar 0
LayerCount: 2
Fore
SplineSet
324 710 m 0
 324 733 334 732 504 797 c 0
 509 799 516 801 522 801 c 0
 540 801 551 786 551 771 c 0
 551 744 543 746 371 681 c 0
 365 679 358 676 351 676 c 0
 329 676 324 700 324 710 c 0
EndSplineSet
Refer: 111 65 S 1 0 0 1 -0 -0 3
AlternateSubs2: "Stilistic set 01 subtable" Aacute.vn
AlternateSubs2: "Latin alternatives subtable" Aacute.vn
Substitution2: "Latin Vietnamese substitutions subtable" Aacute.vn
EndChar

StartChar: Acircumflex
Encoding: 194 194 240
Width: 525
Flags: HW
TeX: 819 0
ItalicCorrection: 115
HStem: -0 53<31.3693 94 157 209.627 323.41 385 446.119 501.565> 176 53<229 372> 604 20<345.5 390.5>
DStem2: 94 53 157 53 0.377897 0.925848<23.8075 156.582 213.965 558.399> 444 111 372 229 0.0751167 -0.997175<-347.13 -123.075 -69.9243 53.4042>
AnchorPoint: "below" 262 0 basechar 0
AnchorPoint: "above" 396 798 basechar 0
LayerCount: 2
Fore
SplineSet
209 685 m 0
 209 698 220 706 226 711 c 0
 383 827 376 823 387 823 c 2
 388 823 l 2
 403 823 399 823 513 711 c 0
 521 703 528 695 528 685 c 0
 528 670 510 652 494 652 c 0
 479 652 475 661 384 758 c 1
 251 654 252 652 239 652 c 0
 226 652 209 669 209 685 c 0
EndSplineSet
Refer: 111 65 S 1 0 0 1 0 -0 3
AlternateSubs2: "Stilistic set 01 subtable" Acircumflex.vn
AlternateSubs2: "Latin alternatives subtable" Acircumflex.vn
Substitution2: "Latin Vietnamese substitutions subtable" Acircumflex.vn
EndChar

StartChar: Atilde
Encoding: 195 195 241
Width: 525
Flags: HW
TeX: 819 0
ItalicCorrection: 115
HStem: 0 53<31.3693 94 157 209.627 323.41 385 446.119 501.565> 176 53<229 372> 604 20<345.5 390.5> 698 57<413.036 511.754> 762 57<264.52 364.735>
DStem2: 94 53 157 53 0.377897 0.925848<23.8075 156.582 213.965 558.399> 444 111 372 229 0.0751167 -0.997175<-347.13 -123.075 -69.9243 53.4042>
AnchorPoint: "below" 262 0 basechar 0
AnchorPoint: "above" 395 794 basechar 0
LayerCount: 2
Fore
SplineSet
180 725 m 0
 180 737 187 744 200 756 c 0
 228 782 273 819 321 819 c 0
 386 819 417 755 461 755 c 0
 508 755 548 819 573 819 c 0
 588 819 598 803 598 792 c 0
 598 781 591 774 587 770 c 0
 558 741 509 698 457 698 c 0
 391 698 361 762 318 762 c 0
 282 762 236 718 228 710 c 0
 219 702 212 699 205 699 c 0
 189 699 180 715 180 725 c 0
EndSplineSet
Refer: 111 65 S 1 0 0 1 -0 0 3
AlternateSubs2: "Stilistic set 01 subtable" Atilde.vn
AlternateSubs2: "Latin alternatives subtable" Atilde.vn
Substitution2: "Latin Vietnamese substitutions subtable" Atilde.vn
EndChar

StartChar: Adieresis
Encoding: 196 196 242
Width: 525
Flags: HW
TeX: 819 0
ItalicCorrection: 115
HStem: -0 53<31.3693 94 157 209.627 323.41 385 446.119 501.565> 176 53<229 372> 604 20<345.5 390.5> 733 86<254.452 325.548 458.973 529.548>
VStem: 247 86<740.436 811.564> 451 86<740.679 811.058>
DStem2: 94 53 157 53 0.377897 0.925848<23.8075 156.582 213.965 558.399> 444 111 372 229 0.0751167 -0.997175<-347.13 -123.075 -69.9243 53.4042>
AnchorPoint: "below" 262 0 basechar 0
AnchorPoint: "above" 395 794 basechar 0
LayerCount: 2
Fore
SplineSet
247 773 m 0
 247 800 271 819 293 819 c 0
 317 819 333 799 333 779 c 0
 333 752 309 733 287 733 c 0
 265 733 247 749 247 773 c 0
451 773 m 0
 451 796 472 819 497 819 c 0
 517 819 537 803 537 779 c 0
 537 752 513 733 491 733 c 0
 469 733 451 750 451 773 c 0
EndSplineSet
Refer: 111 65 S 1 0 0 1 0 -0 3
EndChar

StartChar: Aring
Encoding: 197 197 243
Width: 525
Flags: HW
TeX: 777 0
ItalicCorrection: 115
HStem: -0 53<31.3693 94 157 209.627 323.41 385 448 501.565> 176 53<229 372> 774 53<340.172 421.396>
VStem: 253 59<632.414 744.934> 431 59<653.877 764.944>
DStem2: 94 53 157 53 0.377743 0.92591<23.7978 156.572 213.956 558.391> 448 53 372 229 0.0746971 -0.997206<-405.241 -181.185 -128.035 -4.70592>
LayerCount: 2
Fore
SplineSet
31 26 m 0
 31 49 49 53 66 53 c 2
 94 53 l 1
 309 580 l 1
 276 595 253 629 253 676 c 0
 253 759 323 827 392 827 c 0
 453 827 490 779 490 722 c 0
 490 666 456 613 408 587 c 1
 448 53 l 1
 469 53 l 2
 497 53 502 37 502 27 c 0
 502 17 498 0 469 -0 c 2
 355 -0 l 2
 327 0 323 17 323 26 c 0
 323 48 339 53 357 53 c 2
 385 53 l 1
 376 176 l 1
 207 176 l 1
 157 53 l 1
 178 53 l 2
 206 53 210 37 210 27 c 0
 210 17 206 0 177 -0 c 2
 63 -0 l 2
 35 0 31 18 31 26 c 0
229 229 m 1
 372 229 l 1
 368 269 354 491 354 535 c 2
 354 550 l 1
 337 501 l 1
 229 229 l 1
312 683 m 0
 312 650 330 624 359 624 c 0
 394 624 431 667 431 716 c 0
 431 749 412 774 383 774 c 0
 347 774 312 732 312 683 c 0
EndSplineSet
EndChar

StartChar: AE
Encoding: 198 198 244
Width: 525
Flags: HW
TeX: 611 0
ItalicCorrection: 115
HStem: 0 53<26.4611 78 129 170.532 228.554 272 323 461.861> 191 53<201 295> 290 53<371 527.187> 558 53<230.468 267 318 356 407 535>
VStem: 524 65<480.251 555.729>
DStem2: 78 53 129 53 0.350514 0.936558<17.8762 165.348 221.996 539.209> 263.169 0 314.169 0 0.164359 0.986401<62.113 193.634 247.393 302.3 356.058 565.669>
AnchorPoint: "below" 261 0 basechar 0
AnchorPoint: "above" 392 619 basechar 0
LayerCount: 2
Fore
SplineSet
26 26 m 0
 26 35 30 53 59 53 c 2
 78 53 l 1
 267 558 l 1
 265 558 l 2
 253 558 230 559 230 584 c 0
 230 592 233 611 262 611 c 2
 557 611 l 2
 585 611 589 594 589 585 c 0
 589 576 573 484 571 480 c 0
 566 469 557 464 549 464 c 0
 537 464 524 474 524 488 c 0
 524 495 527 509 535 558 c 1
 407 558 l 1
 371 343 l 1
 493 343 l 2
 504 343 528 343 528 318 c 0
 528 310 524 290 496 290 c 2
 362 290 l 1
 323 53 l 1
 459 53 l 1
 472 145 474 163 498 163 c 0
 512 163 522 149 522 140 c 0
 522 130 518 108 505 32 c 0
 500 5 493 0 470 0 c 2
 260 0 l 2
 232 0 228 19 228 26 c 0
 228 33 232 53 260 53 c 2
 272 53 l 1
 295 191 l 1
 181 191 l 1
 129 53 l 1
 140 53 l 2
 167 53 171 35 171 27 c 0
 171 19 168 0 139 0 c 2
 57 0 l 1
 30 1 26 18 26 26 c 0
201 244 m 1
 304 244 l 1
 356 558 l 1
 318 558 l 1
 201 244 l 1
EndSplineSet
EndChar

StartChar: Ccedilla
Encoding: 199 199 245
Width: 525
Flags: HW
TeX: 611 194
ItalicCorrection: 115
HStem: -204 53<133.42 303.479> 566 53<309.223 448.143>
VStem: 85 61<132.894 361.788> 320 62<-133.007 -70.1978> 450 61<122.781 197.004> 494 63<405.318 518.085>
AnchorPoint: "above" 378 619 basechar 0
LayerCount: 2
Fore
SplineSet
85 241 m 0
 85 442 231 619 379 619 c 0
 431 619 473 602 509 565 c 1
 533 609 539 619 556 619 c 0
 571 619 582 608 582 593 c 0
 582 586 583 593 557 438 c 0
 555 428 554 404 525 404 c 0
 500 404 494 418 494 435 c 2
 494 445 l 1xf4
 492 508 454 566 381 566 c 0
 271 566 146 414 146 240 c 0
 146 130 203 45 288 45 c 0
 358 45 432 96 450 170 c 0
 452 180 457 198 480 198 c 2
 483 198 l 2
 504 198 511 186 511 171 c 0
 511 119 443 4 301 -8 c 1
 308 -16 307 -15 319 -19 c 0
 344 -28 382 -51 382 -98 c 0
 382 -140 357 -195 230 -203 c 0
 210 -204 185 -204 170 -204 c 2
 164 -204 l 2
 137 -204 133 -187 133 -178 c 0
 133 -153 157 -151 165 -151 c 2xf8
 184 -151 l 1
 259 -150 320 -141 320 -100 c 0
 320 -84 307 -68 280 -65 c 0
 273 -64 244 -66 244 -38 c 0
 244 -19 252 -9 254 -6 c 1
 140 14 85 126 85 241 c 0
EndSplineSet
EndChar

StartChar: Egrave
Encoding: 200 200 246
Width: 525
Flags: HW
TeX: 777 0
ItalicCorrection: 115
HStem: 0 53<34.3876 109 171 452.864> 290 53<220 350> 558 53<127.404 193 255 512>
VStem: 345 56<234.621 288.021> 502 76<481.344 555.774>
DStem2: 100.169 0 162.169 0 0.164359 0.986401<63.921 304.272 358.031 565.669>
AnchorPoint: "below" 266 0 basechar 0
AnchorPoint: "above" 397 789 basechar 0
LayerCount: 2
Fore
SplineSet
266 769 m 0
 266 788 282 801 297 801 c 2
 298 801 l 2
 307 801 309 799 447 739 c 0
 459 734 472 728 473 711 c 0
 473 700 461 676 443 676 c 0
 433 676 437 675 294 737 c 0
 280 743 266 750 266 769 c 0
EndSplineSet
Refer: 115 69 S 1 0 0 1 0 0 3
AlternateSubs2: "Stilistic set 01 subtable" Egrave.vn
AlternateSubs2: "Latin alternatives subtable" Egrave.vn
Substitution2: "Latin Vietnamese substitutions subtable" Egrave.vn
EndChar

StartChar: Eacute
Encoding: 201 201 247
Width: 525
Flags: HW
TeX: 777 0
ItalicCorrection: 115
HStem: -0 53<34.3876 109 171 452.864> 290 53<220 350> 558 53<127.404 193 255 512>
VStem: 345 56<234.621 288.021> 502 76<481.344 555.774>
DStem2: 100.169 -0 162.169 -0 0.164359 0.986401<63.921 304.272 358.031 565.669>
AnchorPoint: "below" 266 0 basechar 0
AnchorPoint: "above" 397 789 basechar 0
LayerCount: 2
Fore
SplineSet
322 710 m 0
 322 733 332 732 502 797 c 0
 507 799 514 801 520 801 c 0
 538 801 549 786 549 771 c 0
 549 744 541 746 369 681 c 0
 363 679 356 676 349 676 c 0
 327 676 322 700 322 710 c 0
EndSplineSet
Refer: 115 69 S 1 0 0 1 -0 -0 3
AlternateSubs2: "Stilistic set 01 subtable" Eacute.vn
AlternateSubs2: "Latin alternatives subtable" Eacute.vn
Substitution2: "Latin Vietnamese substitutions subtable" Eacute.vn
EndChar

StartChar: Ecircumflex
Encoding: 202 202 248
Width: 525
Flags: HW
TeX: 819 0
ItalicCorrection: 115
HStem: -0 53<34.3876 109 171 452.864> 290 53<220 350> 558 53<127.404 193 255 512>
VStem: 345 56<234.621 288.021> 502 76<481.344 555.774>
DStem2: 100.169 -0 162.169 -0 0.164359 0.986401<63.921 304.272 358.031 565.669>
AnchorPoint: "below" 266 0 basechar 0
AnchorPoint: "above" 401 811 basechar 0
LayerCount: 2
Fore
SplineSet
217 685 m 0
 217 698 228 706 234 711 c 0
 391 827 384 823 395 823 c 2
 396 823 l 2
 411 823 407 823 521 711 c 0
 529 703 536 695 536 685 c 0
 536 670 518 652 502 652 c 0
 487 652 483 661 392 758 c 1
 260 654 261 652 248 652 c 0
 230 652 217 673 217 685 c 0
EndSplineSet
Refer: 115 69 S 1 0 0 1 -0 -0 3
AlternateSubs2: "Stilistic set 01 subtable" Ecircumflex.vn
AlternateSubs2: "Latin alternatives subtable" Ecircumflex.vn
Substitution2: "Latin Vietnamese substitutions subtable" Ecircumflex.vn
EndChar

StartChar: Edieresis
Encoding: 203 203 249
Width: 525
Flags: HW
TeX: 819 0
ItalicCorrection: 115
HStem: -0 53<34.3876 109 171 452.864> 290 53<220 350> 558 53<127.404 193 255 512> 733 85<253.833 326.814> 733 86<458.646 529.548>
VStem: 247 87<740.942 810.617> 345 56<234.621 288.021> 451 86<740.679 811.615> 502 76<481.344 555.774>
DStem2: 100.169 -0 162.169 -0 0.164359 0.986401<63.921 304.272 358.031 565.669>
AnchorPoint: "below" 266 0 basechar 0
AnchorPoint: "above" 400 807 basechar 0
LayerCount: 2
Fore
SplineSet
451 773 m 0xef
 451 796 471 819 496 819 c 0
 516 819 537 803 537 779 c 0
 537 752 513 733 491 733 c 0
 469 733 451 750 451 773 c 0xef
EndSplineSet
Refer: 403 183 S 1 0 0 1 -8 556 2
Refer: 115 69 S 1 0 0 1 0 -0 3
EndChar

StartChar: Igrave
Encoding: 204 204 250
Width: 525
Flags: HW
TeX: 777 0
ItalicCorrection: 115
HStem: 0 53<88.3871 240 302 445.539> 558 53<181.461 324 386 538.613>
DStem2: 231.169 0 293.169 0 0.164359 0.986401<63.921 565.669>
AnchorPoint: "below" 261 0 basechar 0
AnchorPoint: "above" 392 789 basechar 0
LayerCount: 2
Fore
SplineSet
309 769 m 0
 309 788 325 801 340 801 c 2
 342 801 l 2
 351 801 352 799 490 739 c 0
 502 734 516 728 517 711 c 0
 517 700 504 676 486 676 c 0
 476 676 481 675 338 737 c 0
 324 743 309 750 309 769 c 0
EndSplineSet
Refer: 119 73 S 1 0 0 1 -0 0 3
AlternateSubs2: "Stilistic set 01 subtable" Igrave.vn
AlternateSubs2: "Latin alternatives subtable" Igrave.vn
Substitution2: "Latin Vietnamese substitutions subtable" Igrave.vn
EndChar

StartChar: Iacute
Encoding: 205 205 251
Width: 525
Flags: HW
TeX: 777 0
ItalicCorrection: 115
HStem: 0 53<88.3871 240 302 445.539> 558 53<181.461 324 386 538.613>
DStem2: 231.169 0 293.169 0 0.164359 0.986401<63.921 565.669>
AnchorPoint: "below" 261 0 basechar 0
AnchorPoint: "above" 392 789 basechar 0
LayerCount: 2
Fore
SplineSet
289 710 m 0
 289 733 299 732 469 797 c 0
 474 799 481 801 487 801 c 0
 505 801 516 786 516 771 c 0
 516 744 508 746 336 681 c 0
 330 679 323 676 316 676 c 0
 294 676 289 700 289 710 c 0
EndSplineSet
Refer: 119 73 S 1 0 0 1 -0 -0 3
AlternateSubs2: "Stilistic set 01 subtable" Iacute.vn
AlternateSubs2: "Latin alternatives subtable" Iacute.vn
Substitution2: "Latin Vietnamese substitutions subtable" Iacute.vn
EndChar

StartChar: Icircumflex
Encoding: 206 206 252
Width: 525
Flags: HW
TeX: 819 0
ItalicCorrection: 115
HStem: 0 53<88.3871 240 302 445.539> 558 53<181.461 324 386 538.613>
DStem2: 231.169 0 293.169 0 0.164359 0.986401<63.921 565.669>
AnchorPoint: "below" 261 0 basechar 0
AnchorPoint: "above" 396 811 basechar 0
LayerCount: 2
Fore
SplineSet
217 685 m 0
 217 698 228 706 234 711 c 0
 391 827 384 823 395 823 c 2
 396 823 l 2
 411 823 407 823 521 711 c 0
 529 703 536 695 536 685 c 0
 536 671 519 652 502 652 c 1
 487 653 482 662 392 758 c 1
 260 654 261 652 248 652 c 0
 230 652 217 673 217 685 c 0
EndSplineSet
Refer: 119 73 S 1 0 0 1 -0 -0 3
EndChar

StartChar: Idieresis
Encoding: 207 207 253
Width: 525
Flags: HW
TeX: 819 0
ItalicCorrection: 115
HStem: 0 53<88.3871 240 302 445.539> 558 53<181.461 324 386 538.613> 733 85<253.833 326.814> 733 86<458.684 529.548>
VStem: 247 87<740.942 810.617> 451 86<740.679 811.615>
DStem2: 231.169 0 293.169 0 0.164359 0.986401<63.921 565.669>
AnchorPoint: "below" 261 0 basechar 0
AnchorPoint: "above" 395 807 basechar 0
LayerCount: 2
Fore
SplineSet
451 773 m 0xdc
 451 798 473 819 497 819 c 0
 517 819 537 803 537 779 c 0
 537 752 513 733 491 733 c 0
 470 733 451 750 451 773 c 0xdc
EndSplineSet
Refer: 403 183 S 1 0 0 1 -8 556 2
Refer: 119 73 S 1 0 0 1 0 0 3
EndChar

StartChar: Eth
Encoding: 208 208 254
Width: 525
Flags: HW
TeX: 611 0
ItalicCorrection: 115
HStem: -0 53<27.4059 94 156 332.497> 273 53<73.4204 131 202 345.412> 558 53<120.535 178 240 411.748>
VStem: 480 62<239.44 475.337>
DStem2: 85.1689 -0 147.169 -0 0.164359 0.986401<63.921 276.82 340.769 565.669>
LayerCount: 2
Fore
SplineSet
27 26 m 0
 27 53 50 53 64 53 c 2
 94 53 l 1
 131 273 l 1
 105 273 l 2
 97 273 73 274 73 299 c 0
 73 324 96 326 105 326 c 0
 117 326 128 326 140 326 c 1
 178 558 l 1
 152 558 l 2
 125 558 120 574 120 584 c 0
 120 593 125 611 153 611 c 2
 363 611 l 2
 506 611 542 467 542 375 c 0
 542 178 411 0 266 -0 c 2
 59 -0 l 2
 32 0 27 16 27 26 c 0
156 53 m 1
 262 53 l 2
 381 53 480 209 480 366 c 0
 480 441 452 558 341 558 c 2
 240 558 l 1
 202 326 l 1
 312 326 l 2
 329 326 346 323 346 301 c 0
 346 294 344 274 315 273 c 1
 193 273 l 1
 156 53 l 1
EndSplineSet
EndChar

StartChar: Ntilde
Encoding: 209 209 255
Width: 525
Flags: HW
TeX: 819 0
ItalicCorrection: 115
HStem: 0 53<36.4035 105 155 215.561> 558 53<129.554 189 411.421 471 522 590.596> 698 57<413.036 511.864> 762 57<264.52 364.735>
DStem2: 96.1689 0 146.169 0 0.164359 0.986401<61.9487 564.845> 279 582 238 549 0.206959 -0.97835<23.8002 529.238> 378.669 0 428.168 0 0.164359 0.986401<62.8548 565.587>
LayerCount: 2
Fore
SplineSet
180 725 m 0
 180 737 187 744 200 756 c 0
 228 782 273 819 321 819 c 0
 386 819 417 755 461 755 c 0
 508 755 549 819 572 819 c 0
 582 819 598 808 598 792 c 0
 598 781 591 774 587 770 c 0
 558 741 509 698 457 698 c 0
 391 698 361 762 318 762 c 0
 282 762 236 718 228 710 c 0
 219 702 212 699 205 699 c 0
 189 699 180 715 180 725 c 0
EndSplineSet
Refer: 124 78 S 1 0 0 1 -0 0 3
EndChar

StartChar: Ograve
Encoding: 210 210 256
Width: 525
Flags: HW
TeX: 777 0
ItalicCorrection: 115
HStem: -8 53<142.967 402.934> 566 53<220.999 481.209>
VStem: 73 66<23.5 227.614> 488 65<378.195 585>
AnchorPoint: "below" 262 0 basechar 0
AnchorPoint: "above" 399 781 basechar 0
LayerCount: 2
Fore
SplineSet
73 44 m 0
 73 134 139 518 164 578 c 0
 176 608 199 619 362 619 c 0
 551 619 553 606 553 564 c 0
 553 484 490 101 463 34 c 0
 449 -1 412 -8 270 -8 c 2
 245 -8 l 2
 87 -8 73 3 73 44 c 0
139 85 m 0
 139 53 154 45 271 45 c 0
 405 45 406 59 416 92 c 0
 434 153 488 463 488 528 c 0
 488 559 473 565 369 566 c 1
 346 566 l 2
 222 566 220 552 210 520 c 0
 198 479 139 163 139 85 c 0
256 769 m 0
 256 788 272 801 287 801 c 2
 289 801 l 2
 298 801 299 799 437 739 c 0
 449 734 463 728 464 711 c 0
 464 700 451 676 433 676 c 0
 423 676 428 675 285 737 c 0
 271 743 256 750 256 769 c 0
EndSplineSet
AlternateSubs2: "Stilistic set 01 subtable" Ograve.vn
AlternateSubs2: "Latin alternatives subtable" Ograve.vn
Substitution2: "Latin Vietnamese substitutions subtable" Ograve.vn
EndChar

StartChar: Oacute
Encoding: 211 211 257
Width: 525
Flags: HW
TeX: 777 0
ItalicCorrection: 115
HStem: -8 53<142.967 402.934> 566 53<220.999 481.209>
VStem: 73 66<23.5 227.614> 488 65<378.195 585>
AnchorPoint: "below" 262 0 basechar 0
AnchorPoint: "above" 399 781 basechar 0
LayerCount: 2
Fore
SplineSet
73 44 m 0
 73 134 139 518 164 578 c 0
 176 608 199 619 362 619 c 0
 551 619 553 606 553 564 c 0
 553 484 490 101 463 34 c 0
 449 -1 412 -8 270 -8 c 2
 245 -8 l 2
 87 -8 73 3 73 44 c 0
139 85 m 0
 139 53 154 45 271 45 c 0
 405 45 406 59 416 92 c 0
 434 153 488 463 488 528 c 0
 488 559 473 565 369 566 c 1
 346 566 l 2
 222 566 220 552 210 520 c 0
 198 479 139 163 139 85 c 0
298 710 m 0
 298 733 306 732 478 797 c 0
 483 799 490 801 496 801 c 0
 514 801 525 786 525 771 c 0
 525 744 517 746 345 681 c 0
 339 679 332 676 325 676 c 0
 303 676 298 700 298 710 c 0
EndSplineSet
AlternateSubs2: "Stilistic set 01 subtable" Oacute.vn
AlternateSubs2: "Latin alternatives subtable" Oacute.vn
Substitution2: "Latin Vietnamese substitutions subtable" Oacute.vn
EndChar

StartChar: Ocircumflex
Encoding: 212 212 258
Width: 525
Flags: HW
TeX: 819 0
ItalicCorrection: 115
HStem: -8 53<169.875 373.576> 566 53<246.813 457.24>
VStem: 84 65<66.4639 303.407> 478 63<310.343 546.428>
AnchorPoint: "below" 262 0 basechar 0
AnchorPoint: "above" 403 803 basechar 0
LayerCount: 2
Fore
SplineSet
217 685 m 0
 217 698 228 706 234 711 c 0
 391 827 383 823 394 823 c 2
 395 823 l 2
 410 823 407 823 521 711 c 0
 529 703 535 695 535 685 c 0
 535 671 518 652 501 652 c 1
 486 653 481 662 391 758 c 1
 259 654 260 652 247 652 c 0
 229 652 217 673 217 685 c 0
EndSplineSet
Refer: 125 79 S 1 0 0 1 -0 -0 3
AlternateSubs2: "Stilistic set 01 subtable" Ocircumflex.vn
AlternateSubs2: "Latin alternatives subtable" Ocircumflex.vn
Substitution2: "Latin Vietnamese substitutions subtable" Ocircumflex.vn
EndChar

StartChar: Otilde
Encoding: 213 213 259
Width: 525
Flags: HW
TeX: 819 0
ItalicCorrection: 115
HStem: -8 53<169.875 373.576> 566 53<246.813 457.24> 698 57<411.844 511.044> 762 57<263.938 363.868>
VStem: 84 65<66.4639 303.407> 478 63<310.343 546.428>
AnchorPoint: "below" 262 0 basechar 0
AnchorPoint: "above" 402 799 basechar 0
LayerCount: 2
Fore
SplineSet
179 725 m 0
 179 737 187 744 200 756 c 0
 228 782 272 819 320 819 c 0
 386 819 415 755 459 755 c 0
 495 755 541 800 549 808 c 1
 558 815 565 818 572 818 c 0
 588 818 597 802 597 792 c 0
 597 780 588 772 578 762 c 0
 550 736 505 698 456 698 c 0
 390 698 360 762 317 762 c 0
 281 762 236 718 228 710 c 0
 219 702 211 699 204 699 c 0
 188 699 179 715 179 725 c 0
EndSplineSet
Refer: 125 79 S 1 0 0 1 0 0 3
AlternateSubs2: "Stilistic set 01 subtable" Otilde.vn
AlternateSubs2: "Latin alternatives subtable" Otilde.vn
Substitution2: "Latin Vietnamese substitutions subtable" Otilde.vn
EndChar

StartChar: Odieresis
Encoding: 214 214 260
Width: 525
Flags: HW
TeX: 819 0
ItalicCorrection: 115
HStem: -8 53<169.875 373.576> 566 53<246.813 457.24> 733 85<252.833 325.814> 733 86<457.684 528.548>
VStem: 84 65<66.4639 303.407> 246 87<740.942 810.617> 450 86<740.679 811.615> 478 63<310.343 546.428>
AnchorPoint: "below" 262 0 basechar 0
AnchorPoint: "above" 402 799 basechar 0
LayerCount: 2
Fore
SplineSet
450 773 m 0xde
 450 798 472 819 496 819 c 0
 516 819 536 803 536 779 c 0
 536 752 512 733 490 733 c 0
 469 733 450 750 450 773 c 0xde
EndSplineSet
Refer: 403 183 S 1 0 0 1 -9 556 2
Refer: 125 79 S 1 0 0 1 0 0 3
EndChar

StartChar: OE
Encoding: 338 338 261
Width: 525
Flags: HW
TeX: 611 0
ItalicCorrection: 115
HStem: -8 53<126.971 258.177> -0 53<321 463.662> 290 53<369 532.539> 558 53<405 538> 566 53<203.365 337.774>
VStem: 55 53<63.8741 293.343> 527 65<478.482 555.774>
DStem2: 260.176 -8 310.836 -8 0.164359 0.986401<71.0573 310.354 364.113 566.178>
AnchorPoint: "above" 390 619 basechar 0
LayerCount: 2
Fore
SplineSet
55 102 m 0
 55 179 85 347 97 407 c 0
 132 579 157 619 299 619 c 0xae
 339 619 353 611 398 611 c 2
 562 611 l 2
 569 611 592 610 592 585 c 0
 592 579 577 487 573 478 c 0
 568 469 560 464 551 464 c 0
 540 464 527 473 527 488 c 0
 527 495 530 510 538 558 c 1
 405 558 l 1
 369 343 l 1
 500 343 l 2
 529 343 533 326 533 317 c 0
 533 308 529 290 500 290 c 2
 360 290 l 1
 321 53 l 1
 461 53 l 1x76
 473 140 476 163 500 163 c 0
 514 163 524 152 524 141 c 0
 524 132 520 109 507 26 c 0
 503 0 484 0 474 -0 c 2
 301 -0 l 2x76
 248 0 237 -8 195 -8 c 0
 78 -8 55 19 55 102 c 0
108 130 m 0
 108 85 114 45 207 45 c 0
 268 45 276 87 296 207 c 0
 342 482 342 477 342 515 c 0xae
 342 549 335 566 288 566 c 0
 263 566 226 562 204 546 c 0
 174 525 157 472 133 329 c 0
 113 211 108 170 108 130 c 0
EndSplineSet
EndChar

StartChar: Oslash
Encoding: 216 216 262
Width: 525
Flags: HW
TeX: 666 55
ItalicCorrection: 115
HStem: -8 53<208 385.549> 566 53<240.844 415.811>
VStem: 84 53<67.845 303.511> 488 53<308.621 542.62>
DStem2: 128 9 180 -5 0.462915 0.886402<-70.2346 2.71002 70.7165 625.736 695.566 766.567>
LayerCount: 2
Fore
SplineSet
84 114 m 0
 84 168 100 276 120 383 c 0
 158 578 189 619 347 619 c 2
 359 619 l 2
 388 619 417 619 445 616 c 1
 482 695 488 690 499 691 c 1
 499 692 l 1
 513 692 527 682 527 666 c 0
 527 654 516 641 497 601 c 1
 530 584 541 556 541 498 c 0
 540 424 505 171 464 79 c 0
 429 1 367 -8 265 -8 c 2
 262 -8 l 2
 235 -8 207 -8 180 -5 c 1
 147 -68 144 -80 125 -80 c 0
 111 -80 98 -71 98 -55 c 0
 98 -46 108 -29 128 9 c 1
 95 27 84 53 84 114 c 0
137 141 m 0
 137 89 149 77 159 67 c 1
 417 564 l 1
 400 566 382 566 363 566 c 2
 341 566 l 2
 208 566 191 525 150 269 c 0
 140 205 137 167 137 141 c 0
208 47 m 1
 225 45 243 45 262 45 c 2
 278 45 l 2
 422 45 431 84 475 341 c 1
 481 382 488 425 488 471 c 0
 488 507 485 523 467 544 c 1
 208 47 l 1
EndSplineSet
EndChar

StartChar: Ugrave
Encoding: 217 217 263
Width: 525
Flags: HW
TeX: 777 0
ItalicCorrection: 115
HStem: -8 53<210.536 331.416> 558 53<105.42 171 233 307.596 411.439 477 539 613.596>
VStem: 110 61<86.7365 248.403>
DStem2: 76.8431 -8 138.842 -8 0.164359 0.986401<186.861 573.778> 382.677 -8 444.676 -8 0.164359 0.986401<124.124 573.806>
AnchorPoint: "below" 266 0 basechar 0
AnchorPoint: "above" 392 789 basechar 0
LayerCount: 2
Fore
SplineSet
266 769 m 0
 266 788 282 801 297 801 c 2
 298 801 l 2
 307 801 309 799 447 739 c 0
 459 734 472 728 473 711 c 0
 473 700 461 676 443 676 c 0
 433 676 437 675 294 737 c 0
 280 743 266 750 266 769 c 0
EndSplineSet
Refer: 131 85 S 1 0 0 1 0 0 3
AlternateSubs2: "Stilistic set 01 subtable" Ugrave.vn
AlternateSubs2: "Latin alternatives subtable" Ugrave.vn
Substitution2: "Latin Vietnamese substitutions subtable" Ugrave.vn
EndChar

StartChar: Uacute
Encoding: 218 218 264
Width: 525
Flags: HW
TeX: 777 0
ItalicCorrection: 115
HStem: -8 53<210.536 331.416> 558 53<105.42 171 233 307.596 411.439 477 539 613.596>
VStem: 110 61<86.7365 248.403>
DStem2: 76.8431 -8 138.842 -8 0.164359 0.986401<186.861 573.778> 382.677 -8 444.676 -8 0.164359 0.986401<124.124 573.806>
AnchorPoint: "below" 266 0 basechar 0
AnchorPoint: "above" 392 789 basechar 0
LayerCount: 2
Fore
SplineSet
322 710 m 0
 322 733 330 732 502 797 c 0
 507 799 514 801 520 801 c 0
 538 801 549 786 549 771 c 0
 549 744 541 746 369 681 c 0
 363 679 356 676 349 676 c 0
 327 676 322 700 322 710 c 0
EndSplineSet
Refer: 131 85 S 1 0 0 1 -0 -0 3
AlternateSubs2: "Stilistic set 01 subtable" Uacute.vn
AlternateSubs2: "Latin alternatives subtable" Uacute.vn
Substitution2: "Latin Vietnamese substitutions subtable" Uacute.vn
EndChar

StartChar: Ucircumflex
Encoding: 219 219 265
Width: 525
Flags: HW
TeX: 819 0
ItalicCorrection: 115
HStem: -8 53<210.536 331.416> 558 53<105.42 171 233 307.596 411.439 477 539 613.596>
VStem: 110 61<86.7365 248.403>
DStem2: 76.8431 -8 138.842 -8 0.164359 0.986401<186.861 573.778> 382.677 -8 444.676 -8 0.164359 0.986401<124.124 573.806>
AnchorPoint: "below" 266 0 basechar 0
AnchorPoint: "above" 396 811 basechar 0
LayerCount: 2
Fore
SplineSet
217 685 m 0
 217 695 223 702 234 711 c 0
 391 827 384 823 395 823 c 2
 396 823 l 2
 411 823 407 822 522 710 c 0
 530 702 536 695 536 685 c 0
 536 669 516 652 503 652 c 0
 488 652 487 657 392 758 c 1
 260 654 261 652 248 652 c 0
 230 652 217 674 217 685 c 0
EndSplineSet
Refer: 131 85 S 1 0 0 1 -0 0 3
EndChar

StartChar: Udieresis
Encoding: 220 220 266
Width: 525
Flags: HW
TeX: 819 0
ItalicCorrection: 115
HStem: -8 53<210.536 331.416> 558 53<105.42 171 233 307.596 411.439 477 539 613.596> 733 85<253.833 326.814> 733 86<458.596 529.548>
VStem: 110 61<86.7365 248.403> 247 87<740.942 810.617> 451 86<740.679 811.615>
DStem2: 76.8431 -8 138.842 -8 0.164359 0.986401<186.861 573.778> 382.677 -8 444.676 -8 0.164359 0.986401<124.124 573.806>
AnchorPoint: "below" 266 0 basechar 0
AnchorPoint: "above" 395 807 basechar 0
LayerCount: 2
Fore
SplineSet
451 773 m 0xde
 451 798 473 819 497 819 c 0
 517 819 537 803 537 779 c 0
 537 752 513 733 491 733 c 0
 469 733 451 750 451 773 c 0xde
EndSplineSet
Refer: 403 183 S 1 0 0 1 -8 556 2
Refer: 131 85 S 1 0 0 1 0 0 3
EndChar

StartChar: Yacute
Encoding: 221 221 267
Width: 525
Flags: HW
TeX: 777 0
ItalicCorrection: 115
HStem: -0 53<171.404 240 302 361.561> 558 53<114.481 170 238 290.613 428.37 472 540 603.612>
DStem2: 238 558 170 558 0.306205 -0.951965<0 262.861> 231.169 -0 293.169 -0 0.164359 0.986401<63.921 247.228> 313 306 334 244 0.54854 0.836124<0 297.921>
AnchorPoint: "below" 261 0 basechar 0
AnchorPoint: "above" 392 789 basechar 0
LayerCount: 2
Fore
SplineSet
324 710 m 0
 324 733 334 732 504 797 c 0
 509 799 516 801 522 801 c 0
 540 801 551 786 551 771 c 0
 551 744 543 746 371 681 c 0
 365 679 358 676 351 676 c 0
 329 676 324 700 324 710 c 0
EndSplineSet
Refer: 135 89 S 1 0 0 1 -0 -0 3
AlternateSubs2: "Stilistic set 01 subtable" Yacute.vn
AlternateSubs2: "Latin alternatives subtable" Yacute.vn
Substitution2: "Latin Vietnamese substitutions subtable" Yacute.vn
EndChar

StartChar: Thorn
Encoding: 222 222 268
Width: 525
Flags: HW
TeX: 611 0
ItalicCorrection: 115
HStem: 0 53<39.3977 121 183 254.627> 159 53<209 394.279> 450 53<258 431.817> 558 53<132.422 205 267 347.63>
VStem: 472 62<285.749 411.292>
DStem2: 112.169 0 174.169 0 0.164359 0.986401<63.921 171.274 225.032 466.37 520.128 565.669>
LayerCount: 2
Fore
SplineSet
39 26 m 0
 39 52 61 53 73 53 c 0
 89 53 105 53 121 53 c 1
 205 558 l 1
 167 558 l 2
 156 558 132 559 132 584 c 0
 132 594 136 611 165 611 c 2
 316 611 l 2
 343 611 348 595 348 585 c 0
 348 560 327 558 315 558 c 0
 299 558 283 558 267 558 c 1
 258 503 l 1
 374 503 l 2
 502 503 534 411 534 357 c 0
 534 274 460 159 315 159 c 2
 200 159 l 1
 183 53 l 1
 223 53 l 2
 234 53 255 51 255 27 c 0
 255 17 251 0 222 0 c 2
 72 0 l 2
 45 0 39 16 39 26 c 0
209 212 m 1
 307 212 l 2
 402 212 472 282 472 349 c 0
 472 399 436 450 358 450 c 2
 249 450 l 1
 209 212 l 1
EndSplineSet
EndChar

StartChar: Germandbls
Encoding: 61699 61699 269
Width: 525
Flags: HW
TeX: 611 0
ItalicCorrection: 115
HStem: -8 54<119.389 166.412 382.169 428.412> 565 54<196.016 226.228 459.016 488.412>
VStem: 38 78<9 125.053> 101 57<352.358 504.803> 209 57<128.287 282.656> 228 80<478.948 601> 300 79<11 152.092> 364 57<352.127 504.242> 471 57<125.243 282.979> 490 80<478.949 601>
LayerCount: 2
Fore
SplineSet
38 17 m 0
 38 24 37 18 63 172 c 0
 66 189 69 203 94 203 c 2
 95 203 l 2
 118 203 124 193 124 177 c 0
 124 159 116 132 116 96 c 0
 116 69 121 46 147 46 c 1
 178 48 209 213 209 249 c 0xe8
 209 279 201 278 159 294 c 0
 145 299 101 311 101 381 c 0
 101 407 120 619 214 619 c 0
 231 619 243 614 258 605 c 1
 261 609 268 619 282 619 c 0
 296 619 308 609 308 593 c 0
 308 585 308 593 282 436 c 0
 280 423 276 408 251 408 c 0
 233 408 221 413 221 436 c 0
 221 455 228 482 228 521 c 0xd4
 228 550 222 565 214 565 c 0
 192 565 158 447 158 385 c 0
 158 356 170 356 211 341 c 0
 247 327 266 302 266 254 c 0xd8
 266 227 243 -8 149 -8 c 0
 124 -8 108 -1 90 11 c 1
 86 1 78 -8 64 -8 c 0
 50 -8 38 1 38 17 c 0
300 16 m 0
 300 25 304 49 325 172 c 0
 328 189 331 203 356 203 c 2
 357 203 l 2
 380 203 387 193 387 177 c 0
 387 159 379 132 379 96 c 0
 379 69 383 46 409 46 c 1
 440 48 471 212 471 250 c 0xc280
 471 280 460 280 421 294 c 0
 407 299 364 311 364 381 c 0
 364 405 383 619 477 619 c 0
 494 619 505 614 520 605 c 1
 523 609 530 619 544 619 c 0
 558 619 570 609 570 593 c 0
 570 585 571 593 545 436 c 0
 543 423 539 408 514 408 c 0
 490 408 483 418 483 436 c 0
 483 455 490 484 490 521 c 0xc140
 490 550 485 565 477 565 c 0
 455 565 421 446 421 385 c 0
 421 356 432 356 473 341 c 0
 509 327 528 302 528 254 c 0xc180
 528 227 505 -8 411 -8 c 0
 386 -8 370 -1 352 11 c 1
 348 1 340 -8 326 -8 c 0
 308 -8 300 6 300 16 c 0
EndSplineSet
EndChar

StartChar: agrave
Encoding: 224 224 270
Width: 525
Flags: HW
TeX: 611 0
ItalicCorrection: 115
HStem: -4 53<159.053 332.562 431.514 526.674> 218 52<240.588 394> 384 53<225.063 377.71> 615 20G<299 313>
VStem: 78 62<68.8506 152.303> 147 78<330.774 380.889> 408 61<219.903 354.754>
AnchorPoint: "below" 227 0 basechar 0
AnchorPoint: "above" 330 615 basechar 0
LayerCount: 2
Fore
SplineSet
276 604 m 0
 276 621 291 635 307 635 c 0
 319 635 316 636 451 559 c 0
 459 554 474 546 474 530 c 0
 474 520 462 496 443 496 c 0
 433 496 426 502 301 572 c 0
 292 577 276 586 276 604 c 0
EndSplineSet
Refer: 143 97 S 1 0 0 1 0 -0 3
AlternateSubs2: "Stilistic set 01 subtable" agrave.vn
AlternateSubs2: "Latin alternatives subtable" agrave.vn
Substitution2: "Latin Vietnamese substitutions subtable" agrave.vn
EndChar

